<?xml version="1.0" encoding="UTF-8"?>
<!DOCTYPE svg PUBLIC "-//W3C//DTD SVG 1.1//EN" "http://www.w3.org/Graphics/SVG/1.1/DTD/svg11.dtd">
<svg xmlns="http://www.w3.org/2000/svg" version="1.1" width="1357px" height="242px" style="shape-rendering:geometricPrecision; text-rendering:geometricPrecision; image-rendering:optimizeQuality; fill-rule:evenodd; clip-rule:evenodd" xmlns:xlink="http://www.w3.org/1999/xlink">
<g><path style="opacity:1" fill="#fefffe" d="M -0.5,-0.5 C 451.833,-0.5 904.167,-0.5 1356.5,-0.5C 1356.5,60.1667 1356.5,120.833 1356.5,181.5C 1289.16,181.496 1221.83,180.996 1154.5,180C 1150.88,176.175 1146.88,175.675 1142.5,178.5C 1139.5,177 1136.5,175.5 1133.5,174C 1120.95,170.932 1108.28,168.265 1095.5,166C 1090.17,165.148 1084.84,164.814 1079.5,165C 1080.5,166 1081.5,167 1082.5,168C 1081.97,168.692 1081.31,169.192 1080.5,169.5C 1076.77,167.424 1072.77,166.257 1068.5,166C 1062.17,166.066 1055.84,166.066 1049.5,166C 1045.4,164.781 1041.4,163.281 1037.5,161.5C 1024.49,163.203 1011.99,161.537 1000,156.5C 999,156.833 998,157.167 997,157.5C 989.97,154.641 982.804,154.141 975.5,156C 976.167,156.667 976.833,157.333 977.5,158C 972.615,161.703 967.281,162.203 961.5,159.5C 958.949,160.359 956.449,161.359 954,162.5C 947.583,159.709 941.416,156.542 935.5,153C 929.058,152.149 922.725,152.649 916.5,154.5C 910.361,151.738 904.195,151.405 898,153.5C 894.713,152.345 891.379,151.345 888,150.5C 872.314,155.348 871.147,153.682 884.5,145.5C 880.681,141.851 876.014,140.185 870.5,140.5C 867.816,140.702 865.15,141.035 862.5,141.5C 858.847,139.762 855.014,138.429 851,137.5C 847.387,138.421 844.22,140.255 841.5,143C 832.235,142.019 823.235,143.185 814.5,146.5C 817.298,148.566 816.965,150.066 813.5,151C 810.103,150.006 806.77,150.34 803.5,152C 799.897,155.387 795.731,157.887 791,159.5C 789.234,158.767 787.401,158.433 785.5,158.5C 785.79,162.961 788.123,165.795 792.5,167C 796.801,173.093 795.301,177.26 788,179.5C 786.941,179.37 786.108,178.87 785.5,178C 788.673,175.614 789.507,172.781 788,169.5C 784.615,165.783 781.615,161.783 779,157.5C 773.877,153.4 769.377,154.067 765.5,159.5C 767.626,163.997 771.126,166.997 776,168.5C 776.268,170.59 775.268,171.924 773,172.5C 772.097,171.299 770.931,170.465 769.5,170C 764.485,168.897 759.485,167.73 754.5,166.5C 751.786,166.94 749.62,168.274 748,170.5C 747.107,169.919 746.107,169.585 745,169.5C 741.333,170.167 737.667,170.833 734,171.5C 731.399,169.847 728.565,169.347 725.5,170C 720.246,171.628 715.246,173.795 710.5,176.5C 708.998,175.917 707.665,175.084 706.5,174C 707.833,173.333 707.833,172.667 706.5,172C 704.741,171.202 703.074,171.369 701.5,172.5C 702.64,174.078 703.14,175.744 703,177.5C 699.88,178.573 696.713,179.573 693.5,180.5C 693.06,181.698 692.727,182.865 692.5,184C 691.5,184.5 690.5,185 689.5,185.5C 687.265,184.248 684.931,183.748 682.5,184C 689.077,186.047 689.077,187.881 682.5,189.5C 677.44,188.234 673.94,185.234 672,180.5C 670.082,179.458 668.249,178.292 666.5,177C 671.179,175.324 675.846,175.657 680.5,178C 685.111,179.007 689.445,178.34 693.5,176C 692.953,175.075 692.287,174.242 691.5,173.5C 685.932,171.366 680.265,169.533 674.5,168C 672.287,167.374 670.12,167.541 668,168.5C 659.648,162.954 650.482,160.62 640.5,161.5C 632.311,163.594 624.311,166.261 616.5,169.5C 611.662,174.178 607.328,179.344 603.5,185C 599.207,188.952 594.207,191.619 588.5,193C 534.172,194.385 479.839,195.052 425.5,195C 428.5,189.333 432.833,185 438.5,182C 444.189,180.774 449.856,179.441 455.5,178C 461.257,172.19 468.091,169.69 476,170.5C 482.783,168.762 489.617,167.262 496.5,166C 494.296,163.284 491.629,162.784 488.5,164.5C 484.709,163.028 485.042,161.861 489.5,161C 486.746,159.42 486.912,158.254 490,157.5C 492.953,158.951 495.787,160.618 498.5,162.5C 499.795,161.902 501.128,161.402 502.5,161C 499.01,158.089 495.344,155.422 491.5,153C 497.378,152.598 503.044,150.765 508.5,147.5C 510.603,143.894 513.269,140.727 516.5,138C 515.833,137 515.167,136 514.5,135C 519.004,129.226 525.004,126.559 532.5,127C 533.328,126.085 534.328,125.419 535.5,125C 528.421,126.635 521.755,125.635 515.5,122C 506.338,119.353 497.171,119.186 488,121.5C 485.343,121.094 482.676,120.76 480,120.5C 467.557,122.587 455.057,124.254 442.5,125.5C 426.924,121.654 412.257,123.82 398.5,132C 391.82,132.927 385.154,133.927 378.5,135C 379.711,136.113 379.711,137.28 378.5,138.5C 379.025,139.192 379.692,139.692 380.5,140C 387.829,140.505 395.162,141.171 402.5,142C 407.18,145.531 409.513,150.031 409.5,155.5C 414.656,158.121 416.156,162.121 414,167.5C 411.094,170.037 407.927,172.204 404.5,174C 401.245,177.127 400.912,180.46 403.5,184C 400.931,187.477 400.931,190.977 403.5,194.5C 399.878,195.325 396.211,195.825 392.5,196C 373.326,196.282 354.16,196.782 335,197.5C 327.882,196.277 320.715,195.443 313.5,195C 309.71,197.047 307.21,200.214 306,204.5C 304.333,205.833 302.667,207.167 301,208.5C 300.502,210.527 300.669,212.527 301.5,214.5C 298.594,220.982 293.594,225.149 286.5,227C 284.099,230.523 282.266,234.356 281,238.5C 279.348,239.399 277.848,240.399 276.5,241.5C 275.5,241.5 274.5,241.5 273.5,241.5C 270.128,236.308 270.462,231.142 274.5,226C 266.335,222.424 258.002,219.09 249.5,216C 248.55,213.133 246.883,210.8 244.5,209C 245.676,206.314 247.343,203.981 249.5,202C 255.609,197.612 262.276,194.279 269.5,192C 269.616,190.732 269.949,189.398 270.5,188C 276.311,188.472 281.977,187.472 287.5,185C 282.203,179.955 283.037,178.789 290,181.5C 295.857,178.967 302.024,177.8 308.5,178C 312.82,175.846 316.154,172.679 318.5,168.5C 312.782,165.108 308.115,166.275 304.5,172C 301.942,173.626 299.275,174.626 296.5,175C 295.633,172.684 296.299,170.684 298.5,169C 296.37,167.739 294.203,167.239 292,167.5C 290.171,165.107 290.337,162.773 292.5,160.5C 292.113,159.28 291.28,158.613 290,158.5C 286.279,159.943 282.779,161.777 279.5,164C 283.462,165.211 284.129,167.211 281.5,170C 276.699,170.984 272.532,173.15 269,176.5C 265.589,172.517 261.422,171.517 256.5,173.5C 252.702,172.967 249.035,171.967 245.5,170.5C 242.161,171.668 238.828,172.834 235.5,174C 232.689,179.935 230.356,179.602 228.5,173C 223.868,173.393 219.201,173.393 214.5,173C 213.655,171.442 214.321,170.442 216.5,170C 211.435,168.971 206.435,167.638 201.5,166C 198.131,165.337 194.797,165.504 191.5,166.5C 189.056,165.778 186.722,164.778 184.5,163.5C 182.013,165.557 179.347,165.891 176.5,164.5C 169.795,166.552 162.962,167.885 156,168.5C 139.8,165.185 123.467,162.518 107,160.5C 100.846,161.427 94.6792,162.26 88.5,163C 79.3456,166.219 70.0123,168.719 60.5,170.5C 59.479,171.002 59.3123,171.668 60,172.5C 64.7075,175.527 64.2075,177.694 58.5,179C 51.2725,177.538 44.6058,178.871 38.5,183C 42.968,185.754 47.468,185.92 52,183.5C 53.0588,183.63 53.8921,184.13 54.5,185C 52.1667,186.667 49.8333,188.333 47.5,190C 41.3556,190.781 35.3556,192.114 29.5,194C 26.7928,195.199 26.1261,197.033 27.5,199.5C 18.1532,200.247 8.81989,200.913 -0.5,201.5C -0.5,134.167 -0.5,66.8333 -0.5,-0.5 Z M 404.5,119.5 C 406.199,119.34 407.866,119.506 409.5,120C 397.627,126.469 384.96,130.469 371.5,132C 364.049,135.208 356.716,138.708 349.5,142.5C 345.175,139.446 340.509,138.779 335.5,140.5C 332.972,140.237 330.639,139.404 328.5,138C 333.543,138.997 338.543,138.664 343.5,137C 343.833,136.667 344.167,136.333 344.5,136C 343.377,134.956 342.044,134.29 340.5,134C 343.167,134 345.833,134 348.5,134C 349.061,132.434 348.394,131.101 346.5,130C 347.167,129.667 347.833,129.333 348.5,129C 352.476,128.926 356.476,129.093 360.5,129.5C 364.198,129.842 367.531,129.009 370.5,127C 369.892,126.13 369.059,125.63 368,125.5C 361.847,126.381 355.681,126.214 349.5,125C 367.951,122.799 386.284,120.966 404.5,119.5 Z M 332.5,125.5 C 341.304,126.462 341.638,128.628 333.5,132C 329.599,132.486 325.932,131.819 322.5,130C 325.815,128.17 329.149,126.67 332.5,125.5 Z M 316.5,140.5 C 320.248,141.538 323.915,142.871 327.5,144.5C 333.582,143.007 339.582,143.174 345.5,145C 342.945,146.444 340.279,147.611 337.5,148.5C 328.813,147.703 320.147,146.703 311.5,145.5C 312.577,143.15 314.244,141.483 316.5,140.5 Z M 221.5,147.5 C 225.913,147.853 230.246,148.686 234.5,150C 237.463,153.055 241.129,154.888 245.5,155.5C 246.914,154.376 248.414,153.376 250,152.5C 251.113,153.76 251.28,154.927 250.5,156C 251.025,156.692 251.692,157.192 252.5,157.5C 254.58,155.411 256.913,153.744 259.5,152.5C 260.167,152.833 260.833,153.167 261.5,153.5C 260.543,155.918 259.209,158.084 257.5,160C 259.5,161.333 261.5,162.667 263.5,164C 257.599,168.564 251.266,169.398 244.5,166.5C 234.946,171.638 225.612,171.138 216.5,165C 220.833,164.667 225.167,164.333 229.5,164C 230.833,163.333 230.833,162.667 229.5,162C 225.833,161.667 222.167,161.333 218.5,161C 220.167,160.667 221.833,160.333 223.5,160C 224.833,159.333 224.833,158.667 223.5,158C 217.432,155.778 211.766,156.611 206.5,160.5C 205.019,159.52 203.685,158.353 202.5,157C 208.657,153.255 214.99,150.088 221.5,147.5 Z M 286.5,149.5 C 287.552,149.351 288.552,149.517 289.5,150C 287.713,155.216 284.046,158.049 278.5,158.5C 276.543,156.515 274.21,155.015 271.5,154C 273.377,153.424 275.211,153.591 277,154.5C 279.761,151.975 282.928,150.309 286.5,149.5 Z M 299.5,149.5 C 301.989,149.298 304.323,149.798 306.5,151C 306.167,151.333 305.833,151.667 305.5,152C 301.431,152.938 297.431,154.105 293.5,155.5C 292.692,155.192 292.025,154.692 291.5,154C 293.82,151.679 296.486,150.179 299.5,149.5 Z M 317.5,150.5 C 318.873,150.343 320.207,150.51 321.5,151C 319.649,152.684 317.982,154.517 316.5,156.5C 316.808,157.308 317.308,157.975 318,158.5C 321.066,154.217 325.232,151.883 330.5,151.5C 334.196,153.679 338.029,155.679 342,157.5C 343.798,156.496 345.632,155.996 347.5,156C 348.453,157.955 349.787,159.622 351.5,161C 354.834,161.789 358.001,162.956 361,164.5C 359.918,169.814 362.085,173.314 367.5,175C 369.007,175.837 369.507,177.004 369,178.5C 367.972,180.361 366.472,181.695 364.5,182.5C 361.833,181.167 359.167,179.833 356.5,178.5C 354.998,179.083 353.665,179.916 352.5,181C 356.008,184.455 356.174,187.955 353,191.5C 350.053,188.627 346.887,188.127 343.5,190C 345.5,191.333 347.5,192.667 349.5,194C 348.4,195.023 347.067,195.523 345.5,195.5C 339.162,194.171 334.495,190.671 331.5,185C 327.703,184.41 324.036,184.91 320.5,186.5C 319.5,186 318.5,185.5 317.5,185C 319.146,183.344 321.146,182.511 323.5,182.5C 326.482,183.332 329.482,183.499 332.5,183C 335.347,178.143 339.18,176.976 344,179.5C 351.129,177.906 351.129,175.906 344,173.5C 342.033,167.699 338.199,163.699 332.5,161.5C 327.455,164.635 322.122,164.969 316.5,162.5C 312.062,164.278 308.062,163.612 304.5,160.5C 307.716,155.606 312.049,152.273 317.5,150.5 Z M 271.5,165.5 C 273.655,165.372 275.655,165.872 277.5,167C 275.167,168.167 272.833,169.333 270.5,170.5C 269.354,169.855 268.354,169.022 267.5,168C 269.066,167.392 270.4,166.558 271.5,165.5 Z M 513.5,179.5 C 522.61,180.671 523.277,183.171 515.5,187C 511.494,188.168 507.494,189.335 503.5,190.5C 501.167,189.167 498.833,187.833 496.5,186.5C 495.549,187.326 494.549,187.492 493.5,187C 494.061,185.324 495.061,183.991 496.5,183C 502.224,181.104 507.891,179.938 513.5,179.5 Z M 295.5,182.5 C 299.643,182.652 302.976,184.319 305.5,187.5C 305,188.5 304.5,189.5 304,190.5C 302.247,189.373 300.413,188.373 298.5,187.5C 288.195,190.547 287.195,188.881 295.5,182.5 Z"/></g>
</svg>
