<?xml version="1.0" encoding="UTF-8"?>
<svg version="1.1" xmlns="http://www.w3.org/2000/svg" width="504" height="402">
<path d="M0 0 C3.57315076 1.82160627 3.81760035 2.47287477 5.4375 5.9375 C7.8717893 10.73630597 10.55125197 12.73936747 15.42578125 14.91796875 C19.40323516 15.93624196 22.78686835 15.24913564 26.79296875 14.6328125 C27.58316406 14.63023438 28.37335938 14.62765625 29.1875 14.625 C31.8125 17.4375 31.8125 17.4375 34.1875 20.625 C40.24261765 23.06696838 47.01564871 22.9043789 53.4375 22.8125 C54.30890625 22.81185547 55.1803125 22.81121094 56.078125 22.81054688 C60.28146662 22.78171298 64.06187363 22.45325075 68.1875 21.625 C70.9375 22.8125 70.9375 22.8125 73.1875 24.625 C73.3525 25.305625 73.5175 25.98625 73.6875 26.6875 C73.8525 27.326875 74.0175 27.96625 74.1875 28.625 C76.61133077 29.79453416 76.61133077 29.79453416 79.1875 30.625 C80.1775 31.615 80.1775 31.615 81.1875 32.625 C83.75811311 33.27267793 83.75811311 33.27267793 86.1875 33.625 C85.1875 36.625 85.1875 36.625 83.1875 37.625 C85.91356304 40.91314599 85.91356304 40.91314599 89.9375 41.875 C90.68 41.7925 91.4225 41.71 92.1875 41.625 C92.8475 39.975 93.5075 38.325 94.1875 36.625 C95.1775 36.955 96.1675 37.285 97.1875 37.625 C98.14965139 44.08515936 98.14965139 44.08515936 98.3359375 46.7421875 C99.1966241 58.25899395 105.48507675 68.74730915 110.296875 79.0546875 C111.00457031 80.58222656 111.00457031 80.58222656 111.7265625 82.140625 C112.15146973 83.05102539 112.57637695 83.96142578 113.01416016 84.89941406 C114.91181859 89.30754114 116.1875 92.78824066 116.1875 97.625 C119.1575 98.12 119.1575 98.12 122.1875 98.625 C128.40604876 91.40913682 129.85551332 84.02122901 130.1875 74.625 C129.96707031 73.38492188 129.74664062 72.14484375 129.51953125 70.8671875 C129.1875 67.625 129.1875 67.625 130.515625 65.734375 C131.46695313 65.06148437 131.46695313 65.06148437 132.4375 64.375 C133.37335938 63.68664062 133.37335938 63.68664062 134.328125 62.984375 C135.24851563 62.31148437 135.24851563 62.31148437 136.1875 61.625 C137.21007589 60.64809747 138.21184662 59.64876779 139.1875 58.625 C140.81402316 56.91913425 142.47756566 55.2472454 144.1875 53.625 C144.8475 53.625 145.5075 53.625 146.1875 53.625 C146.5278125 52.4803125 146.5278125 52.4803125 146.875 51.3125 C148.46846179 48.0496973 149.95088336 47.16239291 153.1875 45.625 C153.8475 45.625 154.5075 45.625 155.1875 45.625 C154.878125 44.7278125 154.878125 44.7278125 154.5625 43.8125 C154.1875 41.625 154.1875 41.625 156.1875 38.625 C158.67575697 37.6489273 160.9986138 36.87945792 163.5625 36.1875 C164.23539062 35.97673828 164.90828125 35.76597656 165.6015625 35.54882812 C167.5859375 35.00390625 167.5859375 35.00390625 171.1875 34.625 C174.28722593 36.80980682 175.0378341 38.09047894 176.0625 41.75 C176.43375 42.69875 176.805 43.6475 177.1875 44.625 C178.095 44.851875 179.0025 45.07875 179.9375 45.3125 C184.63681991 47.21030227 185.83526176 50.37317432 188.0625 54.78125 C189.49754818 58.4087329 189.69845456 60.79284079 189.1875 64.625 C192.87664747 64.17782671 192.87664747 64.17782671 195.75 62 C197.1875 60.625 197.1875 60.625 199.11328125 60.578125 C201.1875 61.625 201.1875 61.625 202.6015625 64.8984375 C203.02191183 66.26058216 203.42492019 67.62817147 203.8125 69 C205.44329355 74.54578091 205.44329355 74.54578091 208.1875 79.625 C208.77307937 86.35916273 207.30326977 93.00011698 206.1875 99.625 C206.93 99.8725 207.6725 100.12 208.4375 100.375 C212.67928754 102.30308525 214.67062647 104.27799627 216.34765625 108.6484375 C216.64542969 109.75445312 216.94320313 110.86046875 217.25 112 C219.57287124 120.92459151 219.57287124 120.92459151 225.6875 127.4375 C226.2753125 127.83582031 226.863125 128.23414063 227.46875 128.64453125 C229.33242967 129.7818631 229.33242967 129.7818631 232.1875 130.625 C229.35957231 119.56386512 227.27719114 112.11174159 217.6171875 105.44921875 C214.17208986 102.86262615 213.40372406 100.67908021 212.1875 96.625 C211.5275 95.635 210.8675 94.645 210.1875 93.625 C210.17578125 90.6640625 210.17578125 90.6640625 210.5 87.25 C210.59925781 86.12851563 210.69851563 85.00703125 210.80078125 83.8515625 C211.13497582 81.06323207 211.58685758 78.36639359 212.1875 75.625 C215.89619909 76.94859932 218.72137431 78.56746466 221.8125 81 C222.56789063 81.58523437 223.32328125 82.17046875 224.1015625 82.7734375 C226.15180707 84.59331751 227.7015362 86.32506876 229.1875 88.625 C229.1875 89.285 229.1875 89.945 229.1875 90.625 C230.8375 89.965 232.4875 89.305 234.1875 88.625 C234.331875 89.388125 234.47625 90.15125 234.625 90.9375 C235.1507594 93.70672908 235.1507594 93.70672908 236.1875 96.625 C236.785625 96.026875 237.38375 95.42875 238 94.8125 C239.0828125 93.7296875 239.0828125 93.7296875 240.1875 92.625 C240.64125 92.08875 241.095 91.5525 241.5625 91 C243.85693097 89.05855841 246.3308235 88.4502621 249.1875 87.625 C249.35552051 86.16682203 249.52187143 84.7084516 249.6875 83.25 C249.7803125 82.43789062 249.873125 81.62578125 249.96875 80.7890625 C250.22102351 78.65587175 250.22102351 78.65587175 250.1875 76.625 C262.02685844 82.21580815 272.73838261 91.18539601 283.42529297 98.68798828 C299.26066691 109.79262474 315.18485002 120.76293863 331.1875 131.625 C330.8575 133.275 330.5275 134.925 330.1875 136.625 C331.1775 137.285 332.1675 137.945 333.1875 138.625 C333.8475 137.305 334.5075 135.985 335.1875 134.625 C336.8596852 135.74178083 338.52512803 136.86866352 340.1875 138 C341.115625 138.62648437 342.04375 139.25296875 343 139.8984375 C343.721875 140.46820313 344.44375 141.03796875 345.1875 141.625 C345.1875 142.285 345.1875 142.945 345.1875 143.625 C346.115625 143.893125 347.04375 144.16125 348 144.4375 C350.94990366 145.53648371 352.24365186 146.24918561 354.1875 148.625 C353.1975 148.955 352.2075 149.285 351.1875 149.625 C351.5175 151.275 351.8475 152.925 352.1875 154.625 C353.18265625 154.55152344 354.1778125 154.47804687 355.203125 154.40234375 C359.93329728 154.66667691 362.84355001 155.96003022 366.9375 158.1875 C367.59621094 158.51041016 368.25492187 158.83332031 368.93359375 159.16601562 C373.90855317 161.81495446 375.45237274 164.28365675 377.1875 169.625 C375.8675 170.615 374.5475 171.605 373.1875 172.625 C373.765 172.769375 374.3425 172.91375 374.9375 173.0625 C375.68 173.248125 376.4225 173.43375 377.1875 173.625 C377.868125 173.74875 378.54875 173.8725 379.25 174 C381.5751681 174.75005423 382.47978824 175.91728824 384.1875 177.625 C385.5097304 177.99996086 386.84331749 178.33853487 388.1875 178.625 C388.49833471 185.42882645 388.40699987 191.11325376 385.89453125 197.48046875 C385.13495431 199.78437891 385.01679778 201.70850436 384.9375 204.125 C384.47998533 209.77431157 381.14373782 213.75514292 377.1875 217.625 C374.1875 218.625 374.1875 218.625 372.48583984 217.82397461 C370.49753593 216.42085448 368.52080999 215.00730577 366.5625 213.5625 C365.86898438 213.08361328 365.17546875 212.60472656 364.4609375 212.11132812 C361.19401516 209.7281338 359.45301342 208.39278428 358.10546875 204.49609375 C358.22917932 200.16622397 359.82954902 198.19765301 362.1875 194.625 C354.04388656 191.48465233 349.96891808 191.80221534 341.95703125 195.00390625 C340.1875 195.625 340.1875 195.625 338.1875 195.625 C336.9047041 198.00733524 336.00205513 200.21610551 335.1875 202.8125 C334.1875 205.625 334.1875 205.625 332.1875 206.625 C331.259375 205.985625 330.33125 205.34625 329.375 204.6875 C325.49809002 202.17891119 324.19203151 201.43114304 319.625 202.3125 C316.17005588 203.23885266 316.17005588 203.23885266 315 205.5 C314.731875 206.20125 314.46375 206.9025 314.1875 207.625 C312.1875 209.875 312.1875 209.875 310.1875 211.625 C309.5275 211.625 308.8675 211.625 308.1875 211.625 C308.5175 212.945 308.8475 214.265 309.1875 215.625 C308.5275 215.955 307.8675 216.285 307.1875 216.625 C305.0625 215.6875 305.0625 215.6875 303.1875 214.625 C302.8471875 215.924375 302.8471875 215.924375 302.5 217.25 C300.77477527 221.68629216 298.48714737 225.2823776 294.25390625 227.75390625 C292.1875 228.625 292.1875 228.625 288.5 229.3125 C282.68884063 230.49228235 277.37693775 232.90665611 271.95239258 235.23706055 C266.36963289 237.625 266.36963289 237.625 264.1875 237.625 C262.56444951 242.39271081 262.05617245 246.28819465 262.18359375 251.30859375 C262.1874742 253.60969935 261.98113714 255.78178416 261.6875 258.0625 C260.89929575 264.53703495 260.85390772 270.81478872 261.9375 277.25 C262.57519584 282.16811999 260.92131807 285.5967239 258.1875 289.625 C257.5275 290.285 256.8675 290.945 256.1875 291.625 C256.1875 292.285 256.1875 292.945 256.1875 293.625 C262.55680546 295.0671069 266.09241137 294.10006041 272.06640625 291.6640625 C275.62924455 290.47793611 278.95526574 290.07398517 282.6875 289.6875 C288.7604514 289.00313695 293.35555426 287.50162508 298.796875 284.796875 C306.52984454 281.00620366 319.25564557 278.66663658 327.63671875 281.43359375 C331.84074199 284.21499741 334.00605045 288.17484291 336.1875 292.625 C339.1575 290.645 342.1275 288.665 345.1875 286.625 C345.8475 286.955 346.5075 287.285 347.1875 287.625 C345.81595496 290.57909701 344.19886276 293.06508376 342.1875 295.625 C342.5175 295.295 342.8475 294.965 343.1875 294.625 C344.1775 294.295 345.1675 293.965 346.1875 293.625 C346.55254603 295.20586048 346.90410506 296.78983907 347.25 298.375 C347.44722656 299.25671875 347.64445312 300.1384375 347.84765625 301.046875 C348.18575872 303.61179028 347.99908635 305.19591639 347.1875 307.625 C350.83689279 310.09370688 353.7653196 311.34273317 358.1875 311.625 C360.50730946 310.80157468 360.50730946 310.80157468 362.1875 309.625 C364.72185666 311.8287884 365.72441481 313.29078661 366.1875 316.625 C366.22638349 318.95800933 366.2323635 321.29209801 366.1875 323.625 C361.77687864 324.6507259 359.26119424 324.66184712 355.1875 322.625 C355.249375 324.23375 355.249375 324.23375 355.3125 325.875 C355.1989175 329.28247485 354.97476636 330.83239631 353.1875 333.625 C356.93057143 333.2598223 359.69989313 332.482079 362.90234375 330.578125 C363.98644531 329.93359375 365.07054687 329.2890625 366.1875 328.625 C366.47677314 336.28881975 366.76102033 343.95281483 367.04199219 351.61694336 C367.13787648 354.21691984 367.23485518 356.81685622 367.33300781 359.41674805 C367.47498164 363.1826762 367.61284192 366.94873747 367.75 370.71484375 C367.79374756 371.85203354 367.83749512 372.98922333 367.88256836 374.16087341 C368.11396196 380.63247415 368.21222732 387.09201498 368.19897461 393.56690979 C368.19773212 394.73528971 368.19773212 394.73528971 368.19646454 395.92727327 C368.19432441 397.82651666 368.19103256 399.72575869 368.1875 401.625 C329.15102632 401.6557567 290.1145515 401.6758082 251.07806766 401.68685675 C248.82021864 401.68749781 246.56236962 401.68815675 244.30452061 401.68881607 C164.7065906 401.71168403 85.11035986 401.6387797 -23.4375 401.125 C-24.6269242 401.11902628 -25.8163484 401.11305257 -27.04181576 401.10689783 C-56.63211057 400.95805827 -86.22234018 400.7986273 -115.8125 400.625 C-115.9173601 339.27854491 -115.9173601 339.27854491 -115.3125 314.5625 C-115.2637485 312.36524704 -115.21557725 310.16798114 -115.16796875 307.97070312 C-115.05598078 302.85529813 -114.93681549 297.74011958 -114.8125 292.625 C-110.88593898 290.92526633 -108.78591992 290.54067618 -104.5625 291.3125 C-97.2841145 292.12338053 -93.39694422 289.31674043 -87.7578125 285.08203125 C-82.28551743 280.59985961 -78.09265986 275.217982 -73.8125 269.625 C-70.0625 264.75 -70.0625 264.75 -67.8125 263.625 C-67.84730469 262.93792969 -67.88210937 262.25085938 -67.91796875 261.54296875 C-67.94503906 260.64191406 -67.97210938 259.74085938 -68 258.8125 C-68.05220703 257.47251953 -68.05220703 257.47251953 -68.10546875 256.10546875 C-67.8125 253.625 -67.8125 253.625 -66.55859375 251.94140625 C-64.68080934 250.52571644 -62.76933721 249.46585197 -60.6875 248.375 C-57.44776525 246.38820134 -56.928764 245.96155369 -55.625 242.1875 C-55.83342576 238.22741056 -57.00024911 236.09848086 -58.8125 232.625 C-58.48064303 228.5841534 -57.22560814 226.49821926 -54.5 223.5625 C-53.86191406 222.87414062 -53.22382812 222.18578125 -52.56640625 221.4765625 C-51.69822266 220.56003906 -51.69822266 220.56003906 -50.8125 219.625 C-50.19375 218.903125 -49.575 218.18125 -48.9375 217.4375 C-46.80889719 215.62192701 -44.86785892 214.61937603 -42.375 213.375 C-37.53631327 210.71172284 -34.39548727 208.0475734 -32.8125 202.625 C-32.56541473 194.82416516 -33.14934958 186.55211422 -36.8125 179.5625 C-39.85877735 172.85622643 -40.80090317 165.3400267 -39.0625 158.125 C-36.92245586 152.6559983 -32.59273378 148.67213698 -28.56640625 144.53515625 C-26.29192155 142.18727641 -24.37645077 139.74520072 -22.5 137.0625 C-20.05198854 133.73064592 -17.56827527 131.77242824 -14.09521484 129.55615234 C-5.42816391 123.81372665 -1.04621932 115.96261249 3.625 106.9375 C3.9638623 106.29671509 4.30272461 105.65593018 4.65185547 104.99572754 C9.86018316 95.27903416 9.86018316 95.27903416 9.1875 84.625 C8.32125 85.058125 7.455 85.49125 6.5625 85.9375 C-0.93232866 89.14081123 -9.7790398 91.6449741 -17.8125 89.625 C-21.76082063 86.69196182 -22.94213419 83.06711879 -24.8125 78.625 C-27.44948775 74.93901273 -30.20544512 72.44151745 -33.875 69.8125 C-37.92706885 66.65957635 -39.7786596 64.52351775 -41.10546875 59.6171875 C-41.96220292 57.20318514 -43.23011483 55.70501865 -44.875 53.75 C-47.30277327 50.71676739 -48.23710348 48.52545411 -48.8125 44.6875 C-49.54953878 39.87850441 -51.27616159 37.05629258 -54.109375 33.1640625 C-56.49580004 29.60631875 -58.26565138 25.79927261 -60.11791992 21.94311523 C-62.55840073 16.94477713 -65.45257702 12.39238929 -68.625 7.83203125 C-69.2128125 6.73955078 -69.2128125 6.73955078 -69.8125 5.625 C-69.4825 4.635 -69.1525 3.645 -68.8125 2.625 C-66.47916667 4.95833333 -64.14583333 7.29166667 -61.8125 9.625 C-61.1525 7.975 -60.4925 6.325 -59.8125 4.625 C-57.8125 5.625 -57.8125 5.625 -57.0234375 7.77734375 C-56.74757812 8.69644531 -56.47171875 9.61554687 -56.1875 10.5625 C-53.52266162 18.24761443 -48.61671069 23.69332519 -43.0625 29.5 C-40.79528523 32.64890941 -39.94034965 35.01303746 -38.8125 38.6875 C-37.28187881 43.6712026 -35.76912879 46.13939845 -31.8125 49.625 C-30.1779232 51.91744352 -28.65697142 54.2623074 -27.14453125 56.63671875 C-25.83217003 58.73459405 -25.83217003 58.73459405 -23.8125 60.625 C-23.4278122 62.52849223 -23.12648065 64.44937676 -22.875 66.375 C-22.16881283 71.07538178 -21.28247358 74.58322506 -18.8125 78.625 C-11.85772334 77.72760946 -5.88619247 75.60089211 0.5 72.8125 C1.27649902 72.48121094 2.05299805 72.14992188 2.85302734 71.80859375 C7.53341502 69.70550315 10.70179626 67.49235013 14.1875 63.625 C17.19327531 61.38665669 19.68361291 59.78953456 23.25 58.625 C28.8830159 56.70737756 31.78655865 53.13053435 34.75 48.125 C36.49937761 45.18378315 37.93927341 42.85321518 40.46484375 40.53125 C42.41393131 38.79814797 42.41393131 38.79814797 42.20703125 36.5625 C40.85887533 34.00048721 39.34502625 33.11267539 36.875 31.625 C28.58144623 26.36406525 28.58144623 26.36406525 27.59375 22.00390625 C27.4596875 21.21886719 27.325625 20.43382813 27.1875 19.625 C26.53394531 20.47384766 26.53394531 20.47384766 25.8671875 21.33984375 C21.04122202 27.28351119 21.04122202 27.28351119 17.0625 28.875 C13.26298853 28.5446077 11.74738989 27.41076253 9.1875 24.625 C9.1875 23.305 9.1875 21.985 9.1875 20.625 C8.5275 20.625 7.8675 20.625 7.1875 20.625 C6.6925 22.11 6.6925 22.11 6.1875 23.625 C4.3125 23.421875 4.3125 23.421875 2.1875 22.625 C1.0625 20.515625 1.0625 20.515625 0.1875 17.875 C-0.9984751 14.54387471 -1.78466984 12.65734316 -4.125 9.9375 C-5.8125 7.625 -5.8125 7.625 -5.6875 3.875 C-5.39875 2.8025 -5.11 1.73 -4.8125 0.625 C-2.8125 -0.375 -2.8125 -0.375 0 0 Z M4.1875 17.625 C5.1875 19.625 5.1875 19.625 5.1875 19.625 Z M132.1875 94.625 C131.27292997 100.18657448 130.86663603 104.300665 133.1875 109.625 C134.8375 109.295 136.4875 108.965 138.1875 108.625 C139.43034687 105.68736194 139.20070986 104.65837227 138 101.625 C136.30114391 98.81310026 134.62174067 96.80742267 132.1875 94.625 Z M284.1875 107.625 C282.99730279 109.11274652 281.81008597 110.60313823 280.6484375 112.11328125 C279.1875 113.625 279.1875 113.625 275.5625 115.125 C271.35195538 116.99635316 271.1566441 118.60466413 269.1875 122.625 C267.5625 123.76171875 267.5625 123.76171875 265.6875 124.75 C262.43381308 126.49304656 261.0575195 127.54496788 259.1875 130.625 C257.8675 130.295 256.5475 129.965 255.1875 129.625 C252.81625542 133.18186688 253.08051188 133.84057807 253.875 137.875 C254.2874484 139.79721322 254.72386109 141.71448794 255.1875 143.625 C255.34992188 144.35332031 255.51234375 145.08164063 255.6796875 145.83203125 C256.2441815 147.97803468 256.2441815 147.97803468 258.1875 150.625 C262.32997525 152.4679449 266.45374062 152.625 270.9375 152.625 C274.24182301 152.625 276.2424517 153.19709779 279.1875 154.625 C282.3792305 151.73886072 284.11704635 149.13079705 285.8125 145.1875 C286.21726562 144.26066406 286.62203125 143.33382812 287.0390625 142.37890625 C287.79744013 140.56034765 288.52987865 138.73072741 289.234375 136.890625 C290.22594751 134.53360837 291.26868115 133.28216174 293.1875 131.625 C292.506875 130.59375 291.82625 129.5625 291.125 128.5 C289.56544085 125.75694562 289.18473575 124.76321249 289.25 121.5 C290.21516746 118.54015313 291.44663756 116.19844882 293.1875 113.625 C292.25963211 112.61605628 291.31981567 111.61809093 290.375 110.625 C289.59189453 109.7896875 289.59189453 109.7896875 288.79296875 108.9375 C287.14601033 107.308535 287.14601033 107.308535 284.1875 107.625 Z M101.1875 111.625 C102.1875 113.625 102.1875 113.625 102.1875 113.625 Z M196.1875 112.625 C197.84270353 116.76300883 199.7453492 119.31326349 203 122.375 C206.72983382 125.95482222 209.22114789 129.62594312 211.75 134.11328125 C213.16373763 136.58348043 214.69908257 138.90651119 216.3125 141.25 C218.17858057 143.99366884 219.74390867 146.67260701 221.125 149.6875 C223.79581088 155.24056096 227.58418497 160.29564764 233.125 163.125 C233.805625 163.29 234.48625 163.455 235.1875 163.625 C238.86591824 160.84004006 238.86591824 160.84004006 240.47265625 156.6875 C240.17234707 152.82010376 239.46981429 150.96220874 236.9375 147.9375 C236.03 147.174375 235.1225 146.41125 234.1875 145.625 C230.48407237 142.25824761 228.96256495 140.53374468 228.1875 135.625 C225.80796439 132.78997573 222.78076746 130.89743772 219.75 128.8125 C215.46991676 125.75369705 213.03821697 123.04852634 210.1875 118.625 C205.86807606 115.14311142 201.7980069 113.04578802 196.1875 112.625 Z M316.4375 131.6640625 C312.67148037 133.27246672 309.01632679 132.12639609 305.0625 131.5234375 C302.12178556 131.36876432 302.12178556 131.36876432 299.9140625 133.1953125 C297.80878597 136.15794146 297.24048846 138.56351848 296.5625 142.125 C295.81655694 145.95124911 295.13560726 149.22830016 293.1875 152.625 C293.8475 153.615 294.5075 154.605 295.1875 155.625 C295.3125 158.8125 295.3125 158.8125 295.1875 161.625 C296.1775 161.955 297.1675 162.285 298.1875 162.625 C298.8475 162.295 299.5075 161.965 300.1875 161.625 C299.8575 158.655 299.5275 155.685 299.1875 152.625 C300.1775 151.965 301.1675 151.305 302.1875 150.625 C302.80625 152.048125 302.80625 152.048125 303.4375 153.5 C305.1915131 156.63216624 305.89601757 157.49000606 309.1875 158.625 C309.40028058 154.15660785 308.77888085 150.80237474 307.1875 146.625 C308.85416667 144.95833333 310.52083333 143.29166667 312.1875 141.625 C308.8875 141.955 305.5875 142.285 302.1875 142.625 C301.5275 141.305 300.8675 139.985 300.1875 138.625 C300.5175 137.965 300.8475 137.305 301.1875 136.625 C306.53828694 135.55484261 309.15198706 135.52686961 314.1875 137.625 C316.45346664 137.20040068 316.45346664 137.20040068 318.1875 135.625 C319.47004644 133.08729997 319.47004644 133.08729997 320.1875 130.625 C318.13491367 130.45482042 318.13491367 130.45482042 316.4375 131.6640625 Z M332.1875 150.625 C332.1875 151.285 332.1875 151.945 332.1875 152.625 C335.04528033 153.30993373 335.04528033 153.30993373 338.1875 153.625 C339.1775 152.965 340.1675 152.305 341.1875 151.625 C338.2175 151.295 335.2475 150.965 332.1875 150.625 Z M238.1875 167.625 C238.1875 168.285 238.1875 168.945 238.1875 169.625 C242.39926279 171.43004119 245.76388204 172.83681239 250.375 172.6875 C254.1875 172.625 254.1875 172.625 256.34375 173.55078125 C260.32838326 175.05596552 264.2797872 175.34363381 268.5 175.75 C269.75393555 175.87955078 269.75393555 175.87955078 271.03320312 176.01171875 C273.0839763 176.22265542 275.13565903 176.42471646 277.1875 176.625 C277.5175 175.965 277.8475 175.305 278.1875 174.625 C277.42824219 174.28726563 276.66898437 173.94953125 275.88671875 173.6015625 C274.89285156 173.15554687 273.89898437 172.70953125 272.875 172.25 C271.88886719 171.80914062 270.90273438 171.36828125 269.88671875 170.9140625 C267.1875 169.625 267.1875 169.625 264.1875 167.625 C261.66789604 167.71593761 261.66789604 167.71593761 258.9375 168.1875 C253.55287582 168.81262787 250.9616672 168.0120836 246.1875 165.625 C242.32024325 165.18553901 241.52432385 165.40045077 238.1875 167.625 Z M299.1875 174.625 C299.1875 175.615 299.1875 176.605 299.1875 177.625 C302.51284757 178.73344919 304.80932575 178.46954356 308.1875 177.625 C305.42526722 174.86276722 302.98043383 175.04643709 299.1875 174.625 Z M284.1875 175.625 C283.8575 176.285 283.5275 176.945 283.1875 177.625 C286.10232778 178.43467438 287.64863217 178.84345993 290.5 177.6875 C291.056875 177.336875 291.61375 176.98625 292.1875 176.625 C291.00325674 175.20922523 291.00325674 175.20922523 287.625 175.5625 C285.9234375 175.5934375 285.9234375 175.5934375 284.1875 175.625 Z M313.1875 179.625 C311.79881484 181.72539331 311.79881484 181.72539331 311.1875 183.625 C314.74004263 183.05659318 317.37887754 181.36622801 320.4375 179.546875 C322.63419687 178.38968647 324.73235016 177.92259392 327.1875 177.625 C321.56497169 173.87664779 318.24862662 175.57609871 313.1875 179.625 Z M32.1875 179.625 C32.1875 180.285 32.1875 180.945 32.1875 181.625 C32.8475 181.625 33.5075 181.625 34.1875 181.625 C34.1875 180.965 34.1875 180.305 34.1875 179.625 C33.5275 179.625 32.8675 179.625 32.1875 179.625 Z M294.1875 180.625 C295.5075 181.615 296.8275 182.605 298.1875 183.625 C298.5175 182.965 298.8475 182.305 299.1875 181.625 C297.5375 181.295 295.8875 180.965 294.1875 180.625 Z M-23.8125 191.625 C-22.8125 193.625 -22.8125 193.625 -22.8125 193.625 Z M2.1875 193.625 C1.6925 194.800625 1.1975 195.97625 0.6875 197.1875 C-1.9803794 202.4949774 -6.11524554 207.26285362 -11.81640625 209.36328125 C-12.74259766 209.58564453 -12.74259766 209.58564453 -13.6875 209.8125 C-16.81912774 210.27764724 -16.81912774 210.27764724 -18.01953125 212.25390625 C-19.0773294 215.41687905 -18.81723722 218.05256055 -18.625 221.375 C-18.52808256 226.07549606 -18.48012596 228.98030139 -21.375 232.75 C-24.64831731 237.0247855 -24.02965693 240.81750546 -23.5 245.98828125 C-22.75955864 248.82804214 -22.12592914 249.87707576 -19.8125 251.625 C-16.74475428 252.70285661 -14.90322985 252.64133137 -11.6875 252.0625 C-7.76495271 250.10122636 -7.28928395 248.77405966 -5.8125 244.625 C-5.42500168 242.85685952 -5.05210926 241.08550191 -4.6875 239.3125 C-2.96203291 231.11179103 0.12315466 223.41635929 3.22705078 215.6472168 C5.74585333 209.04552487 6.72828133 204.57594566 5.1875 197.625 C3.80231356 195.12692188 3.80231356 195.12692188 2.1875 193.625 Z M-18.8125 194.625 C-18.1525 195.285 -17.4925 195.945 -16.8125 196.625 C-16.8125 195.965 -16.8125 195.305 -16.8125 194.625 C-17.4725 194.625 -18.1325 194.625 -18.8125 194.625 Z M35.1875 227.625 C34.8575 228.285 34.5275 228.945 34.1875 229.625 C34.8475 229.625 35.5075 229.625 36.1875 229.625 C35.8575 228.965 35.5275 228.305 35.1875 227.625 Z " fill="#FFFFFF" transform="translate(115.8125,0.375)"/>
</svg>
