<?xml version="1.0" encoding="UTF-8"?>
<!DOCTYPE svg PUBLIC "-//W3C//DTD SVG 1.1//EN" "http://www.w3.org/Graphics/SVG/1.1/DTD/svg11.dtd">
<svg xmlns="http://www.w3.org/2000/svg" version="1.1" width="504px" height="402px" style="shape-rendering:geometricPrecision; text-rendering:geometricPrecision; image-rendering:optimizeQuality; fill-rule:evenodd; clip-rule:evenodd" xmlns:xlink="http://www.w3.org/1999/xlink">
<g><path style="opacity:1" fill="#fefffe" d="M 112.5,-0.5 C 113.167,-0.5 113.833,-0.5 114.5,-0.5C 115.848,0.60064 117.348,1.60064 119,2.5C 120.373,5.41249 121.873,8.24582 123.5,11C 126.833,12.6667 130.167,14.3333 133.5,16C 136.798,16.5417 139.965,16.0417 143,14.5C 145.821,15.9874 147.987,18.1541 149.5,21C 153.269,22.1007 157.103,22.9341 161,23.5C 165.83,22.2029 170.663,22.2029 175.5,23.5C 181.532,20.1878 186.199,21.5211 189.5,27.5C 192.196,28.8509 194.53,30.6843 196.5,33C 198.18,33.0343 199.68,33.201 201,33.5C 201.271,35.807 200.105,36.9736 197.5,37C 200.484,42.7262 204.484,43.7262 209.5,40C 208.167,37.6667 208.833,36.6667 211.5,37C 213.62,40.1502 213.954,43.4835 212.5,47C 213.255,50.5182 214.088,54.0182 215,57.5C 221.129,70.7262 226.962,84.0595 232.5,97.5C 233.833,98.1667 235.167,98.8333 236.5,99.5C 239.546,96.6149 242.046,93.2816 244,89.5C 244.181,84.8678 245.014,80.3678 246.5,76C 245.422,73.2048 244.922,70.3715 245,67.5C 247.383,64.7272 250.217,62.5605 253.5,61C 256.921,56.4569 260.587,52.1235 264.5,48C 266.167,47.1667 267.833,46.3333 269.5,45.5C 270.731,44.3493 270.731,43.1827 269.5,42C 270.167,41 270.833,40 271.5,39C 276.522,37.999 281.355,36.499 286,34.5C 289.121,36.7157 291.288,39.7157 292.5,43.5C 294.583,44.9587 296.75,46.2921 299,47.5C 300.667,50.8333 302.333,54.1667 304,57.5C 302.667,61.1747 303.834,63.8413 307.5,65.5C 309.5,63.8333 311.5,62.1667 313.5,60.5C 314.902,60.8655 315.902,61.6988 316.5,63C 317.693,68.9186 319.86,74.4186 323,79.5C 322.556,85.5961 322.056,91.5961 321.5,97.5C 324.154,100.264 326.988,102.931 330,105.5C 331.167,116.024 336,124.19 344.5,130C 345.448,130.483 346.448,130.649 347.5,130.5C 346.377,124.297 344.544,118.297 342,112.5C 338.333,109.5 334.667,106.5 331,103.5C 330.279,99.6578 328.613,96.3245 326,93.5C 327.127,87.871 327.46,82.2043 327,76.5C 327.414,76.0426 327.914,75.7093 328.5,75.5C 335.603,78.8829 341.27,83.8829 345.5,90.5C 346.748,89.9598 347.915,89.2931 349,88.5C 349.82,91.5586 350.487,94.5586 351,97.5C 354.029,95.971 356.195,93.6377 357.5,90.5C 364.611,88.2457 367.611,83.5791 366.5,76.5C 393.167,95.1667 419.833,113.833 446.5,132.5C 443.551,135.093 443.884,137.093 447.5,138.5C 448.584,137.335 449.417,136.002 450,134.5C 456.523,139.033 463.023,143.533 469.5,148C 466.793,149.199 466.126,151.033 467.5,153.5C 474.919,155.207 481.919,158.04 488.5,162C 489.833,164.333 491.167,166.667 492.5,169C 491.016,170.574 489.349,171.907 487.5,173C 488.609,173.638 489.775,174.138 491,174.5C 494.703,173.14 497.537,174.307 499.5,178C 500.793,178.49 502.127,178.657 503.5,178.5C 503.5,182.5 503.5,186.5 503.5,190.5C 500.461,195.99 498.961,201.99 499,208.5C 496.449,212.293 493.449,215.626 490,218.5C 485,214.833 480,211.167 475,207.5C 473.026,202.575 474.193,198.408 478.5,195C 475.005,192.722 471.172,191.222 467,190.5C 462.992,192.588 458.826,194.255 454.5,195.5C 451.168,198.879 449.001,202.546 448,206.5C 444.751,205.083 441.917,203.083 439.5,200.5C 434.043,201.473 430.209,204.473 428,209.5C 426.414,210.376 424.914,211.376 423.5,212.5C 424.911,214.017 424.744,215.351 423,216.5C 421.561,214.986 420.061,214.653 418.5,215.5C 415.767,224.405 409.767,228.905 400.5,229C 393.718,231.558 387.051,234.391 380.5,237.5C 377,241.658 376,246.324 377.5,251.5C 375.096,260.855 375.096,270.188 377.5,279.5C 376.724,284.384 374.391,288.217 370.5,291C 372.282,293.604 374.782,295.104 378,295.5C 386.719,291.491 395.886,289.325 405.5,289C 416.422,283.019 428.088,280.353 440.5,281C 446.259,283.658 449.759,288.158 451,294.5C 454.072,291.615 457.406,288.948 461,286.5C 461.692,287.025 462.192,287.692 462.5,288.5C 460.31,290.856 458.31,293.356 456.5,296C 458.076,295.848 459.409,295.015 460.5,293.5C 461.313,296.401 462.313,299.234 463.5,302C 462.496,303.798 461.996,305.632 462,307.5C 465.039,310.103 468.539,311.769 472.5,312.5C 477.215,308.61 480.048,309.944 481,316.5C 482.013,324.572 478.846,326.572 471.5,322.5C 466.731,335.712 469.897,337.712 481,328.5C 482.068,352.827 482.902,377.161 483.5,401.5C 394.833,401.5 306.167,401.5 217.5,401.5C 145.002,400.501 72.3352,400.167 -0.5,400.5C -0.5,381.5 -0.5,362.5 -0.5,343.5C 0.331561,326.672 0.831561,309.672 1,292.5C 5.79878,289.887 10.6321,289.887 15.5,292.5C 18.5,291 21.5,289.5 24.5,288C 32.6977,280.137 40.531,271.97 48,263.5C 47.2616,259.85 47.4283,256.183 48.5,252.5C 51.0048,250.747 53.6714,249.247 56.5,248C 59.4525,245.474 60.6192,242.308 60,238.5C 58.6966,236.06 57.53,233.56 56.5,231C 56.8623,229.775 57.3623,228.609 58,227.5C 61.5916,224.579 64.4249,221.079 66.5,217C 75.1078,214.724 80.7744,209.391 83.5,201C 81.7284,196.394 81.395,191.727 82.5,187C 78.4624,180.387 76.129,173.22 75.5,165.5C 76.0196,162.088 76.8529,158.755 78,155.5C 87.2152,142.374 98.2152,131.041 111,121.5C 116.837,111.326 122.004,100.826 126.5,90C 126.079,87.8154 125.579,85.6487 125,83.5C 122.696,85.0685 120.196,86.2352 117.5,87C 112.124,87.9752 106.791,89.1418 101.5,90.5C 99.1434,89.9049 96.9767,88.9049 95,87.5C 94.0595,82.9524 92.0595,78.9524 89,75.5C 85,72.1667 81,68.8333 77,65.5C 76.1779,63.2115 75.5112,60.8782 75,58.5C 69.0367,53.5734 66.0367,47.24 66,39.5C 59.1802,27.8656 52.3469,16.1989 45.5,4.5C 45.8076,3.69194 46.3076,3.02527 47,2.5C 49.3333,5.16667 51.6667,7.83333 54,10.5C 54.3333,8.83333 54.6667,7.16667 55,5.5C 55.6667,4.16667 56.3333,4.16667 57,5.5C 57.876,9.34053 59.2094,13.0072 61,16.5C 68.7901,24.6061 74.4568,33.9394 78,44.5C 82.791,49.3876 87.1243,54.7209 91,60.5C 91.3942,66.8838 93.0609,72.8838 96,78.5C 96.5613,79.0219 97.228,79.3552 98,79.5C 108.128,76.0191 117.961,71.8525 127.5,67C 128.833,65.3333 130.167,63.6667 131.5,62C 135.593,60.4558 139.593,58.7891 143.5,57C 148.749,50.4948 153.749,43.8281 158.5,37C 154.918,32.4299 150.418,28.9299 145,26.5C 144.002,23.7557 143.335,21.089 143,18.5C 140.183,23.3222 136.183,26.6555 131,28.5C 128.929,27.2135 126.762,26.0468 124.5,25C 125.603,23.3196 125.27,21.8196 123.5,20.5C 122.573,22.9456 120.906,23.7789 118.5,23C 116.843,17.1857 114.01,12.019 110,7.5C 109.34,4.31666 110.173,1.64999 112.5,-0.5 Z M 247.5,94.5 C 250.987,97.3426 253.321,101.009 254.5,105.5C 253.121,108.56 250.954,109.56 248,108.5C 246.389,103.855 246.222,99.1886 247.5,94.5 Z M 399.5,107.5 C 403.131,108.608 406.131,110.774 408.5,114C 401.983,119.958 401.983,125.958 408.5,132C 406.91,133.046 405.41,134.213 404,135.5C 401.944,142.617 398.611,148.95 394,154.5C 391.19,151.835 388.023,151.168 384.5,152.5C 381.319,151.887 378.152,151.22 375,150.5C 373.523,149.556 372.523,148.223 372,146.5C 370.756,142.356 369.589,138.189 368.5,134C 369.339,129.324 371.505,128.491 375,131.5C 376.292,129.751 377.458,127.918 378.5,126C 383.239,124.971 386.239,122.137 387.5,117.5C 393.033,115.964 397.033,112.631 399.5,107.5 Z M 311.5,113.5 C 317.456,113.381 322.622,115.715 327,120.5C 327.792,122.587 328.959,124.421 330.5,126C 335.831,129.339 340.498,133.339 344.5,138C 343.549,138.718 343.383,139.551 344,140.5C 345.512,141.257 346.846,142.257 348,143.5C 349.618,146.943 351.785,149.943 354.5,152.5C 356.329,157.51 354.829,161.177 350,163.5C 341.752,158.241 336.085,150.908 333,141.5C 328.922,137.016 325.589,132.016 323,126.5C 318.558,122.567 314.724,118.233 311.5,113.5 Z M 433.5,130.5 C 434.239,130.369 434.906,130.536 435.5,131C 434.333,134.167 432.167,136.333 429,137.5C 423.28,133.084 418.447,133.75 414.5,139.5C 415.5,141.167 416.833,142.5 418.5,143.5C 421.405,142.187 424.405,141.687 427.5,142C 421.562,144.024 420.395,147.524 424,152.5C 425.541,158.767 424.207,159.767 420,155.5C 418.988,148.887 416.821,148.22 413.5,153.5C 414.243,155.638 414.91,157.804 415.5,160C 414.629,161.769 413.296,162.436 411.5,162C 410.351,160.396 410.351,158.73 411.5,157C 410.516,155.343 409.516,153.677 408.5,152C 409.667,150.167 410.833,148.333 412,146.5C 411.327,134.142 416.661,129.808 428,133.5C 430.12,132.86 431.954,131.86 433.5,130.5 Z M 447.5,150.5 C 450.568,150.547 453.568,151.047 456.5,152C 452.853,154.265 449.853,153.765 447.5,150.5 Z M 356.5,165.5 C 361.422,165.521 365.922,166.854 370,169.5C 372.667,168.833 375.333,168.167 378,167.5C 382.925,170.368 388.092,172.868 393.5,175C 392.892,175.87 392.059,176.37 391,176.5C 382.994,175.52 375.161,173.854 367.5,171.5C 362.434,172.594 357.767,171.594 353.5,168.5C 354.34,167.265 355.34,166.265 356.5,165.5 Z M 414.5,174.5 C 417.625,174.865 420.625,175.698 423.5,177C 421.302,177.373 419.135,177.873 417,178.5C 414.442,177.849 413.609,176.515 414.5,174.5 Z M 399.5,175.5 C 402.397,175.125 405.063,175.625 407.5,177C 404.425,178.602 401.425,178.602 398.5,177C 399.056,176.617 399.389,176.117 399.5,175.5 Z M 434.5,175.5 C 437.271,175.421 439.937,175.921 442.5,177C 437.531,177.652 433.198,179.652 429.5,183C 428.5,183.667 427.5,183.667 426.5,183C 428.408,179.589 431.075,177.089 434.5,175.5 Z M 147.5,179.5 C 149.337,179.639 149.67,180.306 148.5,181.5C 147.702,181.043 147.369,180.376 147.5,179.5 Z M 409.5,181.5 C 411.264,180.288 412.93,180.621 414.5,182.5C 414.333,182.833 414.167,183.167 414,183.5C 412.67,182.418 411.17,181.751 409.5,181.5 Z M 117.5,193.5 C 120.37,197.307 121.536,201.641 121,206.5C 115.853,220.776 111.019,235.109 106.5,249.5C 96.2447,254.524 91.2447,251.191 91.5,239.5C 92.7798,235.607 94.6132,231.94 97,228.5C 96.8363,223.845 96.8363,219.179 97,214.5C 98.566,210.85 101.399,209.017 105.5,209C 108.369,205.796 111.535,202.963 115,200.5C 116.411,198.35 117.245,196.016 117.5,193.5 Z M 96.5,195.5 C 97.0768,194.227 97.7435,194.227 98.5,195.5C 98.0302,196.463 97.3635,196.463 96.5,195.5 Z M 150.5,227.5 C 151.773,228.077 151.773,228.743 150.5,229.5C 149.537,229.03 149.537,228.363 150.5,227.5 Z"/></g>
</svg>
