<?xml version="1.0" encoding="UTF-8"?>
<svg version="1.1" xmlns="http://www.w3.org/2000/svg" width="1357" height="115">
<path d="M0 0 C32.42510057 -0.02642008 32.42510057 -0.02642008 45.03735733 -0.03173923 C46.22940963 -0.03224345 46.22940963 -0.03224345 47.4455438 -0.03275786 C122.63886691 -0.06351848 197.83137669 0.05534488 273.02441406 0.25952148 C274.26625164 0.26288958 275.50808923 0.26625767 276.78755825 0.26972782 C309.71737352 0.35915866 342.64717531 0.45319102 375.57697292 0.54886835 C394.50531205 0.60385296 413.43365339 0.65800967 432.3619967 0.71153872 C434.51046283 0.71761458 436.65892895 0.72369243 438.80739507 0.72977088 C444.57323235 0.74608329 450.33906964 0.7623935 456.10490695 0.77869969 C496.08283649 0.89177036 536.06076346 1.00571992 576.03868484 1.12164211 C576.78404999 1.12380326 577.52941513 1.12596441 578.2973671 1.12819104 C586.59996049 1.15226495 594.90255384 1.17635357 603.20514718 1.20044827 C603.95407038 1.20262169 604.70299359 1.20479512 605.47461143 1.20703441 C608.50310146 1.21582339 611.5315915 1.22461241 614.56008153 1.23340229 C662.46566578 1.37244098 710.37125691 1.50880531 758.27685547 1.64282227 C770.37411632 1.67666613 782.47137715 1.71051745 794.56863785 1.74441433 C795.31449661 1.74650416 796.06035538 1.748594 796.82881593 1.75074716 C819.96967939 1.81559568 843.1105407 1.88117098 866.25139999 1.94748783 C867.34759938 1.95062923 867.34759938 1.95062923 868.4659442 1.95383409 C884.53875922 1.99990191 900.61157373 2.04614877 916.68438777 2.09255658 C922.43984916 2.1091736 928.19531059 2.12578017 933.95077202 2.14238277 C935.38129869 2.14650964 936.81182536 2.15063723 938.24235202 2.15476555 C958.54934548 2.21336568 978.85634179 2.27083738 999.16334138 2.32727366 C1031.95167794 2.41840889 1064.7400061 2.5121903 1097.52832031 2.61108398 C1098.75998587 2.61479386 1099.99165143 2.61850373 1101.26064018 2.62232602 C1172.89158128 2.83853874 1244.52091939 3.15707174 1316.15028763 3.68276882 C1317.16132436 3.69018707 1317.16132436 3.69018707 1318.19278607 3.69775518 C1331.12856875 3.79304653 1344.06427122 3.89736251 1357 4 C1357 40.63 1357 77.26 1357 115 C909.19 115 461.38 115 0 115 C0 77.05 0 39.1 0 0 Z " fill="#FFFFFF" transform="translate(0,0)"/>
</svg>
