<?xml version="1.0" encoding="UTF-8"?>
<svg version="1.1" xmlns="http://www.w3.org/2000/svg" width="339" height="283">
<path d="M0 0 C45.78724015 -0.18373616 91.56300218 0.29993998 137.34644878 0.83422244 C145.39004966 0.92770626 153.43370282 1.01585005 161.47737628 1.10283273 C169.36497015 1.18829729 177.25252532 1.27684555 185.14005727 1.36784559 C189.79612204 1.42154445 194.45219162 1.47419802 199.10830116 1.5238781 C203.45515685 1.57040093 207.80195107 1.62083509 212.14872932 1.67408943 C213.72269924 1.69276362 215.29668504 1.71015942 216.87068558 1.7260437 C228.26946987 1.84224841 239.61983239 2.34898981 251 3 C251.33 3 251.66 3 252 3 C253.33568021 3.32380126 254.66923011 3.65657551 256 4 C256.21121867 10.48910689 255.84206912 15.73696501 254 22 C253.88231845 27.53103266 256.59888827 30.24307736 260.2109375 34.0703125 C263.74923676 37.88673135 265.52924941 41.05305375 267.0625 46.0625 C268.12642635 49.51919245 268.98161008 51.97241512 271 55 C271 56.92076756 270.99165509 58.84236513 270.91796875 60.76171875 C271.00728955 63.19890057 271.58494856 65.11665156 272.3125 67.4375 C273.25956779 71.27838604 272.81918255 73.04525093 270.8125 76.4375 C270.34199219 77.18128906 269.87148438 77.92507812 269.38671875 78.69140625 C265.63677331 84.93427316 264.26407856 91.6745915 265.15234375 98.8828125 C266.44121938 103.62254868 268.69558345 107.76543942 270.98022461 112.09399414 C275.21257408 120.14338246 276.86385644 127.52021877 277.75 136.5625 C278.52023606 142.99854027 280.23905144 146.76311441 284.25 151.78515625 C288.46447585 157.11910224 290.68014916 162.90810856 291.375 169.625 C291.684375 171.295625 291.684375 171.295625 292 173 C295.22791555 175.1519437 296.28400809 175.20086443 300 175 C300.02613058 181.2194797 300.04347257 187.43892322 300.05493164 193.65844727 C300.05974168 195.7424373 300.06636902 197.82642454 300.07543945 199.91040039 C300.1923173 227.6104502 299.52820447 255.30651897 299 283 C281.66667785 283.03298921 264.33334932 283.05181728 247 283.0625 C245.97553756 283.06315145 245.97553756 283.06315145 244.93037891 283.06381607 C182.24434266 283.10252034 119.56011402 282.8157802 56.875 282.5 C55.68761734 282.49402628 54.50023468 282.48805257 53.27687073 282.48189783 C22.51788312 282.32703417 -8.24107317 282.166491 -39 282 C-39.02917228 278.77085248 -39.04685663 275.54173917 -39.0625 272.3125 C-39.07506836 270.94448242 -39.07506836 270.94448242 -39.08789062 269.54882812 C-39.09111328 268.66259766 -39.09433594 267.77636719 -39.09765625 266.86328125 C-39.10289307 266.05157471 -39.10812988 265.23986816 -39.11352539 264.40356445 C-38.9929791 261.85135327 -38.559949 259.48973863 -38 257 C-34.71303767 256.20046862 -33.28976808 255.90341064 -30 257 C-28.02 255.02 -28.02 255.02 -26 253 C-26.4125 252.195625 -26.825 251.39125 -27.25 250.5625 C-28.21168845 245.99447988 -26.91151803 244.15863858 -24.9140625 240.109375 C-23.82208787 237.9528462 -23.82208787 237.9528462 -23.9375 235.1875 C-25.35456811 232.27000683 -27.46031549 230.9682555 -30 229 C-31.0625 227.0625 -31.0625 227.0625 -31 225 C-29.67189785 223.32916181 -28.33827304 221.66270287 -27 220 C-26.83286431 217.37468476 -26.83286431 217.37468476 -27 215 C-26.01 214.01 -26.01 214.01 -25 213 C-26.2065625 211.88625 -26.2065625 211.88625 -27.4375 210.75 C-29.76988591 208.24695171 -30.63534394 207.2819045 -31 204 C-28 203 -28 203 -24.8125 204.4375 C-23.884375 204.953125 -22.95625 205.46875 -22 206 C-21.23776117 202.27349908 -20.91911818 199.64797614 -22 196 C-20.47494272 194.47494272 -18.93135889 194.73640969 -16.8125 194.5625 C-12.97224731 194.18215548 -9.62032502 193.3924327 -6 192 C-4.66101103 186.88749667 -5.42161562 184.53795651 -8 180 C-8 179.34 -8 178.68 -8 178 C-9.65 177.34 -11.3 176.68 -13 176 C-13 175.34 -13 174.68 -13 174 C-11.824375 174.144375 -10.64875 174.28875 -9.4375 174.4375 C-8.70917969 174.52257812 -7.98085938 174.60765625 -7.23046875 174.6953125 C-5.22115502 174.96978968 -3.23198612 175.38306967 -1.25 175.8125 C2.01877316 176.37239726 2.01877316 176.37239726 4.01171875 174.32421875 C6.01500891 171.98245521 7.53466668 169.67268975 9.0625 167 C10.48790338 164.5197225 11.8586568 162.18085118 13.62109375 159.92578125 C15.37509247 157.47614564 15.82850741 154.98193578 16.45703125 152.0703125 C17 150 17 150 18.6875 146.5625 C20.06120932 142.83386041 19.95514773 142.13420227 19.125 138.5 C18.75390625 136.2109375 18.75390625 136.2109375 19 134 C23.92604756 128.1874883 31.51937994 124.15086462 39 123 C41.77751219 122.47095006 44.31136954 121.89621015 47 121 C48.26550653 117.97378873 49.15696933 115.16136499 50 112 C50.17208984 111.35756348 50.34417969 110.71512695 50.52148438 110.05322266 C53.01031552 100.54108466 54.43714166 91.87810983 53.84765625 82.0390625 C54.018292 78.6350981 54.57966316 77.35649102 57 75 C57.66 75 58.32 75 59 75 C59.185625 74.195625 59.37125 73.39125 59.5625 72.5625 C60.9256657 69.18421979 62.17851417 67.46724849 64.5 64.75 C69.09422813 59.074214 70.37144745 53.59065864 69.625 46.375 C69.315625 45.199375 69.315625 45.199375 69 44 C68.443125 43.92523438 67.88625 43.85046875 67.3125 43.7734375 C61.00783978 42.68716158 56.67142516 40.38541954 52 36 C51.67 35.34 51.34 34.68 51 34 C44.26976527 32.33207226 37.78787996 31.52437392 31 33 C30.01 33 29.02 33 28 33 C28 31.35 28 29.7 28 28 C23.52265938 24.92132715 23.52265938 24.92132715 18.375 24 C15.81993165 24.91786356 15.81993165 24.91786356 13.625 27.1875 C12.325625 28.0846875 12.325625 28.0846875 11 29 C7.4375 28.3125 7.4375 28.3125 4 27 C1.00470537 26.14420154 -0.7408754 26 -4 26 C-1.82626793 21.99575671 0.79359799 19.20640201 4 16 C5.29519995 13.83379456 5.29519995 13.83379456 6 12 C5.34 12 4.68 12 4 12 C3.79503906 11.30132812 3.59007812 10.60265625 3.37890625 9.8828125 C3.10949219 8.97273437 2.84007812 8.06265625 2.5625 7.125 C2.29566406 6.22007812 2.02882812 5.31515625 1.75390625 4.3828125 C1.07386174 2.01724619 1.07386174 2.01724619 0 0 Z M245 15 C244.67 15.66 244.34 16.32 244 17 C244.66 17 245.32 17 246 17 C245.67 16.34 245.34 15.68 245 15 Z M5.3125 20.5 C4.879375 20.995 4.44625 21.49 4 22 C5.1645201 23.66621425 5.1645201 23.66621425 7 25 C9.6272914 24.92466753 9.6272914 24.92466753 12 24 C12.33 23.34 12.66 22.68 13 22 C11.68798827 20.43750191 11.68798827 20.43750191 10 19 C6.99740483 18.66781808 6.99740483 18.66781808 5.3125 20.5 Z M-25 257 C-25.66 258.98 -26.32 260.96 -27 263 C-24.43664401 266.13299065 -21.86760961 266.97836727 -18 268 C-14.56180047 268.03064623 -14.56180047 268.03064623 -11.125 267.625 C-9.97257812 267.51414062 -8.82015625 267.40328125 -7.6328125 267.2890625 C-6.76398437 267.19367188 -5.89515625 267.09828125 -5 267 C-7.42639961 265.38240026 -9.82282702 263.96053332 -12.375 262.5625 C-14.92825493 261.1615257 -17.40981573 259.74163791 -19.875 258.1875 C-22.03075628 256.75608932 -22.03075628 256.75608932 -25 257 Z " fill="#FFFFFF" transform="translate(39,0)"/>
</svg>
