<?xml version="1.0" encoding="UTF-8"?>
<svg version="1.1" xmlns="http://www.w3.org/2000/svg" width="1357" height="850">
<path d="M0 0 C7.52779552 -0.30563982 13.23596528 -0.38201736 20 3 C22.79340157 3.25390222 22.79340157 3.25390222 25 3 C24.67 2.01 24.34 1.02 24 0 C90.67594188 -0.18290107 157.32110306 0.4201835 224 1 C224 85.81 224 170.62 224 258 C195 258 166 258 137 258 C135.65503412 258.00250546 134.31006854 258.00517675 132.96510315 258.00793457 C100.10834528 258.06977729 67.25904021 257.88484214 34.40423584 257.53643799 C28.48760843 257.47424981 22.57095166 257.41498513 16.65429688 257.35546875 C10.02781783 257.28866268 3.40134253 257.2215787 -3.22511292 257.15246582 C-4.20976532 257.14219864 -5.19441772 257.13193146 -6.20890808 257.12135315 C-8.04517719 257.10215151 -9.88144536 257.08285937 -11.7177124 257.0634613 C-15.85876667 257.01728641 -15.85876667 257.01728641 -20 257 C-30.66666667 257 -41.33333333 257 -52 257 C-53.485 253.04 -53.485 253.04 -55 249 C-55.86625 249.825 -56.7325 250.65 -57.625 251.5 C-60.80558465 254.1982211 -62.83737709 254.18921013 -67 254 C-67.66 254.99 -68.32 255.98 -69 257 C-71.75871715 257.44909349 -74.16827392 257.64674083 -76.9375 257.6875 C-77.64712891 257.74099609 -78.35675781 257.79449219 -79.08789062 257.84960938 C-86.72872695 257.97911508 -91.25573615 253.55057447 -97 249 C-98.95428086 247.60487552 -100.91923578 246.22458333 -102.89453125 244.859375 C-104.35729492 243.84230469 -104.35729492 243.84230469 -105.84960938 242.8046875 C-107.31624023 241.78761719 -107.31624023 241.78761719 -108.8125 240.75 C-109.80958984 240.05648437 -110.80667969 239.36296875 -111.83398438 238.6484375 C-112.80271484 237.97554687 -113.77144531 237.30265625 -114.76953125 236.609375 C-115.68347656 235.97153076 -116.59742188 235.33368652 -117.5390625 234.67651367 C-119.49264867 233.34563309 -121.46027636 232.11947368 -123.48828125 230.91015625 C-126.62514655 228.52457751 -127.72750086 226.24593089 -129.375 222.6875 C-132.04829154 217.38250145 -134.63629994 214.06558432 -139.26171875 210.41015625 C-141.59781214 208.5150333 -142.91895053 206.81072862 -144 204 C-144.09006125 199.67706007 -143.3226699 198.3376778 -140.3125 195.1875 C-136.94927296 192.96650101 -135.00069841 192.08890441 -131 192 C-128 194 -128 194 -127 197 C-126.56429687 196.59007812 -126.12859375 196.18015625 -125.6796875 195.7578125 C-120.69155446 191.24473975 -116.92346301 189 -110 189 C-103.87183053 187.46290139 -98.88158817 185.15675581 -95.31640625 179.82421875 C-92.01854912 172.74899411 -89 163.85564445 -89 156 C-90.65 155.34 -92.3 154.68 -94 154 C-93.67 153.34 -93.34 152.68 -93 152 C-92.34 152 -91.68 152 -91 152 C-91.11306697 150.04105639 -91.11306697 150.04105639 -92 148 C-93.11375 147.62875 -93.11375 147.62875 -94.25 147.25 C-98.35310868 145.3849506 -100.05601285 141.97069716 -102 138 C-102 137.34 -102 136.68 -102 136 C-103.65 135.34 -105.3 134.68 -107 134 C-106.9375 131.3125 -106.9375 131.3125 -106 128 C-103.85695876 126.00635346 -101.51607093 124.48467893 -99 123 C-102.49779716 121.34826245 -104.31898383 120.77299461 -108 122 C-111.31356792 122 -112.40921919 121.4301261 -115.1875 119.75 C-115.90292969 119.33234375 -116.61835937 118.9146875 -117.35546875 118.484375 C-117.89816406 117.99453125 -118.44085937 117.5046875 -119 117 C-119 115.68 -119 114.36 -119 113 C-118.443125 112.79375 -117.88625 112.5875 -117.3125 112.375 C-114.07498698 110.44999226 -112.31768859 107.96149098 -110 105 C-108.125 105.625 -108.125 105.625 -106 107 C-104.75 110.125 -104.75 110.125 -104 113 C-103.13375 112.46375 -102.2675 111.9275 -101.375 111.375 C-98 110 -98 110 -94.75 110.5625 C-92 112 -92 112 -90.625 114 C-90 116 -90 116 -90 118 C-88.39125 118.5878125 -88.39125 118.5878125 -86.75 119.1875 C-80.23422789 122.01930438 -77.86037712 127.86844692 -75 134 C-73.576875 133.2575 -73.576875 133.2575 -72.125 132.5 C-69 131 -69 131 -67 131 C-67.39753821 129.53633658 -67.81881384 128.0791065 -68.25 126.625 C-68.48203125 125.81289063 -68.7140625 125.00078125 -68.953125 124.1640625 C-70.26933145 121.44324767 -71.2570638 121.15898713 -74 120 C-75.76699071 118.81665167 -77.51641015 117.60676121 -79.25 116.375 C-80.58804687 115.42753906 -80.58804687 115.42753906 -81.953125 114.4609375 C-82.62859375 113.97882813 -83.3040625 113.49671875 -84 113 C-83.505 111.515 -83.505 111.515 -83 110 C-80.9375 109.3125 -80.9375 109.3125 -79 109 C-79.37125 107.4840625 -79.37125 107.4840625 -79.75 105.9375 C-80.07331602 100.84527263 -78.79652725 99.15241925 -76 95 C-74.906875 95.20625 -73.81375 95.4125 -72.6875 95.625 C-68.9161599 96.40346525 -68.9161599 96.40346525 -66 94 C-61.44855744 85.64300347 -60.39240851 75.93517036 -62.875 66.76953125 C-64.28048278 63.30950593 -66.3089188 61.56293448 -69 59 C-69.61875 58.01 -70.2375 57.02 -70.875 56 C-73.41997204 52.4070983 -75.90929533 49.75674434 -80 48 C-83.52416493 48.34104922 -83.52416493 48.34104922 -85.80078125 48.8671875 C-90.17677297 49.13145698 -94.1261018 46.84962762 -98 45 C-98 41.65042969 -97.27375302 39.2479469 -96.25 36.0625 C-95.76273438 34.50208984 -95.76273438 34.50208984 -95.265625 32.91015625 C-93.91196721 29.79757891 -92.60728908 28.14454503 -90 26 C-86.68914569 24.8963819 -84.29201549 24.93473359 -80.8125 25 C-76.95792545 25.04287625 -73.30414919 25.00053887 -69.5 24.375 C-65.74675975 23.97286712 -64.36645648 24.53257025 -61 26 C-58.6679198 26.07646165 -56.33154122 26.09143299 -54 26 C-54.309375 24.39125 -54.309375 24.39125 -54.625 22.75 C-55.00483054 18.95169461 -54.80602252 18.1157335 -53 15 C-51.56163249 15.11458693 -50.12429034 15.24209116 -48.6875 15.375 C-47.88699219 15.44460937 -47.08648438 15.51421875 -46.26171875 15.5859375 C-44 16 -44 16 -41 18 C-40.01 18 -39.02 18 -38 18 C-37.67 16.35 -37.34 14.7 -37 13 C-36.01 12.67 -35.02 12.34 -34 12 C-31.74754119 14.68841859 -30.11786042 16.64641875 -29 20 C-29.64669414 21.34313399 -30.31903578 22.67391178 -31 24 C-31.57279256 26.02113946 -32.05995784 28.05155402 -32.53515625 30.09765625 C-32.93999113 31.75441748 -33.4606718 33.38201541 -34 35 C-30.00734963 42.51702694 -24.1313459 47.96153729 -17.41796875 53.02734375 C-15 55 -15 55 -13.34375 57.23828125 C-12.9003125 57.81964844 -12.456875 58.40101563 -12 59 C-9.37374861 59.33425735 -9.37374861 59.33425735 -7 59 C-7.309375 58.505 -7.61875 58.01 -7.9375 57.5 C-9.44923942 53.94296607 -9.75050223 50.86721545 -10 47 C-9.01 46.01 -9.01 46.01 -8 45 C-9.88191662 38.94335115 -9.88191662 38.94335115 -14.1640625 34.5 C-15.74750479 33.71601554 -17.33866037 32.94739824 -18.9375 32.1953125 C-21.9378573 30.45646907 -22.88464522 28.19735038 -24 25 C-19.46403388 21.82482371 -14.43091746 19.97523888 -9 19 C-6.0625 19.875 -6.0625 19.875 -4 21 C-3.01 20.67 -2.02 20.34 -1 20 C-0.690625 19.195625 -0.38125 18.39125 -0.0625 17.5625 C1 15 1 15 2.625 13.6875 C6.13766465 12.67067602 9.34900507 12.87830017 13 13 C13 12.34 13 11.68 13 11 C12.38253906 10.82984375 11.76507812 10.6596875 11.12890625 10.484375 C5.1661796 8.77814576 -0.40114631 6.66418883 -6 4 C-5.67 3.34 -5.34 2.68 -5 2 C-3.02 2 -1.04 2 1 2 C0.67 1.34 0.34 0.68 0 0 Z M-69 51 C-66.5910215 54.98005144 -63.9057185 58.19600181 -60.6875 61.5625 C-56.18179282 66.44740036 -53.36833054 71.38216479 -50.41015625 77.3125 C-49.13864797 80.05975287 -49.13864797 80.05975287 -47 82 C-45.68 81.67 -44.36 81.34 -43 81 C-45.64 77.7 -48.28 74.4 -51 71 C-50.01 70.67 -49.02 70.34 -48 70 C-49.51099067 66.00031882 -51.87779096 64.45959799 -55.375 62.125 C-61.46452514 57.87741728 -61.46452514 57.87741728 -63.4375 54.5625 C-64.74326627 51.83776962 -64.74326627 51.83776962 -67.25 51.125 C-68.11625 51.063125 -68.11625 51.063125 -69 51 Z M-44 86 C-43.62875 87.2375 -43.2575 88.475 -42.875 89.75 C-41.87851494 93.65289982 -41.87851494 93.65289982 -42.875 96.5 C-43.24625 96.995 -43.6175 97.49 -44 98 C-42.35 99.65 -40.7 101.3 -39 103 C-39 101.68 -39 100.36 -39 99 C-36.03 99.33 -33.06 99.66 -30 100 C-30 99.01 -30 98.02 -30 97 C-28.68 96.34 -27.36 95.68 -26 95 C-29.15277615 93.38516343 -32.29647488 91.87516847 -35.5625 90.5 C-38.56098466 89.19157033 -41.24539984 87.75292738 -44 86 Z M-37 105 C-38.32770673 107.84084569 -38.32770673 107.84084569 -37.15234375 109.83203125 C-36.75144531 110.48558594 -36.35054687 111.13914062 -35.9375 111.8125 C-34.46711816 114.65974116 -33.99097943 115.77899598 -34.125 119.0625 C-37.03309755 123.61851949 -41.15942019 126.63567056 -46 129 C-47.9993876 129.04948979 -50.00075431 129.05492433 -52 129 C-54.64748202 130.80510138 -56.74080266 132.74080266 -59 135 C-55.51377324 135.87155669 -53.42614267 135.90692012 -50 135 C-43.68696527 134.43633619 -43.68696527 134.43633619 -40.5625 137 C-40.046875 137.66 -39.53125 138.32 -39 139 C-38.67 137.02 -38.34 135.04 -38 133 C-36.948125 133.061875 -35.89625 133.12375 -34.8125 133.1875 C-30.78315025 132.98933526 -29.04524535 132.59741516 -26 130 C-24.40651755 125.96317778 -25.40160186 123.85496021 -27 120 C-26.979375 119.030625 -26.95875 118.06125 -26.9375 117.0625 C-27.01535585 113.2475632 -27.94031828 111.19605784 -30 108 C-33.19512368 105.60619909 -33.19512368 105.60619909 -37 105 Z M-51 138 C-50.67 139.32 -50.34 140.64 -50 142 C-48.68 141.34 -47.36 140.68 -46 140 C-46 139.01 -46 138.02 -46 137 C-48.9254644 136.7763932 -48.9254644 136.7763932 -51 138 Z M-60 138 C-60.33 138.99 -60.66 139.98 -61 141 C-59.71937515 142.7074998 -58.38232443 144.37373596 -57 146 C-56.67 146.99 -56.34 147.98 -56 149 C-55.34 149 -54.68 149 -54 149 C-53.25221902 146.30798849 -52.8491386 144.5280149 -53.625 141.8125 C-55.42312757 139.44224093 -57.20592147 138.88234059 -60 138 Z M-84 177 C-86.39711048 179.59453773 -86.39711048 179.59453773 -88 183 C-87.61657799 186.31950927 -87.61657799 186.31950927 -86 189 C-85.01 189.33 -84.02 189.66 -83 190 C-82.63631108 188.39796533 -82.28438048 186.79325797 -81.9375 185.1875 C-81.74027344 184.29417969 -81.54304688 183.40085937 -81.33984375 182.48046875 C-80.79650537 179.87369221 -80.79650537 179.87369221 -82 177 C-82.66 177 -83.32 177 -84 177 Z M-131 203 C-130.67 204.32 -130.34 205.64 -130 207 C-128.68 207 -127.36 207 -126 207 C-125.01 205.02 -124.02 203.04 -123 201 C-126.71599191 200.79913557 -127.77208445 200.8480563 -131 203 Z M-80 207 C-81.78831982 208.78831982 -81.75169225 211.39362074 -82.1875 213.8125 C-82.38730469 214.87082031 -82.58710937 215.92914063 -82.79296875 217.01953125 C-83.01421236 220.20460436 -82.75193497 221.39499865 -81 224 C-75.83914578 229.85826696 -71.62556235 231.10287502 -64 232 C-64.33 230.68 -64.66 229.36 -65 228 C-65.5775 227.87625 -66.155 227.7525 -66.75 227.625 C-69.96438214 226.73211607 -72.23003446 225.94495771 -74.375 223.3125 C-75 221 -75 221 -73.9375 217.625 C-72.65420108 214.01798 -72.65420108 214.01798 -74.125 210.625 C-75.73309728 207.90201728 -75.73309728 207.90201728 -78.125 207.0625 C-79.053125 207.0315625 -79.053125 207.0315625 -80 207 Z M-78 231 C-77.73323796 232.98491642 -77.73323796 232.98491642 -77 235 C-76.01 235.33 -75.02 235.66 -74 236 C-75.3089572 232.87802522 -75.3089572 232.87802522 -78 231 Z M-62 235 C-60.21092278 238.75151144 -60.21092278 238.75151144 -56.8125 240.8125 C-56.214375 240.874375 -55.61625 240.93625 -55 241 C-56.78907722 237.24848856 -56.78907722 237.24848856 -60.1875 235.1875 C-60.785625 235.125625 -61.38375 235.06375 -62 235 Z M-72 238 C-72.33 238.99 -72.66 239.98 -73 241 C-71.515 241.99 -71.515 241.99 -70 243 C-69.34 241.35 -68.68 239.7 -68 238 C-69.32 238 -70.64 238 -72 238 Z M-82 241 C-83.33927721 242.45287661 -84.67126847 243.91247259 -86 245.375 C-87.11375 246.59316406 -87.11375 246.59316406 -88.25 247.8359375 C-90.20959813 249.79533992 -90.20959813 249.79533992 -90 252 C-85.61750634 250.66090471 -83.42050749 248.91005056 -81 245 C-81.34255005 242.86777176 -81.34255005 242.86777176 -82 241 Z M-63 241 C-62.34 242.65 -61.68 244.3 -61 246 C-60.67 245.34 -60.34 244.68 -60 244 C-60.33 243.01 -60.66 242.02 -61 241 C-61.66 241 -62.32 241 -63 241 Z M-68 244 C-68.6814823 245.89179203 -68.6814823 245.89179203 -69 248 C-68.34 248.66 -67.68 249.32 -67 250 C-66.34 248.68 -65.68 247.36 -65 246 C-65.99 245.34 -66.98 244.68 -68 244 Z " fill="#FFFFFF" transform="translate(1133,182)"/>
<path d="M0 0 C1.74949462 0.27407895 3.49948382 0.54502325 5.25 0.8125 C9.42813835 1.64548328 12.12038524 3.10523201 15.3984375 5.78515625 C17.17365291 7.24066681 17.17365291 7.24066681 20.375 8.375 C21.24125 8.91125 22.1075 9.4475 23 10 C23.75 13.25 23.75 13.25 24 17 C24.57491644 19.36865574 25.28607049 21.66783026 26 24 C25.01 24 24.02 24 23 24 C22.06213918 29.05009595 22.06213918 29.05009595 23 34 C22.34 34.99 21.68 35.98 21 37 C21.763125 37.7425 22.52625 38.485 23.3125 39.25 C29 45.06976744 29 45.06976744 29 49 C29.66 49.33 30.32 49.66 31 50 C29.02 52.64 27.04 55.28 25 58 C24.34 57.67 23.68 57.34 23 57 C23 56.34 23 55.68 23 55 C21.02 54.505 21.02 54.505 19 54 C18.83564453 55.08667969 18.83564453 55.08667969 18.66796875 56.1953125 C16.99750287 63.20931545 12.13718396 69.03063542 7.37890625 74.2734375 C5.43146214 76.71188026 4.20417945 79.35575468 2.95703125 82.203125 C2 84 2 84 0.4375 85.45703125 C-1.41009829 87.44018702 -1.54666916 88.76567475 -1.8125 91.4375 C-1.90144531 92.19933594 -1.99039063 92.96117187 -2.08203125 93.74609375 C-1.98847774 96.31658786 -1.16395728 97.74393466 0 100 C-0.33 100.66 -0.66 101.32 -1 102 C-0.75213734 104.216519 -0.42916475 106.42501152 -0.0625 108.625 C0.13214844 109.81351562 0.32679687 111.00203125 0.52734375 112.2265625 C0.68332031 113.14179688 0.83929688 114.05703125 1 115 C1.95132813 115.28875 2.90265625 115.5775 3.8828125 115.875 C7 117 7 117 8.875 119 C10.25264325 122.67371534 9.98571041 125.5645921 9.8359375 129.44140625 C10.06056488 132.94452378 11.45492939 135.20874968 13.1953125 138.19140625 C14 140 14 140 13.4375 143.1875 C13.293125 144.115625 13.14875 145.04375 13 146 C15.33333333 148.66666667 15.33333333 148.66666667 18 151 C18.73888755 153.03194076 18.9746905 154.80385141 19.25 156.9375 C20.37964356 160.0440198 22.60840195 161.79237103 25 164 C24.566875 163.278125 24.13375 162.55625 23.6875 161.8125 C22.06077399 158.59687882 21.36410382 155.3931342 20.625 151.875 C19.38912151 146.06769999 17.44698039 141.00402793 14.890625 135.65625 C13.87861116 132.63796312 14.10458026 131.0138518 15 128 C16.8125 127.375 16.8125 127.375 19 127 C22 129 22 129 22.73828125 131.46875 C22.92777344 132.4690625 23.11726563 133.469375 23.3125 134.5 C24.5580135 140.04153602 26.54744984 144.14544752 29.6953125 148.84375 C31 151 31 151 31.50390625 153.078125 C32.11673334 155.45222679 33.1254114 156.49030253 34.8125 158.25 C37.96301369 161.83428007 40.74684194 165.32378605 42 170 C41.73828125 172.484375 41.73828125 172.484375 41.25 175.0625 C40.68401865 178.67655854 40.68401865 178.67655854 42.31689453 181.80249023 C47.98140075 186.56281301 53.94104597 189.8642118 60.625 193 C61.635625 193.50144531 62.64625 194.00289062 63.6875 194.51953125 C65.16089844 195.22142578 65.16089844 195.22142578 66.6640625 195.9375 C67.54529785 196.35902344 68.4265332 196.78054688 69.33447266 197.21484375 C73.37482534 198.40496779 76.57837439 197.46202832 80.5 196.1875 C84.34613631 195.89903978 86.06863774 197.62996243 89 200 C89.598125 200.825 90.19625 201.65 90.8125 202.5 C94.46634764 206.67582587 99.44977283 208.72869924 104.9375 209.3125 C107.05750404 209.09965507 107.05750404 209.09965507 109 208 C109.26554688 208.55429687 109.53109375 209.10859375 109.8046875 209.6796875 C110.33449219 210.76636719 110.33449219 210.76636719 110.875 211.875 C111.39707031 212.95394531 111.39707031 212.95394531 111.9296875 214.0546875 C112.96557543 216.15135019 112.96557543 216.15135019 115 218 C115.40047444 220.32275177 115.7397104 222.65739357 116 225 C116.7425 225.2475 117.485 225.495 118.25 225.75 C121 227 121 227 122.6875 228.875 C126.17942077 232.08379206 130.45751819 233.71006179 135 235 C135.66 234.67 136.32 234.34 137 234 C137.33 233.01 137.66 232.02 138 231 C144.46895075 229.65738758 144.46895075 229.65738758 146.9375 231.25 C148 233 148 233 148 236 C148.30978688 238.06616782 148.6457613 240.12848754 149 242.1875 C149.185625 243.27417969 149.37125 244.36085938 149.5625 245.48046875 C149.7790625 246.72763672 149.7790625 246.72763672 150 248 C136.34008017 248.02430561 122.68016621 248.04146325 109.02022839 248.05181217 C102.66183345 248.05680505 96.30345418 248.0634026 89.94506836 248.07543945 C31.6230289 248.17655875 -26.67447809 247.50717845 -85 247 C-85 165.82 -85 84.64 -85 1 C-81.8815675 -0.0394775 -79.72524414 -0.11494838 -76.45703125 -0.09765625 C-75.38388672 -0.09443359 -74.31074219 -0.09121094 -73.20507812 -0.08789062 C-72.08552734 -0.07951172 -70.96597656 -0.07113281 -69.8125 -0.0625 C-68.11577148 -0.05573242 -68.11577148 -0.05573242 -66.38476562 -0.04882812 C-63.58979073 -0.03703498 -60.7949218 -0.0205765 -58 0 C-59 3 -59 3 -61.0625 4.1875 C-61.701875 4.455625 -62.34125 4.72375 -63 5 C-59.1496895 7.56687367 -57.41430237 6.83288724 -53 6 C-53 6.99 -53 7.98 -53 9 C-55.56126064 10.294174 -58.12393358 11.58540784 -60.6875 12.875 C-61.40873047 13.23980469 -62.12996094 13.60460937 -62.87304688 13.98046875 C-66.53125364 15.8179242 -70.1611695 17.56138502 -74 19 C-69.01678081 18.42145288 -64.87965976 16.78346348 -60.375 14.6875 C-54.62625591 12.08156977 -48.9166223 9.92113744 -42.8828125 8.046875 C-38.61506276 6.49706886 -34.72954913 4.31584544 -30.7890625 2.07421875 C-27.39034176 0.76518765 -25.53014397 1.35984249 -22 2 C-19.35547059 1.19961645 -19.35547059 1.19961645 -16.8125 -0.0625 C-10.56653819 -2.5253386 -6.34006563 -1.64236143 0 0 Z M-42.9453125 11.55859375 C-44.02425781 11.99365234 -44.02425781 11.99365234 -45.125 12.4375 C-45.84945312 12.72496094 -46.57390625 13.01242188 -47.3203125 13.30859375 C-47.87460937 13.53675781 -48.42890625 13.76492187 -49 14 C-47.05649404 15.2537118 -47.05649404 15.2537118 -45.0546875 14.44140625 C-44.33539063 14.15136719 -43.61609375 13.86132812 -42.875 13.5625 C-42.15054688 13.27503906 -41.42609375 12.98757812 -40.6796875 12.69140625 C-40.12539063 12.46324219 -39.57109375 12.23507813 -39 12 C-40.94350596 10.7462882 -40.94350596 10.7462882 -42.9453125 11.55859375 Z M17 12 C16.01 13.485 16.01 13.485 15 15 C15.99 15.495 15.99 15.495 17 16 C17.33 14.68 17.66 13.36 18 12 C17.67 12 17.34 12 17 12 Z M18 19 C17.01 20.485 17.01 20.485 16 22 C17.485 22.99 17.485 22.99 19 24 C19.33 22.35 19.66 20.7 20 19 C19.34 19 18.68 19 18 19 Z M16 43 C17.25662962 46.87460798 18.39604563 48.9860255 22 51 C23.32 51 24.64 51 26 51 C24.82547148 46.59373948 24.82547148 46.59373948 22 43.125 C19.41889185 41.67312667 18.641635 41.6791825 16 43 Z " fill="#FFFFFF" transform="translate(85,202)"/>
</svg>
