<?xml version="1.0" encoding="UTF-8"?>
<svg version="1.1" xmlns="http://www.w3.org/2000/svg" width="1357" height="850">
<path d="M0 0 C6 2 6 2 11 11 C20.79080778 16.991976 20.79080778 16.991976 32 15 C33.65 16.98 35.3 18.96 37 21 C48.34091769 23.52020393 59.45079399 24.3098412 71 22 C76 25 76 25 77 29 C78.65 29.66 80.3 30.32 82 31 C82.99 31.99 82.99 31.99 84 33 C85.65 33.33 87.3 33.66 89 34 C88 37 88 37 86 38 C87.98 39.98 87.98 39.98 90 42 C91.65 42 93.3 42 95 42 C95.66 40.35 96.32 38.7 97 37 C97.99 37.33 98.98 37.66 100 38 C100.79267876 43.32227169 101.42520891 48.65012848 102 54 C105.33577921 62.65330469 109.18785791 71.0293851 113.109375 79.4296875 C113.81707031 80.95722656 113.81707031 80.95722656 114.5390625 82.515625 C114.96396973 83.42602539 115.38887695 84.33642578 115.82666016 85.27441406 C117.70831496 89.64536584 119 93.22817342 119 98 C121.97 98.495 121.97 98.495 125 99 C131.91289 88.63066501 133.78637188 80.50460316 132 68 C132.47050781 67.60167969 132.94101562 67.20335937 133.42578125 66.79296875 C134.04839844 66.26316406 134.67101562 65.73335938 135.3125 65.1875 C135.92738281 64.66542969 136.54226563 64.14335937 137.17578125 63.60546875 C138.8562191 62.12653951 140.434824 60.59920157 142 59 C143.66666667 57.33333333 145.33333333 55.66666667 147 54 C147.66 54 148.32 54 149 54 C149.66 52.35 150.32 50.7 151 49 C156 46 156 46 158 46 C157.67 44.68 157.34 43.36 157 42 C159 39 159 39 174 35 C178 39 178 39 180 45 C181.98 45.66 183.96 46.32 186 47 C192 58 192 58 192 65 C197.09245003 64.46225016 197.09245003 64.46225016 200 61 C201.32 61.33 202.64 61.66 204 62 C205.65 66.95 207.3 71.9 209 77 C209.66 77.99 210.32 78.98 211 80 C211.31620422 86.79839071 210.12676382 93.30983984 209 100 C210.65 100.66 212.3 101.32 214 102 C218 106 218 106 218.76953125 108.6328125 C219.11371094 109.78523438 219.45789063 110.93765625 219.8125 112.125 C220.14894531 113.26195312 220.48539063 114.39890625 220.83203125 115.5703125 C223.43359658 123.20969163 225.05102556 125.03644683 232 130 C232.99 130.33 233.98 130.66 235 131 C230.69839438 112.75525321 230.69839438 112.75525321 218 104 C217.01 101.69 216.02 99.38 215 97 C214.34 96.01 213.68 95.02 213 94 C213.14194764 91.93722893 213.28872216 89.87478969 213.4375 87.8125 C213.51871094 86.66394531 213.59992188 85.51539063 213.68359375 84.33203125 C213.95403812 81.48401829 214.37521747 78.78789518 215 76 C222.0480696 78.81922784 227.43513296 82.91351061 232 89 C232 89.66 232 90.32 232 91 C233.65 90.34 235.3 89.68 237 89 C237.144375 89.763125 237.28875 90.52625 237.4375 91.3125 C237.9632594 94.08172908 237.9632594 94.08172908 239 97 C239.598125 96.401875 240.19625 95.80375 240.8125 95.1875 C246 90 246 90 252 88 C252.16802051 86.54182203 252.33437143 85.0834516 252.5 83.625 C252.5928125 82.81289063 252.685625 82.00078125 252.78125 81.1640625 C253.03352351 79.03087175 253.03352351 79.03087175 253 77 C264.83935844 82.59080815 275.55088261 91.56039601 286.23779297 99.06298828 C302.07316691 110.16762474 317.99735002 121.13793863 334 132 C333.67 133.65 333.34 135.3 333 137 C333.99 137.66 334.98 138.32 336 139 C336.66 137.68 337.32 136.36 338 135 C341.3 137.31 344.6 139.62 348 142 C348 142.66 348 143.32 348 144 C349.98 144.66 351.96 145.32 354 146 C355.485 147.485 355.485 147.485 357 149 C356.01 149.33 355.02 149.66 354 150 C354.33 151.65 354.66 153.3 355 155 C357.31 155 359.62 155 362 155 C377 163 377 163 380 170 C378.68 170.99 377.36 171.98 376 173 C376.5775 173.144375 377.155 173.28875 377.75 173.4375 C384 175 384 175 387 178 C388.32 178.33 389.64 178.66 391 179 C391 191 391 191 388 200 C387.67 202.97 387.34 205.94 387 209 C380 218 380 218 377 219 C362 208 362 208 361 202 C362.32 199.69 363.64 197.38 365 195 C354.88950588 191.62983529 352.21653331 192.40711413 343 196 C342.34 196 341.68 196 341 196 C339.26337666 199.22515763 338.1094072 202.51329166 337 206 C336.34 206.33 335.68 206.66 335 207 C333.02 205.68 331.04 204.36 329 203 C325.35568117 201.47151377 325.35568117 201.47151377 319 204 C318.34 205.32 317.68 206.64 317 208 C315.68 209.32 314.36 210.64 313 212 C312.34 212 311.68 212 311 212 C311.33 213.32 311.66 214.64 312 216 C311.34 216.33 310.68 216.66 310 217 C308.68 216.34 307.36 215.68 306 215 C305.34 216.98 304.68 218.96 304 221 C297.70175439 228.55789474 297.70175439 228.55789474 291.5625 229.5625 C283.70774102 231.26731103 276.35636456 234.84123956 269 238 C268.34 238 267.68 238 267 238 C264.80043443 244.41788075 264.80043443 244.41788075 265.0625 248.9375 C265.06752181 252.15145567 264.90414126 255.24990693 264.5 258.4375 C263.53209929 266.38811299 263.97784401 274.07829105 265 282 C261 290 261 290 259 292 C259 292.66 259 293.32 259 294 C267.67290966 295.70116833 267.67290966 295.70116833 278 291 C282.95 290.34 287.9 289.68 293 289 C296.63 287.35 300.26 285.7 304 284 C312 282 312 282 328 281 C335 286 335 286 339 293 C341.97 291.02 344.94 289.04 348 287 C348.66 287.33 349.32 287.66 350 288 C348 292 348 292 345 296 C345.33 295.67 345.66 295.34 346 295 C346.99 294.67 347.98 294.34 349 294 C351 304 351 304 350 308 C354.91071839 311.36182549 354.91071839 311.36182549 361 312 C362.32 311.34 363.64 310.68 365 310 C368 313 368 313 369 317 C369 319.31 369 321.62 369 324 C363 325 363 325 358 323 C358 325.31 358 327.62 358 330 C357.34 331.32 356.68 332.64 356 334 C362.44520753 333.28207806 362.44520753 333.28207806 369 329 C369.28927314 336.66381975 369.57352033 344.32781483 369.85449219 351.99194336 C369.95037648 354.59191984 370.04735518 357.19185622 370.14550781 359.79174805 C370.28748164 363.5576762 370.42534192 367.32373747 370.5625 371.08984375 C370.60624756 372.22703354 370.64999512 373.36422333 370.69506836 374.53587341 C370.92646196 381.00747415 371.02472732 387.46701498 371.01147461 393.94190979 C371.01023212 395.11028971 371.01023212 395.11028971 371.00896454 396.30227327 C371.00682441 398.20151666 371.00353256 400.10075869 371 402 C331.96352632 402.0307567 292.9270515 402.0508082 253.89056766 402.06185675 C251.63271864 402.06249781 249.37486962 402.06315675 247.11702061 402.06381607 C167.5190906 402.08668403 87.92285986 402.0137797 -20.625 401.5 C-21.8144242 401.49402628 -23.0038484 401.48805257 -24.22931576 401.48189783 C-53.81961057 401.33305827 -83.40984018 401.1736273 -113 401 C-113.1048601 339.65354491 -113.1048601 339.65354491 -112.5 314.9375 C-112.4512485 312.74024704 -112.40307725 310.54298114 -112.35546875 308.34570312 C-112.24348078 303.23029813 -112.12431549 298.11511958 -112 293 C-107 291 -107 291 -96 292 C-85.7176572 286.28950543 -85.7176572 286.28950543 -77.390625 277.98828125 C-67 265 -67 265 -65 264 C-65 260.7 -65 257.4 -65 254 C-62 251 -62 251 -54 246 C-52.31483984 238.94729537 -52.31483984 238.94729537 -56 233 C-54.55382209 225.76911043 -49.27670754 221.06563923 -44 216 C-41.03 214.35 -38.06 212.7 -35 211 C-29.83707106 203.37611404 -29.83707106 203.37611404 -30.4375 196.3125 C-30.51871094 195.07113281 -30.59992188 193.82976562 -30.68359375 192.55078125 C-31.31726461 185.43958604 -32.88458042 182.00969404 -36 175 C-37 163 -37 163 -34 154 C-33.28714844 153.23816406 -32.57429687 152.47632813 -31.83984375 151.69140625 C-26.24088815 145.6688358 -20.94041948 139.58722598 -16 133 C-11.38 129.37 -6.76 125.74 -2 122 C14.29227956 97.20608187 14.29227956 97.20608187 12 85 C9.69 85.99 7.38 86.98 5 88 C-9 91 -9 91 -15 90 C-19 86 -19 86 -22 79 C-26.5 73 -26.5 73 -36 66 C-36.99 63.36 -37.98 60.72 -39 58 C-40.98 55.36 -42.96 52.72 -45 50 C-45.66 46.7 -46.32 43.4 -47 40 C-47.845625 38.80375 -48.69125 37.6075 -49.5625 36.375 C-52.20519394 32.42956961 -54.3596391 28.39354682 -56.4375 24.125 C-59.53235302 17.76949825 -63.06218787 11.86482658 -67 6 C-66.67 5.01 -66.34 4.02 -66 3 C-63.66666667 5.33333333 -61.33333333 7.66666667 -59 10 C-58.34 8.35 -57.68 6.7 -57 5 C-55 6 -55 6 -51 17 C-46.71748905 22.37704849 -42.42797123 27.74178416 -38 33 C-36.68 36.96 -35.36 40.92 -34 45 C-32.35 46.65 -30.7 48.3 -29 50 C-27.02 52.97 -25.04 55.94 -23 59 C-22.34 59.66 -21.68 60.32 -21 61 C-20.01 66.94 -20.01 66.94 -19 73 C-18.01 74.98 -17.02 76.96 -16 79 C-3.58676666 76.51735333 7.82132771 73.17867229 17 64 C23 60 23 60 29 58 C35.12393386 53.5428404 35.12393386 53.5428404 41 43 C42.32 41.68 43.64 40.36 45 39 C44.13453456 33.63223199 44.13453456 33.63223199 35 29 C31 25 31 25 30 20 C26.535 23.96 26.535 23.96 23 28 C20.03 28.495 20.03 28.495 17 29 C15.35 27.68 13.7 26.36 12 25 C12 23.68 12 22.36 12 21 C11.34 21 10.68 21 10 21 C9.505 22.485 9.505 22.485 9 24 C7.68 23.67 6.36 23.34 5 23 C3.68 19.7 2.36 16.4 1 13 C-0.32 11.35 -1.64 9.7 -3 8 C-2.67 5.69 -2.34 3.38 -2 1 C-1.34 0.67 -0.68 0.34 0 0 Z M7 18 C8 20 8 20 8 20 Z M135 95 C133.40633425 103.61586334 133.40633425 103.61586334 136 110 C137.65 109.67 139.3 109.34 141 109 C142.57848122 104.52998401 142.57848122 104.52998401 139 99 C137.68 97.68 136.36 96.36 135 95 Z M287 108 C285.35 109.98 283.7 111.96 282 114 C278.535 115.485 278.535 115.485 275 117 C274.01 118.98 273.02 120.96 272 123 C269.69 124.32 267.38 125.64 265 127 C264.01 128.32 263.02 129.64 262 131 C260.68 130.67 259.36 130.34 258 130 C254.85888044 133.95920195 254.85888044 133.95920195 258 144 C259.485 147.465 259.485 147.465 261 151 C269.60229416 153.25308553 269.60229416 153.25308553 277 153 C278.65 153.66 280.3 154.32 282 155 C285.68046842 151.31953158 286.37990049 150.17750096 288.375 145.8125 C288.81585937 144.84957031 289.25671875 143.88664062 289.7109375 142.89453125 C290.87321851 140.28468208 291.95924781 137.66024041 293 135 C293.99 134.01 294.98 133.02 296 132 C294.68 129.69 293.36 127.38 292 125 C293 119 293 119 296 114 C294.02 112.02 292.04 110.04 290 108 C289.01 108 288.02 108 287 108 Z M104 112 C105 114 105 114 105 114 Z M199 113 C202.05270463 119.89597867 202.05270463 119.89597867 210 127 C210.86625 128.464375 211.7325 129.92875 212.625 131.4375 C214.69903854 134.90564463 216.84352584 138.29009007 219.125 141.625 C221.81716164 145.59948074 223.94931978 149.66202261 226 154 C231.94605221 162.01746875 231.94605221 162.01746875 238 164 C239.65 162.35 241.3 160.7 243 159 C242.88619404 151.43852901 242.88619404 151.43852901 239.8125 148.8125 C232 141 232 141 231 136 C228.39385128 133.18037835 225.42566427 131.04665318 222.3125 128.8125 C221.31863281 128.09707031 220.32476563 127.38164062 219.30078125 126.64453125 C218.54152344 126.10183594 217.78226563 125.55914062 217 125 C215.68 123.02 214.36 121.04 213 119 C205.69124156 113.72117988 205.69124156 113.72117988 199 113 Z M317 133 C313.04 132.67 309.08 132.34 305 132 C299.63966939 136.65366536 299.63966939 136.65366536 298 149 C297.34 150.32 296.68 151.64 296 153 C296.66 153.99 297.32 154.98 298 156 C298 157.98 298 159.96 298 162 C298.99 162.33 299.98 162.66 301 163 C301.66 162.67 302.32 162.34 303 162 C302.67 159.03 302.34 156.06 302 153 C302.99 152.34 303.98 151.68 305 151 C305.99 152.98 306.98 154.96 308 157 C309.32 157.66 310.64 158.32 312 159 C312.31622777 152.89459074 312.31622777 152.89459074 310 147 C311.66666667 145.33333333 313.33333333 143.66666667 315 142 C311.7 142.33 308.4 142.66 305 143 C304.34 141.68 303.68 140.36 303 139 C303.33 138.34 303.66 137.68 304 137 C312 136 312 136 317 138 C321.52595471 136.29065918 321.52595471 136.29065918 323 131 C320.5527864 130.8509288 320.5527864 130.8509288 317 133 Z M335 151 C335 151.66 335 152.32 335 153 C340.74922159 154.66114309 340.74922159 154.66114309 344 152 C341.03 151.67 338.06 151.34 335 151 Z M241 168 C241 168.66 241 169.32 241 170 C248.82443828 173.46816459 248.82443828 173.46816459 257 173 C258.65 173.66 260.3 174.32 262 175 C267.94 175.66 273.88 176.32 280 177 C280.33 176.34 280.66 175.68 281 175 C280.24074219 174.66226563 279.48148438 174.32453125 278.69921875 173.9765625 C277.70535156 173.53054688 276.71148438 173.08453125 275.6875 172.625 C274.70136719 172.18414062 273.71523437 171.74328125 272.69921875 171.2890625 C270 170 270 170 267 168 C263.37 168.33 259.74 168.66 256 169 C253.69 168.01 251.38 167.02 249 166 C244.09245003 165.53774984 244.09245003 165.53774984 241 168 Z M302 175 C302 175.99 302 176.98 302 178 C306.15062297 179.34088357 306.15062297 179.34088357 311 178 C308.63333333 175.23333333 308.63333333 175.23333333 302 175 Z M287 176 C286.67 176.66 286.34 177.32 286 178 C290.97076473 179.52623481 290.97076473 179.52623481 295 177 C294.67 176.67 294.34 176.34 294 176 C291.69 176 289.38 176 287 176 Z M316 180 C315.34 181.32 314.68 182.64 314 184 C318.70694678 183.01504142 318.70694678 183.01504142 325 179 C326.65 178.67 328.3 178.34 330 178 C324.06863438 174.04575625 321.71182082 176.19211945 316 180 Z M35 180 C35 180.66 35 181.32 35 182 C35.66 182 36.32 182 37 182 C37 181.34 37 180.68 37 180 C36.34 180 35.68 180 35 180 Z M297 181 C298.32 181.99 299.64 182.98 301 184 C301.33 183.34 301.66 182.68 302 182 C300.35 181.67 298.7 181.34 297 181 Z M-21 192 C-20 194 -20 194 -20 194 Z M5 194 C3.68 196.64 2.36 199.28 1 202 C-7 209 -7 209 -14 211 C-17.04349839 216.34164079 -17.04349839 216.34164079 -16 229 C-17.65 231.64 -19.3 234.28 -21 237 C-21.36039351 248.28554873 -21.36039351 248.28554873 -17 252 C-11.77260299 253.47546648 -11.77260299 253.47546648 -6 251 C-3.04192317 245.80442604 -3.04192317 245.80442604 -2.66015625 243.03515625 C-0.16038186 230.6016379 4.5817123 218.85275988 9 207 C8.81351224 198.37914824 8.81351224 198.37914824 5 194 Z M-16 195 C-15.34 195.66 -14.68 196.32 -14 197 C-14 196.34 -14 195.68 -14 195 C-14.66 195 -15.32 195 -16 195 Z M38 228 C37.67 228.66 37.34 229.32 37 230 C37.66 230 38.32 230 39 230 C38.67 229.34 38.34 228.68 38 228 Z " fill="#FFFFFF" transform="translate(754,335)"/>
</svg>
