<?xml version="1.0" encoding="UTF-8"?>
<svg version="1.1" xmlns="http://www.w3.org/2000/svg" width="1357" height="850">
<path d="M0 0 C447.81 0 895.62 0 1357 0 C1357 60.06 1357 120.12 1357 182 C1293.57804053 182.07613681 1293.57804053 182.07613681 1273.36328125 182.0546875 C1272.07217249 182.05332668 1270.78106373 182.05196587 1269.45083046 182.05056381 C1245.38930384 182.02334952 1221.32823172 181.95590483 1197.26760864 181.73654175 C1193.51231377 181.70246808 1189.75706682 181.67518995 1186.00167847 181.65383911 C1181.62886764 181.62842888 1177.25643603 181.58862927 1172.88385963 181.53687668 C1171.30261422 181.52035156 1169.72130896 181.50869659 1168.13998985 181.50236893 C1166.00257786 181.49282505 1163.86616979 181.46502311 1161.72900391 181.43237305 C1159.94763535 181.41571846 1159.94763535 181.41571846 1158.13027954 181.39872742 C1154.68897741 180.9603827 1152.90706539 179.80342782 1150 178 C1148.02219013 178.29180801 1146.04453909 178.58707553 1144.07421875 178.92578125 C1141.072785 179.03317718 1139.06239508 177.57343274 1136.5234375 176.11328125 C1131.99032349 174.11337801 1127.0587162 173.58693172 1122.1953125 172.80859375 C1119.08811499 172.27449772 1116.16858074 171.46889069 1113.1640625 170.515625 C1107.91252505 168.88564675 1102.69199711 168.03311177 1097.25 167.3125 C1095.89068359 167.11817383 1095.89068359 167.11817383 1094.50390625 166.91992188 C1089.96776037 166.29413241 1085.59153975 165.84036037 1081 166 C1081.66 166.99 1082.32 167.98 1083 169 C1079.275397 170.24153433 1078.52247731 169.47452539 1075 168 C1070.66001693 167.02464936 1066.63488406 166.98157083 1062.2253418 167.11523438 C1054.8038703 167.3318983 1049.18820235 167.21920445 1042.4296875 163.88671875 C1038.26985003 162.36857871 1034.10263192 162.79098225 1029.7265625 162.91015625 C1020.56994564 163.13091326 1012.07778425 163.12770355 1003.83984375 158.84765625 C1001.1941731 157.62873792 998.88015738 157.87999344 996 158 C994.5348194 157.69818377 993.07656941 157.36165381 991.625 157 C986.93145719 155.88022075 981.47466086 154.76266957 977 157 C977 157.99 977 158.98 977 160 C972.47452178 162.92825061 968.20469975 161.70331281 963.09375 161.09375 C959.82921186 160.9948246 958.80284673 161.57560248 956 163 C951.63987857 162.71220321 948.5513994 160.74822419 944.875 158.5 C936.49244692 153.39939413 928.55076247 152.93526186 918.875 154.625 C914.44416075 155.05379089 910.91681517 154.308868 906.59375 153.40625 C903.24800616 152.88221783 900.33773057 153.51451192 897 154 C895.40758277 153.68921736 893.82416326 153.33042301 892.25 152.9375 C886.51861443 151.60605504 881.63827978 152.6065088 876 154 C876 153.01 876 152.02 876 151 C882.75 147 882.75 147 885 147 C882.08183053 143.64950913 880.38024405 142.55726771 876 142 C872.62080362 142.00692458 869.25835728 142.07160107 865.8828125 142.21484375 C861.27687759 142.31043863 858.76466357 141.58945113 855 139 C851.54250051 138.33323122 851.54250051 138.33323122 848 139 C847.13375 139.825 846.2675 140.65 845.375 141.5 C842.36449182 144.34325772 840.06881531 144.2810926 836 144.1875 C834.32357422 144.11595703 834.32357422 144.11595703 832.61328125 144.04296875 C826.65440681 143.97210646 820.86284591 145.01553412 815 146 C815.66 147.32 816.32 148.64 817 150 C814 152 814 152 810.6875 151.9375 C805.86580608 152.01922363 802.9945989 153.58988397 799.09375 156.34765625 C793.18175904 160.42920386 793.18175904 160.42920386 789 159.8125 C788.01 159.544375 787.02 159.27625 786 159 C787.57970928 162.86151158 788.58930867 164.72894372 792.125 167.0625 C795 169 795 169 796 171.5 C796 174.36292589 795.67672895 175.68451716 794 178 C791.64590418 179.64786707 790.60648841 180.1010814 787.75 179.625 C787.1725 179.41875 786.595 179.2125 786 179 C786.53625 178.278125 787.0725 177.55625 787.625 176.8125 C789.31631592 174.14628581 789.31631592 174.14628581 788.3515625 171.71484375 C786.74428975 168.48636235 784.86566647 165.67163465 782.75 162.75 C781.62851563 161.16445313 781.62851563 161.16445313 780.484375 159.546875 C777.58248634 156.57198285 776.10683584 156.07234264 772 156 C769.16341413 157.31673833 769.16341413 157.31673833 767 159 C767.33 160.98 767.66 162.96 768 165 C768.928125 165.28875 769.85625 165.5775 770.8125 165.875 C774 167 774 167 777 169 C776.67 169.99 776.34 170.98 776 172 C772.37721913 173.20759362 771.35504492 172.36650581 768.02734375 170.83984375 C762.44056658 168.52547556 756.91322476 167.31050721 751 169 C749.515 169.99 749.515 169.99 748 171 C745.26433318 171.32702878 742.61911896 171.55487562 739.875 171.6875 C738.76318359 171.75807617 738.76318359 171.75807617 737.62890625 171.83007812 C735.75466073 171.93458359 733.87695837 171.97270642 732 172 C731.67 171.67 731.34 171.34 731 171 C724.33840354 171.21147925 720.05052217 172.68669326 714.359375 176.13671875 C712 177 712 177 709.203125 176.14453125 C708.47609375 175.76683594 707.7490625 175.38914063 707 175 C707 174.34 707 173.68 707 173 C705.35 172.67 703.7 172.34 702 172 C702.66 173.98 703.32 175.96 704 178 C702.54293274 178.50367757 701.08429904 179.00282556 699.625 179.5 C698.81289063 179.7784375 698.00078125 180.056875 697.1640625 180.34375 C695 181 695 181 693 181 C693.33 181.99 693.66 182.98 694 184 C689.25 186 689.25 186 687 186 C687 186.99 687 187.98 687 189 C685 189.8125 685 189.8125 682 190 C677.20233994 187.87178368 674.26575236 185.73226758 672 181 C669.46811352 179.24677063 669.46811352 179.24677063 667 178 C667.33 177.34 667.66 176.68 668 176 C669.79206547 176.14084796 671.58364917 176.28783701 673.375 176.4375 C674.37273438 176.51871094 675.37046875 176.59992188 676.3984375 176.68359375 C679 177 679 177 681 178 C683.10955062 178.19738723 683.10955062 178.19738723 685.4375 178.1875 C686.21996094 178.20167969 687.00242187 178.21585938 687.80859375 178.23046875 C690.29205987 178.14086064 690.29205987 178.14086064 693 176 C693 175.34 693 174.68 693 174 C692.28714844 173.80664062 691.57429687 173.61328125 690.83984375 173.4140625 C689.88207031 173.15367187 688.92429687 172.89328125 687.9375 172.625 C686.92945313 172.35300781 685.92140625 172.08101562 684.8828125 171.80078125 C682.67810169 171.18836158 680.49053659 170.51390162 678.3125 169.8125 C675.4704911 169.11540348 673.76944962 168.98073087 670.9375 169.125 C666.26214229 168.97657595 664.74973145 167.65605977 661 165 C646.47462048 159.71804381 633.4821371 163.8855279 619.82495117 169.35742188 C618 170 618 170 616 170 C615.79375 170.721875 615.5875 171.44375 615.375 172.1875 C613.88347181 175.23835311 612.15161447 176.65100061 609.48828125 178.69140625 C607.74993939 180.08202736 607.74993939 180.08202736 606.3125 182.875 C602.29067968 188.30989232 595.71617881 192.69446377 589 194 C586.98836031 194.14230729 584.97299355 194.23477695 582.95727539 194.29663086 C581.71207626 194.33567032 580.46687714 194.37470978 579.1839447 194.41493225 C577.80102665 194.45282239 576.41809663 194.49027749 575.03515625 194.52734375 C574.32052782 194.54776167 573.60589939 194.56817959 572.86961555 194.58921623 C553.36552923 195.1437219 533.85532924 195.33420647 514.34503174 195.53222656 C510.48828755 195.57238327 506.63159339 195.61653687 502.77489281 195.66065407 C477.18248088 195.95144244 451.59396926 196.06021799 426 196 C426.92398908 194.55729822 427.85567712 193.11952564 428.79052734 191.68383789 C429.30851898 190.8826503 429.82651062 190.08146271 430.36019897 189.2559967 C434.79362795 183.15659745 440.20543932 181.31884637 447.375 180.0625 C453.52283487 178.8166131 458.21106791 177.3033018 463.23828125 173.3671875 C466.61015915 170.75043082 468.93095891 169.77844975 473.1875 170.125 C480.99521513 170.33633665 488.50267577 167.94826059 496 166 C495.23300781 165.84660156 494.46601563 165.69320312 493.67578125 165.53515625 C491.1171875 165.0234375 488.55859375 164.51171875 486 164 C486.495 163.566875 486.99 163.13375 487.5 162.6875 C489.33218192 161.00259517 489.33218192 161.00259517 489 158 C491.94690683 158.40929261 493.69635044 158.76076096 496.0625 160.625 C496.701875 161.07875 497.34125 161.5325 498 162 C499.32 161.67 500.64 161.34 502 161 C498.7 158.69 495.4 156.38 492 154 C492.33 153.34 492.66 152.68 493 152 C494.85546875 151.69140625 494.85546875 151.69140625 497.1875 151.5625 C501.38094344 151.20191728 504.30200064 150.07448744 508 148 C508.66 148 509.32 148 510 148 C510.2475 147.278125 510.495 146.55625 510.75 145.8125 C512 143 512 143 514.1875 140.375 C514.785625 139.59125 515.38375 138.8075 516 138 C515.67 137.01 515.34 136.02 515 135 C518.76133879 130.19384487 521.21525776 128.62497825 527.3125 127.6875 C528.36050781 127.56761719 529.40851562 127.44773437 530.48828125 127.32421875 C532.935298 127.26829013 532.935298 127.26829013 534 126 C532.80503906 126.05220703 532.80503906 126.05220703 531.5859375 126.10546875 C525.32383806 126.26544939 521.57062997 125.95584447 516 123 C505.16599814 120.539222 505.16599814 120.539222 494.2578125 121.51953125 C491.11373508 122.18859963 488.14875771 121.9730038 484.9375 121.875 C478.68043996 121.77165516 472.78422059 122.35713496 466.625 123.4375 C460.18774334 124.55925279 453.83915032 125.38014286 447.3125 125.75 C446.59465332 125.79439209 445.87680664 125.83878418 445.13720703 125.88452148 C440.29447207 126.11628823 435.79998336 125.67359434 431 125 C421.96552243 124.37643253 414.8015439 126.11038364 406.625 129.9375 C398.05396369 133.78130905 389.26493693 134.87398421 380 136 C379.67 137.32 379.34 138.64 379 140 C387.20443716 140.80391241 387.20443716 140.80391241 395.4375 140.9375 C400.78920801 141.03138961 402.93389864 141.90910559 406.6875 145.75 C408.91291128 148.87760504 410.15328404 151.27444979 411 155 C410.67 155.66 410.34 156.32 410 157 C411.65 157.66 413.3 158.32 415 159 C416.45517241 165.18448276 416.45517241 165.18448276 414.5 168.6875 C412.37388818 170.65415343 410.88388342 171.65681474 408.375 172.9375 C404.83073205 174.69954705 404.83073205 174.69954705 403.5 177.9375 C402.98814794 181.07259387 403.29541479 182.94679741 404 186 C403.66666667 187.66666667 403.33333333 189.33333333 403 191 C403.29537827 192.67381019 403.6242719 194.34237601 404 196 C396.594341 196.7639672 389.24709565 197.18707303 381.8046875 197.31640625 C380.77296417 197.33718735 379.74124084 197.35796844 378.67825317 197.37937927 C376.50851946 197.42231844 374.33874818 197.46339627 372.16894531 197.50268555 C368.90419893 197.56196978 365.63961256 197.62715154 362.375 197.69335938 C357.19251751 197.79598425 352.00998268 197.88254429 346.82702637 197.95733643 C345.00869039 197.98477753 343.19040002 198.01555115 341.37219238 198.05047607 C339.04241051 198.09453746 336.71284683 198.12548292 334.3828125 198.15234375 C333.11066895 198.17159912 331.83852539 198.19085449 330.52783203 198.21069336 C326.76191131 197.98578059 323.59350819 197.11230215 320 196 C316.87450983 195.74951364 316.87450983 195.74951364 314 196 C313.2575 196.04125 312.515 196.0825 311.75 196.125 C309.67210886 196.90790588 309.67210886 196.90790588 309.0625 199.75 C308.711875 200.8225 308.36125 201.895 308 203 C306.33333333 204.66666667 304.66666667 206.33333333 303 208 C302.17295995 210.46823091 302.17295995 210.46823091 302 213 C301.43589809 217.51281526 300.28429399 219.79390349 297 223 C295.17825832 223.91917665 293.34337321 224.81251218 291.5 225.6875 C287.07657114 227.94028075 285.27959167 229.4835369 283.625 234.1875 C283.35945313 235.0434375 283.09390625 235.899375 282.8203125 236.78125 C282 239 282 239 279.5 241.1875 C277 242 277 242 274.8125 242.0625 C273 241 273 241 271.5625 238.5 C270.7967227 233.73516347 272.18863568 230.38233303 274 226 C273.35933594 225.82984375 272.71867187 225.6596875 272.05859375 225.484375 C267.89376112 224.31747703 264.02261926 223.19914804 260.3125 220.9375 C257.04672318 218.83866572 257.04672318 218.83866572 253.1875 217.9375 C250 217 250 217 248 214 C248 213.01 248 212.02 248 211 C247.01 210.67 246.02 210.34 245 210 C247.25357411 203.40024726 252.09581254 200.37156013 258 197 C261.18089889 195.63244014 264.36142338 194.38294085 267.62890625 193.23828125 C270.17767509 192.23743724 270.17767509 192.23743724 270.83984375 189.85546875 C270.89269531 189.24316406 270.94554687 188.63085938 271 188 C271.969375 188.061875 272.93875 188.12375 273.9375 188.1875 C278.61559946 188.21625881 282.67475582 186.64771207 287 185 C286.01 183.68 285.02 182.36 284 181 C287 180 287 180 289.4375 180.5625 C291.94631666 181.26119086 291.94631666 181.26119086 293.7578125 180.0546875 C297.56471871 178.26398249 301.65744594 178.59052048 305.80859375 178.44140625 C309.30134043 177.95832134 311.19020548 177.09619591 314 175 C314.66 174.01 315.32 173.02 316 172 C316.66 172 317.32 172 318 172 C318.33 170.68 318.66 169.36 319 168 C313.27724355 167.27819361 313.27724355 167.27819361 308.0546875 169.265625 C306.89791235 170.33421549 305.75939673 171.42293408 304.640625 172.53125 C302.35405678 174.57827298 299.94416324 175.2819114 297 176 C296.67 175.01 296.34 174.02 296 173 C296.66 172.01 297.32 171.02 298 170 C297.030625 169.7525 296.06125 169.505 295.0625 169.25 C292 168 292 168 291.0625 166.125 C290.99648121 163.8803613 291.31475222 162.13188198 292 160 C287.87248551 160.60698743 284.6678852 162.03810791 281 164 C281.99 165.32 282.98 166.64 284 168 C280.78338731 171.73127072 277.5478885 173.21332952 273 175 C271.65986503 175.65288627 270.32258472 176.31225595 269 177 C268.44699219 176.50628906 267.89398438 176.01257813 267.32421875 175.50390625 C264.50777257 173.6814999 263.12241885 173.74167508 259.8125 173.9375 C256.03621314 174.06788972 252.99909218 173.86979227 249.375 172.8125 C244.37967124 171.54797333 240.52329681 172.67502544 236 175 C233.49319339 176.99786681 233.49319339 176.99786681 232 179 C231.65324219 178.18144531 231.30648437 177.36289063 230.94921875 176.51953125 C229.17957861 173.62946846 229.17957861 173.62946846 225.64453125 173.51171875 C223.74767578 173.59873047 223.74767578 173.59873047 221.8125 173.6875 C220.54019531 173.73261719 219.26789063 173.77773437 217.95703125 173.82421875 C216.49330078 173.91123047 216.49330078 173.91123047 215 174 C215 173.01 215 172.02 215 171 C207.3180564 168.22458812 200.77233145 166.66249372 192.59375 166.99609375 C189.43149053 167.00085619 186.94878186 166.07882263 184 165 C181.56282742 165.27034634 181.56282742 165.27034634 179 166 C177.1128125 166.2165625 177.1128125 166.2165625 175.1875 166.4375 C172.3815699 166.76085997 170.06742081 167.26870926 167.3125 168.0625 C159.87247271 169.98815412 152.28752968 169.73190571 144.9453125 167.62109375 C138.43225686 165.75634158 131.88543572 164.71573186 125.1875 163.75 C124.01896484 163.564375 122.85042969 163.37875 121.64648438 163.1875 C106.49200202 160.98078001 89.31723223 162.19929656 75.08203125 168.3046875 C70.24489362 169.92009181 65.04155772 170.34674938 60 171 C61.32 172.98 62.64 174.96 64 177 C60.54873543 179.85621896 58.00189528 180.14381318 53.6875 180 C48.36073204 179.82677177 44.83161749 180.81209774 40 183 C44.77573323 185.61895048 48.84434881 184.83119431 54 184 C54 184.99 54 185.98 54 187 C49.52689456 190.73808811 45.51805424 191.81214616 39.9375 192.625 C35.40949139 193.33131889 31.20272661 194.08296681 27 196 C27.33 197.65 27.66 199.3 28 201 C18.76 201.33 9.52 201.66 0 202 C0 135.34 0 68.68 0 0 Z M397.3046875 120.5859375 C396.19219131 120.67782097 396.19219131 120.67782097 395.05722046 120.77156067 C392.66293805 120.9702897 390.26895881 121.17241263 387.875 121.375 C387.06575073 121.4428067 386.25650146 121.5106134 385.42272949 121.58047485 C373.59854876 122.57219266 361.78899405 123.64585879 350 125 C350 125.33 350 125.66 350 126 C351.78857422 126.09087891 351.78857422 126.09087891 353.61328125 126.18359375 C355.17969925 126.26801149 356.74610488 126.35265887 358.3125 126.4375 C359.49102539 126.49647461 359.49102539 126.49647461 360.69335938 126.55664062 C361.45068359 126.59853516 362.20800781 126.64042969 362.98828125 126.68359375 C363.68477783 126.72025146 364.38127441 126.75690918 365.09887695 126.79467773 C367 127 367 127 370 128 C367.64979142 129.17510429 366.33087002 129.08807173 363.71875 129.02734375 C362.87699219 129.01509766 362.03523438 129.00285156 361.16796875 128.99023438 C359.38924145 128.95507651 357.61058706 128.91601345 355.83203125 128.87304688 C354.99027344 128.86208984 354.14851563 128.85113281 353.28125 128.83984375 C352.50845703 128.82300537 351.73566406 128.80616699 350.93945312 128.78881836 C348.7612832 128.82111057 348.7612832 128.82111057 347 131 C347.99 132.485 347.99 132.485 349 134 C346.36 134 343.72 134 341 134 C341.99 134.99 342.98 135.98 344 137 C340.68929162 138.00109515 337.69915231 138.10356134 334.25 138.0625 C333.26515625 138.05347656 332.2803125 138.04445312 331.265625 138.03515625 C330.51796875 138.02355469 329.7703125 138.01195312 329 138 C331.34081196 140.14481096 332.5935861 140.96773594 335.8046875 141.22265625 C336.81789063 141.16980469 337.83109375 141.11695313 338.875 141.0625 C344.68131254 140.86615127 344.68131254 140.86615127 348.125 142.3125 C352.37492143 143.32878556 354.76325459 141.42846705 358.4765625 139.37109375 C360.71599898 138.15431015 362.85376532 137.22424026 365.25 136.375 C368.89272126 135.15074462 368.89272126 135.15074462 371.64453125 133.5234375 C375.8560068 131.61135896 379.89929251 130.9933719 384.4375 130.25 C393.79769941 128.57545307 401.66268906 125.49709499 410 121 C410 120.67 410 120.34 410 120 C405.74313376 119.92278961 401.5424456 120.22779696 397.3046875 120.5859375 Z M327.75 128 C326.85796875 128.37125 325.9659375 128.7425 325.046875 129.125 C324.03367187 129.558125 324.03367187 129.558125 323 130 C323.33 130.66 323.66 131.32 324 132 C327.92952711 133.05083399 332.16916708 133.76314562 335.99609375 132.16796875 C337.81106812 130.98323316 337.81106812 130.98323316 340 129 C338.7511573 127.4166747 338.7511573 127.4166747 337 126 C333.09224671 126 331.26345037 126.52065248 327.75 128 Z M313 143 C312.36040848 145.0368684 312.36040848 145.0368684 312 147 C316.539494 147.42403835 321.08148016 147.80924638 325.625 148.1875 C327.55279297 148.36829102 327.55279297 148.36829102 329.51953125 148.55273438 C330.76347656 148.65263672 332.00742187 148.75253906 333.2890625 148.85546875 C334.43068848 148.95496826 335.57231445 149.05446777 336.74853516 149.15698242 C340.50590384 148.9755747 342.77985803 147.88303666 346 146 C344.00896221 143.54847761 344.00896221 143.54847761 340.078125 143.91015625 C337.66003241 143.97220995 335.24479368 144.06272253 332.828125 144.16601562 C327.66955752 144.28904067 324.58045971 143.62622166 320 141 C316.84918025 141 315.58152302 141.27898465 313 143 Z M203 157 C203.99 158.32 204.98 159.64 206 161 C206.54527344 160.77183594 207.09054688 160.54367188 207.65234375 160.30859375 C213.62158324 158.03314007 217.71559582 157.90272308 224 159 C224 159.33 224 159.66 224 160 C222.35 160.33 220.7 160.66 219 161 C219 161.33 219 161.66 219 162 C224.445 162.495 224.445 162.495 230 163 C230 163.33 230 163.66 230 164 C223.565 164.495 223.565 164.495 217 165 C223.28441327 169.71330995 228.10790653 171.14698741 236 171 C237.134375 170.505 238.26875 170.01 239.4375 169.5 C243.33075272 167.8607357 244.79240475 168.03222596 248.875 168.5625 C254.93277819 169.29492658 258.79889876 168.06024391 264 165 C263.54625 164.54625 263.0925 164.0925 262.625 163.625 C261.41666667 162.41666667 260.20833333 161.20833333 259 160 C259.495 159.21625 259.99 158.4325 260.5 157.625 C262.16537965 155.21447673 262.16537965 155.21447673 262 153 C258.31245243 153.49831724 256.39509338 154.10067643 254 157 C252 156 252 156 250 153 C249.319375 153.37125 248.63875 153.7425 247.9375 154.125 C243.98731672 155.30165034 241.79401733 154.47545119 238 153 C237.525625 152.505 237.05125 152.01 236.5625 151.5 C233.46116384 148.52271729 228.70265884 148.10810532 224.5390625 147.84375 C216.87056025 148.31565783 209.47937768 153.18123634 203 157 Z M293 153 C293 153.99 293 154.98 293 156 C295.1479894 155.55187982 297.29336561 155.09121652 299.4375 154.625 C300.63246094 154.36976563 301.82742188 154.11453125 303.05859375 153.8515625 C304.02925781 153.57054687 304.99992187 153.28953125 306 153 C306.33 152.34 306.66 151.68 307 151 C301.0819503 149.67145823 298.22270869 150.33535271 293 153 Z M280 152 C279.67 152.66 279.34 153.32 279 154 C276.69 154 274.38 154 272 154 C274.1028059 156.68726558 274.1028059 156.68726558 277 159 C281.36209412 159 284.57272148 157.66566107 288 155 C289.34689915 152.42900598 289.34689915 152.42900598 290 150 C286.35282355 150 283.45043117 150.84985628 280 152 Z M306 158 C305.13034494 160.12946603 305.13034494 160.12946603 305 162 C308.2338603 163.92671584 310.51434822 164.19591613 314.25 164.0625 C317.70510616 163.98428854 320.90489836 164.05378354 324.3125 164.625 C327.97684556 165.2758075 327.97684556 165.2758075 331.125 163.8125 C334 163 334 163 337.0625 164.375 C340.12035903 167.10755488 341.81129709 169.64839495 343.83203125 173.16015625 C345.22352246 175.35210394 346.77181518 176.67959418 349 178 C343.44776119 179.13568521 343.44776119 179.13568521 340.9375 178.375 C338.80615111 177.76094107 338.80615111 177.76094107 336.3125 179.3125 C333.91233055 180.79292923 333.91233055 180.79292923 333 183 C331.75283203 182.94779297 331.75283203 182.94779297 330.48046875 182.89453125 C329.39378906 182.86746094 328.30710937 182.84039062 327.1875 182.8125 C326.10855469 182.77769531 325.02960938 182.74289063 323.91796875 182.70703125 C320.98051156 182.73463048 320.98051156 182.73463048 319.11328125 184.51171875 C318.74589844 185.00285156 318.37851562 185.49398437 318 186 C321.26913624 187.03115279 323.86041348 186.9638984 327.25 186.5625 C328.58804687 186.40974609 328.58804687 186.40974609 329.953125 186.25390625 C330.62859375 186.17011719 331.3040625 186.08632812 332 186 C332.515625 186.9075 333.03125 187.815 333.5625 188.75 C336.13121121 192.58037502 338.79752588 194.11613229 343 196 C346.29376525 196.33690298 346.29376525 196.33690298 349 196 C349.495 195.01 349.495 195.01 350 194 C347.525 192.02 347.525 192.02 345 190 C348.12290635 190.48578543 350.99580359 190.9986012 354 192 C356.30745935 189.24689917 356.30745935 189.24689917 355.6875 186.5 C355.17901328 184.65095738 354.60642538 182.81927613 354 181 C355.625 180.3125 355.625 180.3125 358 180 C360 181 362 182 364 183 C366.26033623 183.1860521 366.26033623 183.1860521 368 182 C369.29660434 179.50965614 369.29660434 179.50965614 370 177 C369.50628906 176.72027344 369.01257813 176.44054687 368.50390625 176.15234375 C366.47334675 174.88171195 364.71302054 173.67951402 363 172 C362.7525 170.205625 362.7525 170.205625 362.5 168.375 C362.2525 166.704375 362.2525 166.704375 362 165 C358.75356961 163.13220294 358.75356961 163.13220294 355 162 C351.56322852 160.16705521 350.19180373 159.28770559 348 156 C347.01 156.268125 346.02 156.53625 345 156.8125 C341.45852901 157.3611786 339.93581259 156.56537123 337.0625 154.5 C334.20041058 152.52195364 332.44568011 151.59055296 328.9375 151.875 C324.47654312 152.76719138 321.48413584 155.16913963 318 158 C319.20381448 155.50638429 320.45428722 153.31856917 322 151 C315.62069034 151 310.55943553 153.57466552 306 158 Z M268 169 C269.64539322 170.32575833 269.64539322 170.32575833 272 171 C275.23394361 169.71677553 275.23394361 169.71677553 278 168 C277.34 167.34 276.68 166.68 276 166 C271.73173127 166 271.06117568 166.37613513 268 169 Z M507 181 C505.989375 181.144375 504.97875 181.28875 503.9375 181.4375 C500.77193841 182.04367137 497.95387083 182.69480126 495 184 C494.03122943 186.03243548 494.03122943 186.03243548 494 188 C494.886875 188.12375 495.77375 188.2475 496.6875 188.375 C500 189 500 189 502.296875 190.140625 C505.93367598 191.2968334 507.96041724 190.53534647 511.5625 189.375 C512.67753906 189.03210938 513.79257812 188.68921875 514.94140625 188.3359375 C518.07995836 186.96507566 519.78130594 185.57129825 522 183 C517.16647373 178.85697748 512.989113 180.07065488 507 181 Z M290 188 C290.33 188.66 290.66 189.32 291 190 C291.59167969 189.90460938 292.18335938 189.80921875 292.79296875 189.7109375 C297.44380225 189.05845515 300.72314374 188.65462721 305 191 C305.33 189.68 305.66 188.36 306 187 C299.64705922 181.38009085 295.5868178 182.54620168 290 188 Z " fill="#FFFFFF" transform="translate(0,0)"/>
</svg>
