<?xml version="1.0" encoding="UTF-8"?>
<svg version="1.1" xmlns="http://www.w3.org/2000/svg" width="1357" height="850">
<path d="M0 0 C132.84158146 0 132.84158146 0 178.52386475 0.46356201 C185.00219987 0.5279946 191.48059514 0.58584107 197.95898438 0.64453125 C210.30604912 0.7572158 222.65304344 0.87605468 235 1 C234.55101441 2.4333192 234.09445181 3.86426617 233.63476562 5.29418945 C233.25463318 6.48985283 233.25463318 6.48985283 232.86682129 7.70967102 C231.62047855 11.0027776 229.70551593 13.46368783 227.5 16.1875 C221.35571881 23.71218508 221.35571881 23.71218508 220 33 C221.32 33.33 222.64 33.66 224 34 C223.61585938 34.4846875 223.23171875 34.969375 222.8359375 35.46875 C219.92275609 39.45343811 219.92275609 39.45343811 218.9375 44.171875 C219.68905547 47.74176349 220.39825932 49.52836541 223.3125 51.8125 C227.54240784 55.25544824 228.92254664 60.05401004 231 65 C233.31449157 70.16660126 235.99349019 74.43780544 239.5234375 78.86328125 C241.12590953 81.18220242 242.02582204 83.44706438 243.0625 86.0625 C245.8070935 91.9003487 250.20190325 93.70151151 255.83203125 96.41796875 C262.58437102 99.78997566 268.22681511 104.79608783 270.71875 112.109375 C272.31582754 118.53971352 271.8677433 124.54395965 271.19140625 131.09375 C270.75842003 133.9376956 270.75842003 133.9376956 272 136 C271.99403131 138.31286764 271.94428583 140.62566267 271.875 142.9375 C271.76812185 149.14205773 272.36320976 154.90714076 273.5 161 C275.10515724 169.70240771 275.22008951 178.15879884 274.9765625 186.9921875 C274.94369141 188.44625 274.94369141 188.44625 274.91015625 189.9296875 C274.88058838 190.78804199 274.85102051 191.64639648 274.82055664 192.53076172 C275.02548766 195.35072401 275.91004631 197.40643389 277 200 C277.061875 201.11375 277.12375 202.2275 277.1875 203.375 C278.20547988 207.91675639 280.13836651 209.33374712 283.48828125 212.37109375 C285 214 285 214 285.25 216.6875 C285.1675 217.450625 285.085 218.21375 285 219 C285.7734375 219.928125 285.7734375 219.928125 286.5625 220.875 C288 223 288 223 287.6875 226.75 C287.460625 227.8225 287.23375 228.895 287 230 C285.68 230.33 284.36 230.66 283 231 C283 231.66 283 232.32 283 233 C283.7425 233.165 284.485 233.33 285.25 233.5 C289.29072114 235.70402971 290.22122974 238.89809445 292 243 C292.804375 244.5778125 292.804375 244.5778125 293.625 246.1875 C295 249 295 249 295.9375 251.8125 C296.288125 252.534375 296.63875 253.25625 297 254 C299.01508358 254.73323796 299.01508358 254.73323796 301 255 C302.42336877 257.84673755 302.00758837 260.14615347 301.87890625 263.3203125 C301.83056641 264.57714844 301.78222656 265.83398438 301.73242188 267.12890625 C301.67634766 268.44761719 301.62027344 269.76632812 301.5625 271.125 C301.50927587 272.46482438 301.45653549 273.80466808 301.40429688 275.14453125 C301.27429992 278.42990887 301.13932314 281.71500678 301 285 C281.02084139 285.03213436 261.04168013 285.05146405 241.0625 285.0625 C240.2996274 285.0629343 239.5367548 285.06336861 238.75076485 285.06381607 C197.78499039 285.08648414 156.82062279 285.01300526 115.85546875 284.77734375 C114.9987307 284.77243966 114.14199265 284.76753558 113.25929284 284.76248288 C75.50597094 284.54532602 37.75300159 284.26308712 0 284 C0 190.28 0 96.56 0 0 Z " fill="#FFFFFF" transform="translate(0,450)"/>
<path d="M0 0 C6.93 0 13.86 0 21 0 C21.99 1.98 22.98 3.96 24 6 C25.32 5.67 26.64 5.34 28 5 C28 3.68 28 2.36 28 1 C28.99 1.33 29.98 1.66 31 2 C31.33 1.34 31.66 0.68 32 0 C47.4792181 -0.0246498 62.95843249 -0.04156277 78.43766594 -0.05181217 C85.64399842 -0.05672208 92.85031622 -0.06335579 100.05664062 -0.07543945 C169.0430845 -0.18128508 238.01107338 0.50008024 307 1 C307 99.01 307 197.02 307 298 C218.29641816 298.07991314 218.29641816 298.07991314 196.62109375 298.06640625 C195.8101843 298.06593143 194.99927484 298.0654566 194.16379237 298.06496739 C165.33615075 298.04686398 136.51268266 297.90450003 107.6875 297.5 C106.40800854 297.48206327 106.40800854 297.48206327 105.10266876 297.46376419 C95.40147636 297.32632063 85.70060133 297.17450379 76 297 C75.29407575 285.85679085 74.75427877 274.72345657 74.4375 263.5625 C74.40523315 262.47654541 74.40523315 262.47654541 74.37231445 261.36865234 C74.04885806 250.37594485 73.90621266 239.39490674 74.03686523 228.39672852 C74.08538659 222.85466526 73.82255682 217.56630329 72.98071289 212.08227539 C73 210 73 210 75.4375 206.9375 C79.62882554 204.14982681 84.05567173 204 89 204 C90.63863848 202.11434395 90.63863848 202.11434395 92.3125 199.75 C94.95342094 196.23970757 97.55139519 193.72258274 101 191 C101.83683484 189.80839052 102.64782386 188.59837128 103.4375 187.375 C105.80468266 183.84669926 107.91346915 183.18055336 112 182 C113.20003343 180.18398635 113.20003343 180.18398635 114 178 C114.598125 177.278125 115.19625 176.55625 115.8125 175.8125 C122.33593181 167.42523053 126.27143114 157.84723078 125 147 C123.46999855 143.71722217 121.69654299 141.46341392 119.296875 138.76171875 C115.86521607 134.63555742 113.94909713 130.02456589 111.73828125 125.1640625 C110.13084635 121.86386682 110.13084635 121.86386682 107.26953125 119.3828125 C105 117 105 117 104.8359375 114.640625 C105.10277344 113.45726562 105.10277344 113.45726562 105.375 112.25 C106.22313236 106.83003033 105.41204385 102.91269339 103 98 C102.01 96.7625 102.01 96.7625 101 95.5 C96.11622741 89.39528426 95.63996402 82.56075549 96 75 C96.63035156 74.72285156 97.26070312 74.44570313 97.91015625 74.16015625 C100.23323786 73.10976287 100.23323786 73.10976287 101.4375 70.4375 C103 68 103 68 105.3125 66.9375 C109.24637999 67.02898558 111.00139353 68.51179463 114 71 C114.598125 71.99 115.19625 72.98 115.8125 74 C119.70955773 79.34453632 125.67579744 80.87346656 132 82 C131.33613281 81.52691406 130.67226562 81.05382812 129.98828125 80.56640625 C124.22162827 76.24773037 119.29335719 72.04686117 117 65 C117.495 63.515 117.495 63.515 118 62 C116.25110028 56.28464144 110.04035121 53.80663651 105.12597656 51.09521484 C97.42614654 47.12858215 88.57756114 42.5762185 80 41 C77.67888161 41.84977015 77.67888161 41.84977015 75.4375 43.25 C74.67308594 43.68828125 73.90867187 44.1265625 73.12109375 44.578125 C71.147801 45.90092161 69.60405975 47.25757087 68 49 C64.6497537 45.18765077 62.83025211 41.66714289 61 37 C59.9275 37.350625 58.855 37.70125 57.75 38.0625 C53.74209195 38.60837995 51.49549772 37.36267183 48.24316406 35.04663086 C40.61325273 29.22749963 40.61325273 29.22749963 39 25 C39.66 24.34 40.32 23.68 41 23 C38.87635519 22.77390663 38.87635519 22.77390663 37.375 24.5 C36.92125 24.995 36.4675 25.49 36 26 C34.99324219 25.28457031 33.98648437 24.56914062 32.94921875 23.83203125 C31.52891718 22.82513797 30.10832008 21.81866148 28.6875 20.8125 C27.93799072 20.28164795 27.18848145 19.7507959 26.41625977 19.20385742 C19.63472721 14.41660553 12.78339563 9.73522228 5.89526367 5.1027832 C5.1241626 4.58031006 4.35306152 4.05783691 3.55859375 3.51953125 C2.87079834 3.05651611 2.18300293 2.59350098 1.47436523 2.11645508 C0.98782471 1.7480249 0.50128418 1.37959473 0 1 C0 0.67 0 0.34 0 0 Z M228 26 C228.66 26.66 229.32 27.32 230 28 C230 27.34 230 26.68 230 26 C229.34 26 228.68 26 228 26 Z M201 34 C200.67 34.66 200.34 35.32 200 36 C200.66 36 201.32 36 202 36 C201.67 35.34 201.34 34.68 201 34 Z M132 45 C132.391875 45.391875 132.78375 45.78375 133.1875 46.1875 C134.65628694 47.65628694 136.1115146 49.13862471 137.5625 50.625 C139.75959819 53.00641642 139.75959819 53.00641642 142 54 C141.66902062 50.91085915 140.99715301 49.9973069 138.6875 47.8125 C136.30533398 46.20592291 134.79620867 45.41425314 132 45 Z M138 53 C136.7315625 54.175625 136.7315625 54.175625 135.4375 55.375 C132.12074083 58.16931023 129.20395906 59.07512901 125 60 C126.67488528 61.73647948 126.67488528 61.73647948 129 63 C133.50076406 62.07676635 135.96202742 59.29837023 139 56 C138.67 55.01 138.34 54.02 138 53 Z M146 58 C146.26656572 60.93443402 146.26656572 60.93443402 147 64 C148.485 64.99 148.485 64.99 150 66 C150 62.09161134 148.49432124 60.88405893 146 58 Z M153 64 C153.99 65.32 154.98 66.64 156 68 C156.66 67.67 157.32 67.34 158 67 C156.62514468 65.45833358 156.62514468 65.45833358 155 64 C154.34 64 153.68 64 153 64 Z M161 68 C161.66 69.32 162.32 70.64 163 72 C163.99 72 164.98 72 166 72 C164.35 70.68 162.7 69.36 161 68 Z M155 70 C155.66 71.32 156.32 72.64 157 74 C157.66 73.67 158.32 73.34 159 73 C158.34 72.01 157.68 71.02 157 70 C156.34 70 155.68 70 155 70 Z M169 72 C169.33 73.98 169.66 75.96 170 78 C170.33 77.01 170.66 76.02 171 75 C170.34 74.01 169.68 73.02 169 72 Z M164 76 C164.99 77.485 164.99 77.485 166 79 C166.66 79 167.32 79 168 79 C168 78.34 168 77.68 168 77 C166.68 76.67 165.36 76.34 164 76 Z M248 76 C247.67 76.66 247.34 77.32 247 78 C247.66 78 248.32 78 249 78 C248.67 77.34 248.34 76.68 248 76 Z M170 80 C170.99 80.99 171.98 81.98 173 83 C172.67 82.01 172.34 81.02 172 80 C171.34 80 170.68 80 170 80 Z M279 94 C279.33 94.99 279.66 95.98 280 97 C280.99 96.01 281.98 95.02 283 94 C281.68 94 280.36 94 279 94 Z M197 100 C198 102 198 102 198 102 Z M193 101 C193.33 102.65 193.66 104.3 194 106 C194.33 105.01 194.66 104.02 195 103 C194.34 102.34 193.68 101.68 193 101 Z M198 104 C199 107 199 107 199 107 Z M273 104 C274 106 274 106 274 106 Z M195 106 C195 106.99 195 107.98 195 109 C195.66 109 196.32 109 197 109 C196.67 108.01 196.34 107.02 196 106 C195.67 106 195.34 106 195 106 Z M240 108 C240 108.66 240 109.32 240 110 C240.99 110.33 241.98 110.66 243 111 C243.99 110.01 244.98 109.02 246 108 C244.02 108 242.04 108 240 108 Z M196 110 C197 112 197 112 197 112 Z M235 111 C234.67 111.99 234.34 112.98 234 114 C234.33 114.66 234.66 115.32 235 116 C236.65 115.34 238.3 114.68 240 114 C237.73675716 111.92140082 237.73675716 111.92140082 235 111 Z M268 112 C268.33 112.99 268.66 113.98 269 115 C269.66 114.01 270.32 113.02 271 112 C270.01 112 269.02 112 268 112 Z M175 119 C174.57066971 122.45953106 174.81764101 123.74156252 176.86328125 126.640625 C177.67152344 127.50171875 178.47976563 128.3628125 179.3125 129.25 C180.11300781 130.12140625 180.91351562 130.9928125 181.73828125 131.890625 C183.89643289 134.19647101 183.89643289 134.19647101 187 135 C185.61318902 131.72208313 183.61805578 129.27670966 181.3046875 126.59375 C179.99745935 124.99689645 178.86950365 123.35737062 177.75 121.625 C177.1725 120.75875 176.595 119.8925 176 119 C175.67 119 175.34 119 175 119 Z M261 124 C261 124.99 261 125.98 261 127 C261.66 126.01 262.32 125.02 263 124 C262.34 124 261.68 124 261 124 Z M188 191 C188 195.95 188 200.9 188 206 C186.02 206.66 184.04 207.32 182 208 C179.99515224 209.16884106 179.99515224 209.16884106 179 211 C179.185625 211.804375 179.37125 212.60875 179.5625 213.4375 C179.706875 214.283125 179.85125 215.12875 180 216 C178.0625 218.3125 178.0625 218.3125 176 220 C176.99 220.33 177.98 220.66 179 221 C181.14684107 219.75183659 183.02588993 218.48722193 185 217 C185.65742187 216.505 186.31484375 216.01 186.9921875 215.5 C188.36513959 214.46380975 189.7349777 213.42347969 191.1015625 212.37890625 C193 211 193 211 195.9375 209.375 C198.17975249 208.17155027 198.17975249 208.17155027 198.8125 205.8125 C198.9053125 204.9153125 198.9053125 204.9153125 199 204 C197.68 204.33 196.36 204.66 195 205 C192.03957937 201.94706623 191.01114451 200.65752596 190.9375 196.3125 C190.958125 195.219375 190.97875 194.12625 191 193 C190.01 192.34 189.02 191.68 188 191 Z M169 217 C168.22140625 217.61746094 167.4428125 218.23492188 166.640625 218.87109375 C158.83453834 224.84716466 150.95840743 229.16253771 141.84277344 232.86694336 C136.85261116 234.9415772 133.52419619 236.87042042 130 241 C131.95510929 243.36553865 131.95510929 243.36553865 135.5625 243.4375 C142.12221123 243.27082857 147.39040219 239.52092001 152.1875 235.3125 C155.13236499 232.89116656 157.42524343 232.16568149 161 231 C162.35432675 229.68799596 163.68733482 228.35368596 165 227 C166.051875 226.505 167.10375 226.01 168.1875 225.5 C171.08380671 224.291531 171.08380671 224.291531 172.0625 222 C172.21499494 219.87591946 172.21499494 219.87591946 170.49609375 218.375 C170.00238281 217.92125 169.50867187 217.4675 169 217 Z " fill="#FFFFFF" transform="translate(1050,440)"/>
</svg>
