<?xml version="1.0" encoding="UTF-8"?>
<svg version="1.1" xmlns="http://www.w3.org/2000/svg" width="1357" height="850">
<path d="M0 0 C0.639375 0.2475 1.27875 0.495 1.9375 0.75 C2.2675 1.74 2.5975 2.73 2.9375 3.75 C1.23718842 7.08989775 -0.39327034 9.96126505 -2.8125 12.8125 C-4.54288406 15.4945953 -4.27518738 17.63058514 -4.0625 20.75 C0.7770009 22.72469589 4.33117551 22.7924397 9.5 22.25 C14.32678706 21.74447547 17.55792823 21.53079281 21.9375 23.75 C20.06569886 26.28243683 18.94203464 26.74900238 15.8125 27.4375 C11.50286624 27.78505111 7.25738651 27.83816095 2.9375 27.75 C4.9175 30.225 4.9175 30.225 6.9375 32.75 C6.2775 34.07 5.6175 35.39 4.9375 36.75 C2.2975 36.09 -0.3425 35.43 -3.0625 34.75 C-3.00449219 35.35328125 -2.94648437 35.9565625 -2.88671875 36.578125 C-2.74732408 39.04740203 -2.72013471 41.29849545 -3.0625 43.75 C-5.6625356 46.63892845 -8.15328689 48.38351127 -12.0625 48.75 C-12.82691406 48.55664062 -13.59132813 48.36328125 -14.37890625 48.1640625 C-17.49473571 47.68330861 -19.0771279 48.20891954 -22 49.3125 C-26.50588101 50.80110958 -28.61694073 50.56863788 -33.0625 48.75 C-35.06651011 49.05830925 -37.06761766 49.38729412 -39.0625 49.75 C-39.7225 49.09 -40.3825 48.43 -41.0625 47.75 C-43.64604218 47.58312552 -43.64604218 47.58312552 -46.0625 47.75 C-46.4028125 48.72453125 -46.4028125 48.72453125 -46.75 49.71875 C-47.183125 50.3890625 -47.61625 51.059375 -48.0625 51.75 C-50.66487614 52.27750868 -53.09867082 52.25042059 -55.75 52.28125 C-56.513125 52.4359375 -57.27625 52.590625 -58.0625 52.75 C-59.1870809 54.59753997 -59.1870809 54.59753997 -60.0625 56.75 C-61.90234375 58.41796875 -61.90234375 58.41796875 -64 59.9375 C-65.03447266 60.70126953 -65.03447266 60.70126953 -66.08984375 61.48046875 C-68.0625 62.75 -68.0625 62.75 -71.0625 63.75 C-71.660625 64.554375 -72.25875 65.35875 -72.875 66.1875 C-75.4784954 69.23730889 -77.2399755 69.73586085 -81.0625 70.75 C-81.92875 71.100625 -82.795 71.45125 -83.6875 71.8125 C-87.4090109 73.28151746 -90.00823264 73.75 -94.0625 73.75 C-94.3925 74.41 -94.7225 75.07 -95.0625 75.75 C-94.43601562 75.90855469 -93.80953125 76.06710937 -93.1640625 76.23046875 C-86.56274667 78.11507153 -86.56274667 78.11507153 -84.4375 80.8125 C-83.82289259 85.62692469 -83.43590851 91.40729905 -86.3046875 95.5390625 C-88.66337277 97.16393457 -90.15100189 97.08367102 -93 97 C-93.96679688 96.97421875 -94.93359375 96.9484375 -95.9296875 96.921875 C-100.17154503 96.68915464 -104.39925444 96.36476421 -108.62890625 95.96875 C-110.98726057 95.72015777 -110.98726057 95.72015777 -113.0625 95.75 C-113.000625 97.6990625 -113.000625 97.6990625 -112.9375 99.6875 C-112.92447502 103.84898088 -113.61113846 107.44773242 -114.6171875 111.46484375 C-115.35447828 115.24830961 -115.1845132 118.90658407 -115.0625 122.75 C-113.845625 123.03875 -112.62875 123.3275 -111.375 123.625 C-108.83905114 124.2488883 -106.61323358 124.93556656 -104.1875 125.9375 C-103.48625 126.205625 -102.785 126.47375 -102.0625 126.75 C-101.4025 126.42 -100.7425 126.09 -100.0625 125.75 C-98.64772711 125.62267044 -97.23048137 125.52190365 -95.8125 125.4375 C-90.33792529 124.8909241 -86.93005785 122.61755785 -83.0625 118.75 C-82.5801928 117.30586631 -82.14792198 115.84462596 -81.75 114.375 C-80.42117647 110.16479893 -78.96911934 108.05390371 -75.0625 105.75 C-74.4025 105.75 -73.7425 105.75 -73.0625 105.75 C-73.0625 105.09 -73.0625 104.43 -73.0625 103.75 C-71.4125 103.42 -69.7625 103.09 -68.0625 102.75 C-69.0525 101.43 -70.0425 100.11 -71.0625 98.75 C-67.68705259 96.04964208 -65.31170595 95.59844503 -61.125 95.75 C-56.60506297 95.89753504 -53.99145022 95.12564432 -50.0625 92.75 C-48.40339996 92.06471955 -46.73917436 91.39108137 -45.0625 90.75 C-41.27067844 94.28903346 -41.27067844 94.28903346 -40.1875 96.6875 C-38.98432583 98.89331932 -37.88289389 99.82504833 -35.9375 101.375 C-34.98875 102.15875 -34.04 102.9425 -33.0625 103.75 C-33.0625 104.41 -33.0625 105.07 -33.0625 105.75 C-32.010625 105.8325 -30.95875 105.915 -29.875 106 C-25.69787 106.82173049 -24.00145333 107.72707658 -21.0625 110.75 C-19.54401073 113.71466952 -19.0625 115.40761787 -19.0625 118.75 C-18.4025 118.09 -17.7425 117.43 -17.0625 116.75 C-17.38448966 113.65073181 -17.38448966 113.65073181 -18.0625 110.75 C-13.3125 109.75 -13.3125 109.75 -11.0625 109.75 C-11.78695313 109.37488281 -12.51140625 108.99976563 -13.2578125 108.61328125 C-21.87868243 104.04996743 -29.54165421 99.03126869 -35.0625 90.75 C-34.875 88.625 -34.875 88.625 -34.0625 86.75 C-32.5775 86.255 -32.5775 86.255 -31.0625 85.75 C-30.876875 86.36875 -30.69125 86.9875 -30.5 87.625 C-28.36379676 90.78286566 -25.65545723 90.80448494 -22.0625 91.75 C-20.125 93.25 -20.125 93.25 -19.0625 94.75 C-19.0625 95.41 -19.0625 96.07 -19.0625 96.75 C-18.45921875 96.82476562 -17.8559375 96.89953125 -17.234375 96.9765625 C-13.02027776 97.66984947 -10.67101194 98.12588518 -7.625 101.25 C-5.65317945 105.66687803 -4.77817363 109.9851203 -4.0625 114.75 C-1.0925 115.41 1.8775 116.07 4.9375 116.75 C4.9375 117.74 4.9375 118.73 4.9375 119.75 C3.4525 120.245 3.4525 120.245 1.9375 120.75 C2.5975 122.4 3.2575 124.05 3.9375 125.75 C4.9275 125.75 5.9175 125.75 6.9375 125.75 C8.38097732 123.74418294 8.38097732 123.74418294 8.9375 120.75 C7.91174804 117.58814601 6.48577524 114.68660469 4.9375 111.75 C7.16406346 109.52343654 7.97259172 109.42769332 10.9375 108.75 C11.741875 108.37875 12.54625 108.0075 13.375 107.625 C15.9375 106.75 15.9375 106.75 18.3125 107.25 C21.90985216 107.93520994 24.51320106 106.89143298 27.9375 105.75 C26.9475 105.09 25.9575 104.43 24.9375 103.75 C25.51874163 95.61261721 28.05222423 88.63527577 33.9375 82.75 C37.1875 81.4375 37.1875 81.4375 39.9375 80.75 C40.2675 81.74 40.5975 82.73 40.9375 83.75 C48.4637362 83.49047461 54.26571175 81.08069698 60.99609375 77.9296875 C61.96675781 77.54039062 62.93742188 77.15109375 63.9375 76.75 C64.5975 77.08 65.2575 77.41 65.9375 77.75 C65.2259375 78.61625 65.2259375 78.61625 64.5 79.5 C62.9890133 81.67582084 62.39713849 83.17602448 61.9375 85.75 C60.6175 85.75 59.2975 85.75 57.9375 85.75 C61.95720357 90.48750777 66.75786222 93.06822549 72.1953125 96.00390625 C74.88589641 97.7171413 76.37646706 98.98774667 77.9375 101.75 C77.4375 104.375 77.4375 104.375 75.9375 106.75 C72.12881327 109.28912448 68.49156296 108.8366289 64.14453125 108.23828125 C61.12475625 107.57018944 58.64106812 106.22467352 55.9375 104.75 C51.92197596 103.6174163 48.09600139 103.45296419 43.9375 103.75 C43.133125 104.245 42.32875 104.74 41.5 105.25 C37.84299752 107.39068438 35.13217761 106.96328869 30.9375 106.75 C30.751875 107.389375 30.56625 108.02875 30.375 108.6875 C28.9375 110.75 28.9375 110.75 25.4375 111.5 C23.60693757 111.63075446 21.7727263 111.75 19.9375 111.75 C19.9375 112.41 19.9375 113.07 19.9375 113.75 C20.57171875 113.98460937 21.2059375 114.21921875 21.859375 114.4609375 C23.9375 115.75 23.9375 115.75 24.765625 117.9140625 C24.90484375 118.72617187 25.0440625 119.53828125 25.1875 120.375 C25.33703125 121.19226563 25.4865625 122.00953125 25.640625 122.8515625 C25.78757812 123.79128906 25.78757812 123.79128906 25.9375 124.75 C27.58182706 125.11109542 29.2280208 125.46370076 30.875 125.8125 C31.79152344 126.00972656 32.70804688 126.20695312 33.65234375 126.41015625 C34.40644531 126.52230469 35.16054688 126.63445312 35.9375 126.75 C36.2675 126.42 36.5975 126.09 36.9375 125.75 C43.6575 126.47 43.6575 126.47 44.9375 127.75 C47.27773315 127.46917202 49.61055036 127.12531446 51.9375 126.75 C54.27083333 126.41666667 56.60416667 126.08333333 58.9375 125.75 C59.5975 127.07 60.2575 128.39 60.9375 129.75 C60.2775 129.75 59.6175 129.75 58.9375 129.75 C59.123125 130.595625 59.30875 131.44125 59.5 132.3125 C59.97279632 136.0273282 59.59814631 139.07974273 58.9375 142.75 C58.2775 142.75 57.6175 142.75 56.9375 142.75 C56.6075 145.39 56.2775 148.03 55.9375 150.75 C55.2775 150.75 54.6175 150.75 53.9375 150.75 C53.6075 151.41 53.2775 152.07 52.9375 152.75 C52.08027344 152.66621094 51.22304688 152.58242188 50.33984375 152.49609375 C49.19644531 152.39425781 48.05304687 152.29242188 46.875 152.1875 C45.74964844 152.08308594 44.62429688 151.97867188 43.46484375 151.87109375 C39.93760177 151.63848172 39.93760177 151.63848172 36.4921875 152.29296875 C32.4947684 152.80692263 29.03513337 152.40039532 25.125 151.625 C24.42576416 151.49246826 23.72652832 151.35993652 23.00610352 151.22338867 C17.8679642 150.15899628 13.64309169 148.34429801 9.06640625 145.7578125 C5.85880472 144.23935159 3.42264288 144.37118012 -0.0625 144.75 C-0.145 145.8225 -0.2275 146.895 -0.3125 148 C-1.11726902 152.0238451 -1.93979874 153.23169253 -5.0625 155.75 C-8.4043134 154.77665629 -11.73445179 153.76931032 -15.0625 152.75 C-16.0525 152.46125 -17.0425 152.1725 -18.0625 151.875 C-20.0625 150.75 -20.0625 150.75 -20.76171875 148.2734375 C-21.40560547 147.02433594 -21.40560547 147.02433594 -22.0625 145.75 C-25.21057897 144.66884763 -25.21057897 144.66884763 -28.875 144.25 C-34.57545021 143.43307563 -37.47050695 142.38305054 -41.0625 137.75 C-40.8125 134.25 -40.8125 134.25 -40.0625 130.75 C-40.42224895 127.93762459 -40.42224895 127.93762459 -41.0625 125.75 C-42.82009218 125.03739925 -42.82009218 125.03739925 -45.0625 124.75 C-45.73539063 125.07355469 -46.40828125 125.39710938 -47.1015625 125.73046875 C-51.34813926 127.19268054 -55.30067247 126.83005925 -59.75 126.6875 C-69.55402658 126.54417656 -76.48217508 127.77736051 -85.125 132.5 C-90.09185556 135.1005706 -93.6989036 135.18592344 -99.0625 133.75 C-102.125 132.6875 -102.125 132.6875 -104.0625 131.75 C-104.7225 132.801875 -105.3825 133.85375 -106.0625 134.9375 C-108.13814551 137.89677746 -110.0309971 139.50868198 -113.1875 141.25 C-117.39850606 143.67212003 -118.60437759 146.05160556 -120.0625 150.75 C-120.43375 152.5134375 -120.43375 152.5134375 -120.8125 154.3125 C-122.82020344 159.83368447 -126.77120053 162.67747685 -132 165.125 C-132.680625 165.33125 -133.36125 165.5375 -134.0625 165.75 C-134.0625 166.41 -134.0625 167.07 -134.0625 167.75 C-134.7225 167.75 -135.3825 167.75 -136.0625 167.75 C-136.31257813 168.26820313 -136.56265625 168.78640625 -136.8203125 169.3203125 C-138.43329521 172.4752661 -140.18064106 175.54886409 -141.9375 178.625 C-142.27652344 179.22441406 -142.61554688 179.82382812 -142.96484375 180.44140625 C-144.64121911 183.37984367 -146.36441833 186.19538306 -148.265625 189 C-150.26979176 192.06724652 -150.9039242 194.10275661 -151.0625 197.75 C-150.5984375 198.66845703 -150.5984375 198.66845703 -150.125 199.60546875 C-147.75609171 204.38683144 -147.30865437 210.27782978 -148.859375 215.36328125 C-149.84601169 217.5474661 -150.92837537 219.64000069 -152.0625 221.75 C-153.46475034 224.80781208 -153.46475034 224.80781208 -151.625 227.8125 C-151.109375 228.781875 -150.59375 229.75125 -150.0625 230.75 C-150.0625 231.41 -150.0625 232.07 -150.0625 232.75 C-151.0525 232.75 -152.0425 232.75 -153.0625 232.75 C-152.10384491 235.08075929 -152.10384491 235.08075929 -149.0625 236.75 C-149.3925 237.08 -149.7225 237.41 -150.0625 237.75 C-148.93714844 238.34554687 -148.93714844 238.34554687 -147.7890625 238.953125 C-142.36717887 242.52628613 -138.72934169 248.72171708 -136.3125 254.6875 C-135.15092436 257.53336031 -134.27444723 258.74871441 -132.0625 260.75 C-132.0625 261.41 -132.0625 262.07 -132.0625 262.75 C-131.2271875 263.12125 -131.2271875 263.12125 -130.375 263.5 C-128.0625 264.75 -128.0625 264.75 -125.9375 266.75 C-121.84703303 269.59554224 -118.03290638 270.56591087 -113.0625 270.75 C-110.22332467 270.1433386 -107.54058658 269.30535967 -104.78125 268.40625 C-101.88298719 267.70666932 -99.98286272 267.83193398 -97.0625 268.3125 C-91.02886897 269.20036026 -86.56898632 267.01691531 -81.0625 264.75 C-79.28048964 264.1179194 -77.48886084 263.51211807 -75.6875 262.9375 C-74.91664063 262.68355469 -74.14578125 262.42960937 -73.3515625 262.16796875 C-69.59555348 261.48214458 -66.76158503 262.44812237 -63.3125 263.9375 C-61.0625 265.75 -61.0625 265.75 -60.25 268.9375 C-60.188125 269.865625 -60.12625 270.79375 -60.0625 271.75 C-59.06669922 271.58951172 -59.06669922 271.58951172 -58.05078125 271.42578125 C-50.77243915 270.43762677 -50.77243915 270.43762677 -46.9375 272.125 C-46.31875 272.66125 -45.7 273.1975 -45.0625 273.75 C-45.0625 274.08 -45.0625 274.41 -45.0625 274.75 C-64.3512096 274.82896551 -83.63562786 274.6002162 -102.92265606 274.37907338 C-106.65622086 274.33640748 -110.38979421 274.29451592 -114.12336755 274.25260442 C-122.99273994 274.15302003 -131.86209703 274.0521469 -140.73144531 273.95043945 C-148.72101306 273.85883984 -156.71059537 273.76867782 -164.70019531 273.67993164 C-168.62565145 273.63626717 -172.5511072 273.59256821 -176.4765625 273.54882812 C-177.44321555 273.53805953 -178.4098686 273.52729093 -179.40581417 273.51619601 C-189.95523368 273.39837425 -200.50458658 273.27668024 -211.05383301 273.14419556 C-211.97947382 273.13257704 -212.90511464 273.12095852 -213.85880518 273.10898793 C-217.52890545 273.06281817 -221.19900418 273.01653987 -224.8690958 272.9696877 C-234.86327906 272.84233462 -244.85724692 272.72825448 -254.85196757 272.65292007 C-261.10864189 272.60562487 -267.36501761 272.54166973 -273.62146759 272.47082329 C-276.10376394 272.44630461 -278.58613881 272.4286295 -281.06853485 272.41832161 C-284.3993383 272.40393908 -287.72904708 272.36601004 -291.05957031 272.32202148 C-292.01554863 272.32416845 -292.97152695 272.32631542 -293.9564743 272.32852745 C-299.40161572 272.22669743 -301.97318158 271.62724803 -306.0625 267.75 C-308.80205701 267.26394956 -311.30986455 266.92860612 -314.0625 266.75 C-319.54575053 266.27730599 -322.77416701 265.27596268 -327.0625 261.75 C-328.0215625 260.2959375 -328.0215625 260.2959375 -329 258.8125 C-333.15486789 252.64315071 -340.035676 248.94970143 -347.0625 246.75 C-348.99850916 246.71877405 -350.93792308 246.68752393 -352.87109375 246.796875 C-357.35430068 246.70097753 -361.94830497 245.50702881 -366.0625 243.75 C-366.3925 242.76 -366.7225 241.77 -367.0625 240.75 C-371.96145217 239.56503452 -371.96145217 239.56503452 -376.5 241.1875 C-377.015625 241.703125 -377.53125 242.21875 -378.0625 242.75 C-377.815 243.4925 -377.5675 244.235 -377.3125 245 C-377.23 245.9075 -377.1475 246.815 -377.0625 247.75 C-379 250.0625 -379 250.0625 -381.0625 251.75 C-382.00852608 248.6648254 -382.07828237 246.25740993 -381.6875 243.0625 C-381.59726562 242.27488281 -381.50703125 241.48726562 -381.4140625 240.67578125 C-381.0625 238.75 -381.0625 238.75 -380.0625 237.75 C-382.42965956 238.15813096 -383.75022885 238.42353471 -385.4375 240.1875 C-387.67304663 242.33706407 -390.14585854 242.77778618 -393.0625 243.75 C-395.35789079 245.51568522 -396.42800343 247.32773124 -398 249.8125 C-399.9637628 252.60937429 -400.92374613 253.62901647 -404.0625 254.75 C-404.701875 254.069375 -405.34125 253.38875 -406 252.6875 C-410.26336758 249.99026745 -413.28423767 250.74989858 -418.0625 251.75 C-418.75085938 251.96527344 -419.43921875 252.18054688 -420.1484375 252.40234375 C-422.0625 252.75 -422.0625 252.75 -425.125 251.125 C-428.09326451 248.72512656 -429.4256445 247.15151354 -431.0625 243.75 C-431.171875 241.0234375 -431.171875 241.0234375 -430.8125 238.125 C-430.69519531 237.08601562 -430.57789063 236.04703125 -430.45703125 234.9765625 C-430.32683594 233.91179687 -430.19664062 232.84703125 -430.0625 231.75 C-429.86834777 229.66727608 -429.68039452 227.58396061 -429.5 225.5 C-429.35463353 223.91662374 -429.20898394 222.33327327 -429.0625 220.75 C-435.49505401 220.62913782 -441.68023055 220.92648136 -448.0625 221.75 C-449.04125855 219.15058704 -449.12985909 217.95712664 -448.25805664 215.27636719 C-447.62178345 213.92526855 -447.62178345 213.92526855 -446.97265625 212.546875 C-446.51826172 211.5671875 -446.06386719 210.5875 -445.59570312 209.578125 C-445.11037109 208.56234375 -444.62503906 207.5465625 -444.125 206.5 C-443.64353516 205.46875 -443.16207031 204.4375 -442.66601562 203.375 C-441.47517647 200.82825488 -440.27373116 198.28709387 -439.0625 195.75 C-443.53976307 195.7074101 -447.66167251 195.89130195 -452.0625 196.75 C-452.289375 197.8225 -452.51625 198.895 -452.75 200 C-454.2482851 204.28081458 -455.19497174 205.47992906 -459.0625 207.75 C-463.81784475 209.55408955 -468.13050689 210.3939977 -473.0625 208.75 C-477.74932742 205.15313245 -479.52738386 201.26812018 -481.0625 195.75 C-481.3925 194.574375 -481.7225 193.39875 -482.0625 192.1875 C-482.63114568 186.66507557 -480.26057005 181.40215759 -478.359375 176.3125 C-477.05162725 172.96648393 -477.05162725 172.96648393 -476.515625 170.25 C-475.62797862 166.33211252 -474.54652257 165.07354105 -471.12890625 162.7890625 C-467.81954202 160.98127156 -464.48512801 159.33098922 -461.0625 157.75 C-460.33289063 157.35167969 -459.60328125 156.95335937 -458.8515625 156.54296875 C-453.52274549 154.18106951 -446.24327443 157.88210174 -441.0625 159.75 C-440.7221875 158.574375 -440.7221875 158.574375 -440.375 157.375 C-439.0625 154.75 -439.0625 154.75 -436.75 153.375 C-432.827936 152.46289209 -430.26668009 153.22510099 -426.625 154.8125 C-424.03714691 155.94406229 -424.03714691 155.94406229 -421 155.625 C-418.0625 155.75 -418.0625 155.75 -415.6875 157.1875 C-413.60965716 160.46409833 -413.86618012 162.56647043 -414.0546875 166.35546875 C-414.06672344 170.04448441 -413.08923359 173.22060329 -412.0625 176.75 C-411.0725 176.75 -410.0825 176.75 -409.0625 176.75 C-407.24869134 173.67304222 -406.87647694 171.76473979 -407.26171875 168.23046875 C-407.33583984 167.37259766 -407.40996094 166.51472656 -407.48632812 165.63085938 C-407.66108873 163.84571214 -407.84844945 162.06175033 -408.04882812 160.27929688 C-408.49588082 154.79572396 -408.15129818 151.49523964 -404.55297852 147.21362305 C-402.27975506 144.98135857 -399.88066774 143.25884591 -397.1875 141.5625 C-396.13949219 140.89476562 -395.09148437 140.22703125 -394.01171875 139.5390625 C-391.69255472 138.13220538 -389.36759523 136.76012249 -387 135.4375 C-383.59335837 133.55212722 -383.59335837 133.55212722 -381.0625 130.75 C-380.37756627 127.89221967 -380.37756627 127.89221967 -380.0625 124.75 C-379.72916667 122.75 -379.39583333 120.75 -379.0625 118.75 C-378.0725 118.75 -377.0825 118.75 -376.0625 118.75 C-375.464375 117.986875 -374.86625 117.22375 -374.25 116.4375 C-371.75487473 113.37206038 -369.57618462 112.47098838 -366.0625 110.75 C-365.340625 109.945625 -364.61875 109.14125 -363.875 108.3125 C-359.81577634 104.61409622 -353.68535287 101.75 -348.0625 101.75 C-348.09472656 100.85925781 -348.12695312 99.96851563 -348.16015625 99.05078125 C-346.87996889 95.20110751 -346.34067579 94.98784539 -342.87109375 93.23046875 C-341.09114763 92.44218791 -339.30005992 91.67870114 -337.5 90.9375 C-336.61763672 90.54369141 -335.73527344 90.14988281 -334.82617188 89.74414062 C-329.51291249 87.4546874 -324.83388266 86.16079853 -319.0625 85.75 C-319.0625 86.74 -319.0625 87.73 -319.0625 88.75 C-323.0225 90.73 -323.0225 90.73 -327.0625 92.75 C-326.4025 93.08 -325.7425 93.41 -325.0625 93.75 C-323.15479572 92.81288211 -321.25029256 91.86804451 -319.37109375 90.875 C-315.73445882 89.10283272 -311.92453433 87.93006605 -308.0625 86.75 C-309.22843462 85.3758337 -309.22843462 85.3758337 -312.4375 85.375 C-316.0625 84.75 -316.0625 84.75 -317.9375 83.4375 C-319.19329812 81.55380283 -319.67954951 79.97111286 -320.0625 77.75 C-319.423125 77.5025 -318.78375 77.255 -318.125 77 C-315.87508459 75.93437567 -315.87508459 75.93437567 -315.3125 73.625 C-315.23 73.00625 -315.1475 72.3875 -315.0625 71.75 C-322.1816234 70.9410087 -327.68366486 73.81720223 -334.0625 76.75 C-334.0625 75.43 -334.0625 74.11 -334.0625 72.75 C-331.64785319 71.59973914 -329.23096682 70.45467795 -326.8125 69.3125 C-326.13058594 68.98701172 -325.44867188 68.66152344 -324.74609375 68.32617188 C-324.08222656 68.01357422 -323.41835938 67.70097656 -322.734375 67.37890625 C-322.1269043 67.09088135 -321.51943359 66.80285645 -320.89355469 66.50610352 C-316.49228011 64.68867053 -312.74831857 64.72768919 -308 64.875 C-297.85010404 65.00649762 -289.93092292 62.55063259 -281.05859375 57.73828125 C-279.0625 56.75 -279.0625 56.75 -277.0625 56.75 C-276.38291397 54.35280568 -276.38291397 54.35280568 -276.0625 51.75 C-277.9316366 49.44113681 -277.9316366 49.44113681 -280.9375 49.5625 C-283.49501599 49.71595096 -285.62896404 50.0012197 -288.0625 50.75 C-288.0625 47.75 -288.0625 47.75 -286.0625 45.75 C-286.51302734 44.95335937 -286.51302734 44.95335937 -286.97265625 44.140625 C-287.54306641 43.08101562 -287.54306641 43.08101562 -288.125 42 C-288.50785156 41.30390625 -288.89070312 40.6078125 -289.28515625 39.890625 C-290.21923957 37.31837545 -289.77788238 36.33332527 -289.0625 33.75 C-289.36454021 31.36954581 -289.36454021 31.36954581 -290 29 C-290.29197266 27.80117187 -290.29197266 27.80117187 -290.58984375 26.578125 C-290.74582031 25.97484375 -290.90179688 25.3715625 -291.0625 24.75 C-291.82175781 25.24371094 -292.58101562 25.73742187 -293.36328125 26.24609375 C-294.35714844 26.88675781 -295.35101563 27.52742188 -296.375 28.1875 C-297.36113281 28.82558594 -298.34726562 29.46367187 -299.36328125 30.12109375 C-302.0625 31.75 -302.0625 31.75 -305.0625 32.75 C-307.125 31.3125 -307.125 31.3125 -309.0625 28.75 C-309.12073431 25.67416977 -308.65472907 22.76264352 -308.0625 19.75 C-308.7225 19.42 -309.3825 19.09 -310.0625 18.75 C-296.38803522 17.66920685 -282.7215663 17.26420823 -269.01147461 16.97265625 C-266.16099218 16.91055941 -263.31144167 16.83396717 -260.46166992 16.74511719 C-256.9769025 16.6366292 -253.49238129 16.55385742 -250.0065403 16.48885727 C-248.06256219 16.44642236 -246.11918751 16.37871506 -244.1759491 16.31033325 C-237.28627021 16.21137155 -232.61746762 16.71186317 -226.86433411 20.66085815 C-224.94078374 22.02902461 -224.94078374 22.02902461 -221.75 21.8125 C-218.96130021 20.95914732 -218.96130021 20.95914732 -217.37910461 18.72044373 C-214.18595727 16.00443551 -211.31681201 16.15735348 -207.30932617 16.16040039 C-206.53001802 16.14537664 -205.75070988 16.1303529 -204.94778633 16.11487389 C-202.35442541 16.06959455 -199.76165612 16.05235986 -197.16796875 16.03515625 C-195.32746417 16.00877838 -193.48698363 15.98067343 -191.64653015 15.95094299 C-186.76868713 15.87682271 -181.89086652 15.8262938 -177.01268768 15.78037262 C-172.25515241 15.73139309 -167.49798354 15.65955915 -162.74072266 15.58935547 C-152.25250447 15.43904387 -141.76406411 15.32498895 -131.27532959 15.21777344 C-127.38445612 15.17716077 -123.4936228 15.13323295 -119.60278511 15.08934593 C-97.7552555 14.84408375 -75.91151387 14.67602923 -54.0625 14.75 C-54.55830566 15.35827637 -55.05411133 15.96655273 -55.56494141 16.59326172 C-57.30773319 18.65580132 -57.30773319 18.65580132 -57.0234375 21.2578125 C-56.83007812 22.12148437 -56.63671875 22.98515625 -56.4375 23.875 C-56.25960938 24.74382812 -56.08171875 25.61265625 -55.8984375 26.5078125 C-55.18441854 29.09183787 -55.18441854 29.09183787 -52.0625 30.75 C-47.707835 30.42743222 -44.03287118 29.55471417 -40.0625 27.75 C-37.19372712 30.92891049 -34.99804812 33.53441505 -33.5 37.5625 C-32.41240362 40.78237838 -32.41240362 40.78237838 -30.1875 41.875 C-26.90214671 41.68174392 -25.59642793 40.90383874 -23.0625 38.75 C-21.95749523 36.4604636 -21.03956162 34.12945185 -20.10546875 31.765625 C-19.0625 29.75 -19.0625 29.75 -16.375 28.4375 C-15.2303125 28.0971875 -15.2303125 28.0971875 -14.0625 27.75 C-13.17556697 25.70894361 -13.17556697 25.70894361 -13.0625 23.75 C-14.238125 23.4096875 -14.238125 23.4096875 -15.4375 23.0625 C-18.0625 21.75 -18.0625 21.75 -19.5625 19.4375 C-20.0625 16.75 -20.0625 16.75 -19.1875 14.25 C-16.75335321 11.38629789 -14.28380677 9.94730998 -11.0625 8.08203125 C-8.06489676 6.08558065 -6.25518077 3.58758687 -4.0625 0.75 C-2.0625 -0.25 -2.0625 -0.25 0 0 Z M-1.0625 28.75 C-1.3925 29.74 -1.7225 30.73 -2.0625 31.75 C-1.0725 31.42 -0.0825 31.09 0.9375 30.75 C0.2775 30.09 -0.3825 29.43 -1.0625 28.75 Z M-91.0625 32.75 C-93.5617935 34.9232987 -94.67226535 36.43300548 -95.0625 39.75 C-94.67682869 42.43149993 -94.67682869 42.43149993 -94.0625 44.75 C-92.4125 45.08 -90.7625 45.41 -89.0625 45.75 C-88.7325 47.73 -88.4025 49.71 -88.0625 51.75 C-89.7125 52.41 -91.3625 53.07 -93.0625 53.75 C-93.0625 54.74 -93.0625 55.73 -93.0625 56.75 C-93.7225 57.41 -94.3825 58.07 -95.0625 58.75 C-93.0825 59.41 -91.1025 60.07 -89.0625 60.75 C-91.72809313 62.52706209 -94.0905615 63.62548273 -97.0625 64.75 C-93.93530954 65.79239682 -92.76991726 65.72104316 -89.61328125 65.19140625 C-88.76572266 65.05283203 -87.91816406 64.91425781 -87.04492188 64.77148438 C-86.16384766 64.62001953 -85.28277344 64.46855469 -84.375 64.3125 C-83.03598633 64.09110352 -83.03598633 64.09110352 -81.66992188 63.86523438 C-79.46628863 63.49992619 -77.263994 63.12795112 -75.0625 62.75 C-75.3925 61.76 -75.7225 60.77 -76.0625 59.75 C-74.7425 58.43 -73.4225 57.11 -72.0625 55.75 C-72.83335937 55.68554688 -73.60421875 55.62109375 -74.3984375 55.5546875 C-77.0625 54.75 -77.0625 54.75 -78.5390625 52.5703125 C-78.91804688 51.68085938 -79.29703125 50.79140625 -79.6875 49.875 C-81.81096287 44.98675998 -83.62903219 42.70564521 -88.0625 39.75 C-87.0725 38.43 -86.0825 37.11 -85.0625 35.75 C-85.68125 35.440625 -86.3 35.13125 -86.9375 34.8125 C-88.3125 34.125 -89.6875 33.4375 -91.0625 32.75 Z M-46.25 37.3125 C-48.4699426 39.74751925 -48.4699426 39.74751925 -47.8125 43.5 C-47.565 44.5725 -47.3175 45.645 -47.0625 46.75 C-45.4125 46.42 -43.7625 46.09 -42.0625 45.75 C-42.0625 42.45 -42.0625 39.15 -42.0625 35.75 C-44.23929328 35.55625394 -44.23929328 35.55625394 -46.25 37.3125 Z M-110.0625 47.75 C-111.0525 48.245 -111.0525 48.245 -112.0625 48.75 C-111.85625 49.28625 -111.65 49.8225 -111.4375 50.375 C-110.93380088 53.56509443 -112.01478711 55.73782543 -113.0625 58.75 C-112.7325 59.41 -112.4025 60.07 -112.0625 60.75 C-110.43683394 60.27309796 -108.81198689 59.79340334 -107.1875 59.3125 C-106.28257812 59.04566406 -105.37765625 58.77882813 -104.4453125 58.50390625 C-102.07974619 57.82386174 -102.07974619 57.82386174 -100.0625 56.75 C-98.79488238 52.45418473 -98.0625 49.24055702 -98.0625 44.75 C-103.11733038 44.45265704 -105.9244391 44.79424221 -110.0625 47.75 Z M-284.375 65 C-285.261875 65.9075 -286.14875 66.815 -287.0625 67.75 C-287.908125 68.41 -288.75375 69.07 -289.625 69.75 C-292.19008972 71.854689 -294.07670997 74.10227996 -296.0625 76.75 C-288.26729924 78.10568709 -280.51673977 78.88862727 -273.0625 75.75 C-273.62326801 73.25995496 -273.62326801 73.25995496 -275.0625 70.75 C-277.04138961 70.02306096 -279.04204558 69.35183749 -281.0625 68.75 C-281.3925 67.76 -281.7225 66.77 -282.0625 65.75 C-281.4025 64.76 -280.7425 63.77 -280.0625 62.75 C-282.36133759 62.51754835 -282.36133759 62.51754835 -284.375 65 Z M45.9375 84.75 C44.1020201 86.08378575 44.1020201 86.08378575 42.9375 87.75 C43.5975 87.75 44.2575 87.75 44.9375 87.75 C44.9375 89.07 44.9375 90.39 44.9375 91.75 C45.80375 91.46125 46.67 91.1725 47.5625 90.875 C50.6875 89.83333333 53.8125 88.79166667 56.9375 87.75 C56.9375 87.09 56.9375 86.43 56.9375 85.75 C56.050625 85.770625 55.16375 85.79125 54.25 85.8125 C50.9375 85.75 50.9375 85.75 48.25 85.0625 C47.486875 84.959375 46.72375 84.85625 45.9375 84.75 Z M-47.0625 99.75 C-46.7325 101.07 -46.4025 102.39 -46.0625 103.75 C-45.4025 103.75 -44.7425 103.75 -44.0625 103.75 C-44.0625 102.1 -44.0625 100.45 -44.0625 98.75 C-45.2861068 98.6754644 -45.2861068 98.6754644 -47.0625 99.75 Z M-47.0625 106.75 C-48.29646041 108.4642289 -48.29646041 108.4642289 -49.0625 110.75 C-48.27547649 113.4693293 -48.27547649 113.4693293 -47.0625 115.75 C-46.0725 115.42 -45.0825 115.09 -44.0625 114.75 C-44.0625 112.44 -44.0625 110.13 -44.0625 107.75 C-45.0525 107.42 -46.0425 107.09 -47.0625 106.75 Z M-71.0625 111.75 C-71.3925 112.74 -71.7225 113.73 -72.0625 114.75 C-70.7425 114.42 -69.4225 114.09 -68.0625 113.75 C-68.0625 113.09 -68.0625 112.43 -68.0625 111.75 C-69.0525 111.75 -70.0425 111.75 -71.0625 111.75 Z M-32.0625 121.75 C-27.6075 123.73 -27.6075 123.73 -23.0625 125.75 C-22.7325 124.1 -22.4025 122.45 -22.0625 120.75 C-27.34449593 119.55011955 -27.34449593 119.55011955 -32.0625 121.75 Z M45.9375 132.75 C46.2675 133.74 46.5975 134.73 46.9375 135.75 C49.43302484 134.96869929 49.43302484 134.96869929 51.9375 133.75 C52.2675 132.76 52.5975 131.77 52.9375 130.75 C50.2909665 130.75 48.3566837 131.73139634 45.9375 132.75 Z M9.9375 131.75 C12.33513185 134.14763185 13.27023498 134.09280586 16.5625 134.375 C17.78839844 134.48714844 17.78839844 134.48714844 19.0390625 134.6015625 C19.66554688 134.65054688 20.29203125 134.69953125 20.9375 134.75 C21.2675 134.09 21.5975 133.43 21.9375 132.75 C19.05538698 131.78929566 17.23899956 131.64418117 14.25 131.6875 C13.44175781 131.69652344 12.63351562 131.70554687 11.80078125 131.71484375 C11.18589844 131.72644531 10.57101562 131.73804688 9.9375 131.75 Z M-396.0625 169.75 C-395.4025 171.07 -394.7425 172.39 -394.0625 173.75 C-394.3925 172.43 -394.7225 171.11 -395.0625 169.75 C-395.3925 169.75 -395.7225 169.75 -396.0625 169.75 Z M-428.0625 190.75 C-428.0625 191.41 -428.0625 192.07 -428.0625 192.75 C-427.0725 192.399375 -426.0825 192.04875 -425.0625 191.6875 C-417.57570582 189.61700381 -411.85780006 191.94148401 -405.2421875 195.41015625 C-403.0625 196.75 -403.0625 196.75 -400.9375 199 C-398.06800025 201.67819976 -394.90398133 201.85233454 -391.0625 201.75 C-388.6387741 200.96214647 -388.6387741 200.96214647 -387.0625 199.75 C-390.72304516 196.6995457 -394.80656638 194.81255011 -399.0625 192.75 C-401.14327186 191.69663243 -403.22243493 190.64017512 -405.30078125 189.58203125 C-412.4326795 186.21375115 -421.47450025 186.35800017 -428.0625 190.75 Z M-383.0625 202.75 C-382.7325 204.07 -382.4025 205.39 -382.0625 206.75 C-386.5175 207.245 -386.5175 207.245 -391.0625 207.75 C-387.98156662 209.80395559 -387.49506308 209.97502666 -384.0625 209.8125 C-381.23582281 209.68936823 -379.83897019 209.82450994 -377.0625 210.75 C-374.06851038 210.21385749 -374.06851038 210.21385749 -370.875 209.3125 C-369.24498047 208.88130859 -369.24498047 208.88130859 -367.58203125 208.44140625 C-366.75058594 208.21324219 -365.91914063 207.98507812 -365.0625 207.75 C-368.17984325 204.41766756 -370.05405931 202.82266428 -374.76171875 202.65234375 C-375.74785156 202.66394531 -376.73398437 202.67554688 -377.75 202.6875 C-378.74386719 202.69652344 -379.73773438 202.70554687 -380.76171875 202.71484375 C-381.52097656 202.72644531 -382.28023437 202.73804688 -383.0625 202.75 Z M-404.0625 208.75 C-403.4025 209.41 -402.7425 210.07 -402.0625 210.75 C-399.95429203 210.4314823 -399.95429203 210.4314823 -398.0625 209.75 C-399.12895115 208.45366379 -399.12895115 208.45366379 -401.625 208.6875 C-402.429375 208.708125 -403.23375 208.72875 -404.0625 208.75 Z M-359.0625 208.75 C-357.0825 209.74 -357.0825 209.74 -355.0625 210.75 C-354.4025 210.09 -353.7425 209.43 -353.0625 208.75 C-355.0425 208.75 -357.0225 208.75 -359.0625 208.75 Z M-176.0625 221.75 C-176.0625 222.41 -176.0625 223.07 -176.0625 223.75 C-175.4025 223.42 -174.7425 223.09 -174.0625 222.75 C-174.7225 222.42 -175.3825 222.09 -176.0625 221.75 Z M-341.0625 243.75 C-340.0725 245.235 -340.0725 245.235 -339.0625 246.75 C-338.4025 246.42 -337.7425 246.09 -337.0625 245.75 C-337.0625 245.09 -337.0625 244.43 -337.0625 243.75 C-338.3825 243.75 -339.7025 243.75 -341.0625 243.75 Z " fill="#FFFFFF" transform="translate(640.0625,180.25)"/>
</svg>
