<?xml version="1.0" encoding="UTF-8"?>
<svg version="1.1" xmlns="http://www.w3.org/2000/svg" width="1357" height="850">
<path d="M0 0 C447.81 0 895.62 0 1357 0 C1357 280.5 1357 561 1357 850 C909.19 850 461.38 850 0 850 C0 569.5 0 289 0 0 Z " fill="#FEFEFE" transform="translate(0,0)"/>
<path d="M0 0 C3.4375 0.5 3.4375 0.5 5.65625 2.02734375 C9.27342657 3.94261842 12.40269964 3.75797996 16.375 3.5625 C22.96092801 3.27348168 27.84448596 3.77132397 33.4375 7.5 C33.4375 8.16 33.4375 8.82 33.4375 9.5 C30.4675 11.15 27.4975 12.8 24.4375 14.5 C27.86564329 15.64271443 29.05764114 15.26465673 32.5 14.4375 C37.56362213 13.42076213 41.20527743 13.81498677 46.1640625 15.05859375 C49.36801509 15.68066702 52.23026947 14.97514526 55.4375 14.5 C57.36328125 14.90625 57.36328125 14.90625 59.375 15.5 C62.8457582 16.49353765 65.50971375 16.38306348 69.10546875 15.80859375 C77.79329646 14.65894821 84.99786225 14.70319045 92.4375 19.5 C93.99135098 20.45176659 95.55414203 21.38907282 97.125 22.3125 C97.83011719 22.75207031 98.53523438 23.19164062 99.26171875 23.64453125 C102.050605 24.74105924 103.59130004 24.30063836 106.4375 23.5 C110.24503022 22.63465222 113.23957255 22.54842734 117.0625 23.125 C120.67732381 23.63196744 120.67732381 23.63196744 124 22.0625 C124.7115625 21.2890625 124.7115625 21.2890625 125.4375 20.5 C125.1075 19.84 124.7775 19.18 124.4375 18.5 C131.92424433 16.00441856 139.8927049 18.07429389 147.4375 19.5 C148.63826172 19.68755859 148.63826172 19.68755859 149.86328125 19.87890625 C152.4375 20.5 152.4375 20.5 155.46484375 22.0234375 C160.70934853 24.35969051 166.35394025 24.03292681 172 24.125 C174.20971667 24.17629928 176.41936005 24.23088175 178.62890625 24.2890625 C179.60029541 24.30662598 180.57168457 24.32418945 181.57250977 24.34228516 C186.07353087 24.59006186 190.1078025 25.19435912 194.22265625 27.05859375 C198.82824111 28.86077913 202.98977797 28.77147237 207.875 28.5625 C214.41807205 28.31308849 220.09992677 28.81676135 226.4375 30.5 C227.77058726 30.8343161 229.10384815 31.16794333 230.4375 31.5 C229.7775 30.18 229.1175 28.86 228.4375 27.5 C237.51989069 27.75369806 246.21600301 28.64389626 255.125 30.4375 C255.97352539 30.60733398 256.82205078 30.77716797 257.69628906 30.95214844 C261.82195339 31.81888464 265.52067669 32.93194743 269.4375 34.5 C271.5346679 34.83833951 273.64019615 35.1273823 275.75 35.375 C280.77455042 36.07096813 284.2648513 37.2487297 288.60546875 39.76171875 C290.87345387 40.6756829 292.18028639 40.45311408 294.5625 40 C298.4375 39.5 298.4375 39.5 301.6875 41.1875 C304.07606916 43.19606952 306.31468335 45.21388976 308.4375 47.5 C303.11667039 48.74530055 299.99904484 48.2460782 294.92578125 46.3359375 C290.54502897 44.8642248 285.99185227 44.22358868 281.4375 43.5 C282.0975 44.82 282.7575 46.14 283.4375 47.5 C281.1275 47.5 278.8175 47.5 276.4375 47.5 C279.82856733 49.76071155 283.35264137 51.15268823 287.125 52.625 C287.82689453 52.90214844 288.52878906 53.17929688 289.25195312 53.46484375 C290.97923775 54.14635741 292.70820737 54.82359772 294.4375 55.5 C294.4375 56.16 294.4375 56.82 294.4375 57.5 C291.4375 58.5 291.4375 58.5 287.9375 58.875 C284.32544984 59.52000896 283.58493804 59.73900824 281.4375 62.5 C280.10416667 63.83333333 278.77083333 65.16666667 277.4375 66.5 C276.07625 65.8503125 276.07625 65.8503125 274.6875 65.1875 C268.91358219 63.43746718 263.53825007 67.00406647 258.4375 69.5 C259.90616969 73.70042834 259.90616969 73.70042834 263.2421875 76.40234375 C263.92539063 76.66144531 264.60859375 76.92054688 265.3125 77.1875 C269.45991464 78.95512506 270.61949216 81.18285674 272.4375 85.25 C273.1298548 86.98999692 273.80533846 88.73724187 274.4375 90.5 C273.7775 90.83 273.1175 91.16 272.4375 91.5 C273.0975 95.46 273.7575 99.42 274.4375 103.5 C272.7875 103.83 271.1375 104.16 269.4375 104.5 C268.633125 103.489375 267.82875 102.47875 267 101.4375 C264.57732779 98.581597 262.10364649 96.42676517 259.0625 94.25 C253.85429823 90.32832167 249.21888191 85.44882314 246.4375 79.5 C247.1640625 76.921875 247.1640625 76.921875 248.4375 74.5 C248.82062075 73.13278476 249.17736123 71.75773759 249.5 70.375 C250.4375 66.5 250.4375 66.5 251.4375 63.5 C249.56571884 60.31711646 249.56571884 60.31711646 247.4375 57.5 C245.9525 57.995 245.9525 57.995 244.4375 58.5 C244.1075 60.15 243.7775 61.8 243.4375 63.5 C241.04474825 62.94782652 238.81526099 62.27493483 236.5 61.4375 C233.59887251 60.54939975 231.4414585 60.32329656 228.4375 60.5 C228.2725 61.77875 228.1075 63.0575 227.9375 64.375 C227.8446875 65.09429687 227.751875 65.81359375 227.65625 66.5546875 C227.4002515 68.50498344 227.4002515 68.50498344 227.4375 70.5 C221.02955947 71.75645893 221.02955947 71.75645893 218.12890625 70.5 C214.69644153 69.22465752 212.19287286 69.51752346 208.5625 69.875 C204.89658858 70.22144877 201.34854372 70.49944748 197.6640625 70.4765625 C193.80229861 70.50461405 192.32376738 70.934429 189.4375 73.5 C188.1478877 76.07922461 187.32209332 78.76125909 186.4375 81.5 C185.47790581 83.8525535 184.455983 86.17203886 183.4375 88.5 C190.17054576 91.94590211 190.17054576 91.94590211 197.4375 91.75 C200.40674327 91.14649527 201.30594248 91.4258494 204.015625 92.953125 C209.24106399 96.95623908 212.51669573 100.65839145 215.4375 106.5 C216.159375 107.139375 216.88125 107.77875 217.625 108.4375 C220.29857596 111.47984505 220.25788632 114.6244895 220.4375 118.5 C220.51226563 119.19222656 220.58703125 119.88445312 220.6640625 120.59765625 C221.13098142 127.36798066 219.04942885 133.78334224 215.4375 139.5 C211.71173402 141.54334978 209.50779 141.66294 205.4375 140.5 C202.92922143 144.81423915 202.40159946 146.70896002 203.4375 151.5 C201.92406345 153.5179154 200.68810133 154.37469934 198.4375 155.5 C200.03453398 160.29110194 204.36090148 161.73810137 208.5546875 164.26953125 C211.78661967 166.77011834 212.99088695 168.7114924 214.4375 172.5 C214.4375 173.49 214.4375 174.48 214.4375 175.5 C209.9825 177.48 209.9825 177.48 205.4375 179.5 C205.05078125 178.66855469 204.6640625 177.83710938 204.265625 176.98046875 C203.48445313 175.35044922 203.48445313 175.35044922 202.6875 173.6875 C201.92179687 172.06908203 201.92179687 172.06908203 201.140625 170.41796875 C198.90091051 166.58065976 196.93901851 164.98886649 192.75 163.625 C191.986875 163.25375 191.22375 162.8825 190.4375 162.5 C189.625 159.875 189.625 159.875 189.4375 157.5 C186.75220658 156.18642084 186.75220658 156.18642084 183.4375 155.5 C180.1024267 156.74943341 180.1024267 156.74943341 177.4375 158.5 C177.004375 157.365625 176.57125 156.23125 176.125 155.0625 C175.2896875 153.2990625 175.2896875 153.2990625 174.4375 151.5 C173.4475 151.17 172.4575 150.84 171.4375 150.5 C170.695 151.44875 169.9525 152.3975 169.1875 153.375 C167.15904781 155.82532401 165.4797152 157.37325363 162.4375 158.5 C163.83405297 161.99873271 165.15010484 163.20891831 168.5625 164.75 C169.28695312 165.08515625 170.01140625 165.4203125 170.7578125 165.765625 C171.58925781 166.12914062 171.58925781 166.12914062 172.4375 166.5 C173.0975 165.84 173.7575 165.18 174.4375 164.5 C176.6015625 164.7421875 176.6015625 164.7421875 179.0625 165.375 C179.87976562 165.57867187 180.69703125 165.78234375 181.5390625 165.9921875 C182.47878906 166.24355469 182.47878906 166.24355469 183.4375 166.5 C181.18009377 168.83524782 179.1569239 170.68705073 176.4375 172.5 C175.70406572 175.56556598 175.70406572 175.56556598 175.4375 178.5 C176.04722656 178.73847656 176.65695312 178.97695313 177.28515625 179.22265625 C179.94083105 180.79871008 180.56319968 182.17318722 181.875 184.9375 C183.89131905 188.84528863 185.50685131 190.42549097 189.4375 192.5 C190.375 194.5625 190.375 194.5625 190.4375 196.5 C189.7775 197.16 189.1175 197.82 188.4375 198.5 C190.9125 199.49 190.9125 199.49 193.4375 200.5 C190.22867905 221.94843476 190.22867905 221.94843476 183.5625 229.03125 C178.78172457 232.33560949 172.95792217 233.85899779 167.4375 235.5 C167.4375 234.84 167.4375 234.18 167.4375 233.5 C160.31393566 237.14823717 160.31393566 237.14823717 154.4375 242.5 C154.210625 241.860625 153.98375 241.22125 153.75 240.5625 C152.59550216 238.31397412 152.59550216 238.31397412 150.1875 237.5625 C146.46693556 237.47794172 144.5396496 238.47685896 141.4375 240.5 C139.30635432 243.11237212 138.4375 244.55657491 138.4375 247.9375 C140.2988157 252.70712149 143.42651726 255.74176294 147.4375 258.75 C152.94837039 263.20711222 155.50179112 270.00101847 156.375 276.875 C156.6889268 280.37956466 156.38245546 282.52836314 154.4375 285.5 C149.29464286 288.5 149.29464286 288.5 146.4375 288.5 C146.06625 289.675625 146.06625 289.675625 145.6875 290.875 C144.28360901 293.82317108 143.43074263 294.4024777 140.4375 295.5 C139.77083333 292.83333333 139.10416667 290.16666667 138.4375 287.5 C137.1175 287.83 135.7975 288.16 134.4375 288.5 C134.07398438 287.96890625 133.71046875 287.4378125 133.3359375 286.890625 C128.97224562 280.75907846 124.64056686 277.04225889 117.4375 274.5 C117.44910156 275.056875 117.46070313 275.61375 117.47265625 276.1875 C117.51915034 280.11957146 117.43792397 283.75917953 116.6875 287.625 C116.35799626 292.73230804 117.61763953 294.31049301 120.4375 298.5 C120.71335937 299.15871094 120.98921875 299.81742187 121.2734375 300.49609375 C122.80806136 303.13791268 124.70028482 304.14964228 127.25 305.8125 C133.95739383 310.9376866 135.64779878 317.55937825 137.4375 325.5 C137.4375 326.49 137.4375 327.48 137.4375 328.5 C132.37507438 327.445328 128.25144563 325.03148741 125.203125 320.77734375 C123.13539647 316.90432917 122.11749262 313.15296607 121.1875 308.875 C120.12196105 304.48642432 119.08491778 302.81663177 115.25 300.4375 C113.1171875 299.1015625 113.1171875 299.1015625 111.4375 297.5 C110.41843157 292.95007475 110.97726705 288.88069885 112.4375 284.5 C112.96160278 279.15415163 111.9665723 276.22180071 109.4609375 271.69921875 C107.66201323 267.83359141 107.089762 263.68820861 106.4375 259.5 C102.753222 259.98791478 102.753222 259.98791478 99.875 262.125 C99.400625 262.57875 98.92625 263.0325 98.4375 263.5 C96.34765625 263.0859375 96.34765625 263.0859375 94.4375 262.5 C94.33953125 261.943125 94.2415625 261.38625 94.140625 260.8125 C93.07045191 255.35092701 91.78808453 250.04722187 88.4375 245.5 C87.4475 245.005 86.4575 244.51 85.4375 244 C81.60187718 242.08218859 80.9441089 240.10551808 79.39453125 236.2421875 C78.49803503 234.14282583 78.49803503 234.14282583 75.4375 233.5 C72.9854609 234.06805097 70.64709033 234.6945703 68.25 235.4375 C67.59580078 235.63279297 66.94160156 235.82808594 66.26757812 236.02929688 C64.65522593 236.51182563 63.04603711 237.00490205 61.4375 237.5 C61.34339844 238.44617188 61.24929688 239.39234375 61.15234375 240.3671875 C60.4375 243.5 60.4375 243.5 58.87890625 244.8203125 C58.25886719 245.08585938 57.63882812 245.35140625 57 245.625 C53.79234432 247.19304263 52.91846984 248.22070965 51.4375 251.5 C50.633125 251.974375 49.82875 252.44875 49 252.9375 C46.30603501 254.29568472 46.30603501 254.29568472 45.125 256.8125 C43.30843318 259.70555085 42.03732504 260.43908048 39.1875 262.1875 C37.00923297 263.62754021 37.00923297 263.62754021 35.4375 265.5 C35.17054863 268.07285891 35.57320669 270.18288574 36.04296875 272.72265625 C37.21922995 281.00306923 34.68857223 288.16152151 29.97265625 294.85546875 C28.4375 296.5 28.4375 296.5 25.4375 297.5 C23.33203125 296.82421875 23.33203125 296.82421875 21.4375 295.5 C20.63671875 293.64453125 20.63671875 293.64453125 20.125 291.3125 C18.91115973 286.74583607 17.21698995 282.56781099 15.1875 278.3125 C14.73697266 277.36455566 14.73697266 277.36455566 14.27734375 276.39746094 C13.01503998 273.7574958 11.73962401 271.12395506 10.46435547 268.49023438 C9.51190949 266.51713903 8.5683394 264.53996146 7.625 262.5625 C7.06167969 261.39847656 6.49835938 260.23445313 5.91796875 259.03515625 C3.69697154 253.73171965 2.11298932 248.50413703 2.375 242.6875 C2.49299194 239.78900233 2.38189174 238.33317523 1.4375 235.5 C0.7775 235.5 0.1175 235.5 -0.5625 235.5 C-0.706875 236.139375 -0.85125 236.77875 -1 237.4375 C-1.5625 239.5 -1.5625 239.5 -2.5625 240.5 C-5.9375 240.375 -5.9375 240.375 -9.5625 239.5 C-11.5 236.9375 -11.5 236.9375 -12.5625 234.5 C-11.5725 234.17 -10.5825 233.84 -9.5625 233.5 C-9.8925 232.84 -10.2225 232.18 -10.5625 231.5 C-11.3978125 231.314375 -11.3978125 231.314375 -12.25 231.125 C-15.56016623 230.23036048 -17.8479414 228.56542503 -20.5625 226.5 C-21.25998583 225.18252676 -21.93209957 223.85085807 -22.5625 222.5 C-25.71568707 220.44479772 -27.76408546 220.37255728 -31.4375 220.875 C-52.64268599 223.22798187 -52.64268599 223.22798187 -60.5625 219.5 C-61.34625 218.448125 -62.13 217.39625 -62.9375 216.3125 C-63.80375 215.384375 -64.67 214.45625 -65.5625 213.5 C-68.00095482 213.48735187 -68.00095482 213.48735187 -70.6875 214 C-76.66154722 214.89731968 -80.15081017 213.48332728 -85.2578125 210.39453125 C-88.19495727 207.98009869 -89.31694989 205.69048402 -90.66796875 202.203125 C-91.5420875 200.1272754 -91.5420875 200.1272754 -94.6875 199 C-97.40454485 198.44288628 -97.40454485 198.44288628 -99.5625 198.5 C-100.34528354 204.63180443 -98.60658658 207.41922981 -95.03125 212.34375 C-93.27074356 214.92832328 -92.3369047 217.47982169 -91.5625 220.5 C-90.5725 220.5 -89.5825 220.5 -88.5625 220.5 C-88.2325 219.84 -87.9025 219.18 -87.5625 218.5 C-86.9025 218.5 -86.2425 218.5 -85.5625 218.5 C-85.1603125 219.675625 -85.1603125 219.675625 -84.75 220.875 C-83.71435568 223.78114923 -83.71435568 223.78114923 -80.5625 225.5 C-77.67345637 225.80110818 -77.67345637 225.80110818 -74.5625 224.5 C-71.97073452 222.02793454 -69.74543605 219.33523351 -67.5625 216.5 C-65.5625 219.5 -65.5625 219.5 -65.4375 221.875 C-64.20147417 225.58307748 -61.94351143 226.41969494 -58.640625 228.296875 C-56.06649345 229.78716169 -53.83224942 231.58489893 -51.5625 233.5 C-51.9789693 237.10940058 -53.76034538 239.06702896 -56.109375 241.7265625 C-57.76048009 243.74162087 -59.10978689 245.86010976 -60.5 248.0625 C-64.85543873 254.63987575 -68.98239458 257.46350122 -76.54296875 259.6953125 C-79.4647017 260.85948462 -80.63947846 263.05251803 -82.5625 265.5 C-85.76010455 267.45478559 -89.15669516 268.94527517 -92.5625 270.5 C-93.63886719 271.03238281 -94.71523438 271.56476563 -95.82421875 272.11328125 C-101.82384798 275.03296145 -106.86246047 277.23725335 -113.5625 277.5 C-116.56857926 273.09108375 -117.81807017 269.75390442 -118.5 264.4375 C-119.28793108 258.79535068 -120.57819315 256.48430685 -124.5625 252.5 C-125.0575 251.654375 -125.5525 250.80875 -126.0625 249.9375 C-127.47726474 247.35489568 -127.47726474 247.35489568 -130 245.4375 C-132.69224678 242.35126589 -133.3862724 240.4197646 -134.5625 236.5625 C-135.8392518 232.40927182 -136.95942052 229.3909858 -140.00390625 226.17578125 C-146.3088095 219.39682513 -151.30739688 212.52041247 -153.5625 203.5 C-153.8925 203.5 -154.2225 203.5 -154.5625 203.5 C-154.8925 205.15 -155.2225 206.8 -155.5625 208.5 C-156.325625 207.71625 -157.08875 206.9325 -157.875 206.125 C-160.47141805 203.42742283 -160.47141805 203.42742283 -163.5625 201.5 C-161.88637983 206.26617412 -159.34797286 210.38480058 -156.75 214.6875 C-153.45764934 220.19754505 -150.30938543 225.69395335 -147.59765625 231.51953125 C-146.60080931 233.58272711 -146.60080931 233.58272711 -144.98046875 235.46875 C-143.33582042 237.82472006 -143.12259894 239.35556699 -142.8125 242.1875 C-141.9054607 247.46693385 -139.64947688 250.35524069 -136.20703125 254.3515625 C-134.57336232 256.48580932 -133.97638071 257.93569741 -133.3125 260.5 C-131.68844072 265.69285198 -127.32115377 268.2050031 -123.1640625 271.40234375 C-119.05577464 274.71488216 -117.12871157 277.6598124 -115.5625 282.75 C-114.80420995 285.51668999 -114.80420995 285.51668999 -112.9375 286.9375 C-104.39745782 288.96014157 -92.38574099 284.85281757 -84.5625 281.5 C-82.39453342 289.95139513 -85.34370109 295.67894266 -89.29150391 303.07470703 C-90.3020041 304.98020788 -91.25959737 306.90617259 -92.21484375 308.83984375 C-96.65700538 317.52358759 -101.48489853 322.84697553 -109.5625 328.5 C-114.05590292 331.85770768 -117.35717623 335.62885432 -120.6953125 340.109375 C-122.60691299 342.55686349 -124.66917872 344.7546158 -126.8125 347 C-132.18462976 353.03973423 -133.88507677 358.31058085 -133.5625 366.375 C-132.95694041 371.85287812 -131.08536035 376.02299912 -128.63671875 380.90625 C-127.25937819 384.23190139 -127.21392981 386.83636709 -127.47265625 390.3828125 C-127.56683261 392.6020988 -127.21724464 394.39886267 -126.75 396.5625 C-126.53210282 401.13834077 -127.3218211 403.01237972 -129.8984375 406.67578125 C-133.18939217 410.28347099 -137.27990263 412.46779604 -141.6875 414.4609375 C-144.60864407 416.07973817 -145.79323968 418.71207465 -147.5625 421.5 C-148.49069003 422.5293057 -149.42818652 423.55029885 -150.375 424.5625 C-152.83840769 427.24074603 -152.83840769 427.24074603 -152.5 430.125 C-151.64763872 432.4740692 -151.64763872 432.4740692 -150.4375 434.375 C-149.05692218 437.72783185 -149.63922252 440.0530974 -150.5625 443.5 C-153.79213843 446.9141892 -157.07994662 448.24905487 -161.5625 449.5 C-161.50449219 450.31984375 -161.44648437 451.1396875 -161.38671875 451.984375 C-161.25142752 455.21590262 -161.21321175 458.2830983 -161.5625 461.5 C-163.8125 463.875 -163.8125 463.875 -166.5625 465.5 C-167.91287803 467.48853136 -169.24358929 469.49045968 -170.5625 471.5 C-177.0976216 479.51752937 -184.75996685 488.742445 -195.5625 490.5 C-197.53515625 490.30859375 -197.53515625 490.30859375 -199.625 489.9375 C-203.52251862 489.38991474 -206.49517725 489.8278667 -210.3125 490.75 C-215.15262172 491.74110487 -215.15262172 491.74110487 -218.75 489.625 C-220.71277098 486.2409121 -220.74373077 484.32037502 -220.484375 480.48046875 C-220.61604326 477.1426783 -222.59450129 475.0865126 -224.5625 472.5 C-225.036875 471.530625 -225.51125 470.56125 -226 469.5625 C-227.50666268 466.35378327 -227.50666268 466.35378327 -230.0625 463.3828125 C-233.06989351 459.21902344 -233.58622498 455.32962142 -234.125 450.3125 C-235.46501671 440.32241128 -237.59545634 431.7051568 -242.75 422.9375 C-246.76374443 415.84723065 -247.54396959 409.25295276 -245.4375 401.375 C-244.26663106 397.89537541 -242.70788244 395.03256347 -240.75 391.9375 C-238.74331745 388.54525093 -238.30293221 386.77838604 -239.25 382.9375 C-239.59998047 381.82375 -239.59998047 381.82375 -239.95703125 380.6875 C-240.5829482 378.42612264 -240.59649001 376.76329665 -240.4375 374.4375 C-240.57292566 370.17159155 -241.4599515 368.18045772 -243.50390625 364.56640625 C-244.6162124 362.3951518 -245.19446478 360.35499695 -245.8125 358 C-247.28435179 353.23909392 -250.05088787 350.58573368 -253.72265625 347.32421875 C-256.16902031 344.8986306 -257.55402584 342.9716787 -257.57421875 339.46484375 C-257.08036649 336.37677959 -256.55309592 333.47178775 -255.5625 330.5 C-254.78308795 323.28833261 -254.78308795 323.28833261 -257.4375 316.875 C-260.81603602 314.68888846 -262.67625322 314.38607376 -266.6875 314.4375 C-268.05261719 314.45103516 -268.05261719 314.45103516 -269.4453125 314.46484375 C-270.49332031 314.48224609 -270.49332031 314.48224609 -271.5625 314.5 C-271.76875 313.571875 -271.975 312.64375 -272.1875 311.6875 C-273.31189143 308.33132966 -273.31189143 308.33132966 -276.25 306.5625 C-283.47065482 304.24644091 -290.06876471 307.62761029 -296.71875 310.3984375 C-301.92651251 312.39719142 -305.48607221 312.44317105 -310.9609375 311.62109375 C-314.0029002 311.47950089 -316.17483378 312.12299169 -319.0625 313.0625 C-324.74768255 314.78406936 -329.0305617 314.75574183 -334.5625 312.5 C-343.59488143 307.17995657 -348.51979029 299.93298933 -352.5625 290.5 C-355.43783532 286.00268065 -357.73495052 282.84907562 -362.5625 280.5 C-363.9375 278.0625 -363.9375 278.0625 -364.5625 275.5 C-363.9025 274.51 -363.2425 273.52 -362.5625 272.5 C-363.366875 271.38625 -363.366875 271.38625 -364.1875 270.25 C-364.64125 269.3425 -365.095 268.435 -365.5625 267.5 C-364.9375 265.6875 -364.9375 265.6875 -363.5625 263.5 C-360.39873111 256.82093235 -360.21110226 251.75957462 -361.5625 244.5 C-361.975 243.4275 -362.3875 242.355 -362.8125 241.25 C-364.10148299 236.52372903 -361.54333866 233.22533066 -359.265625 229.21875 C-357.73627801 226.62050458 -356.15575153 224.05952908 -354.5625 221.5 C-353.94375 220.48164063 -353.325 219.46328125 -352.6875 218.4140625 C-352.06875 217.41117188 -351.45 216.40828125 -350.8125 215.375 C-350.24015625 214.44429687 -349.6678125 213.51359375 -349.078125 212.5546875 C-348.57796875 211.87664062 -348.0778125 211.19859375 -347.5625 210.5 C-346.9025 210.5 -346.2425 210.5 -345.5625 210.5 C-345.5625 209.84 -345.5625 209.18 -345.5625 208.5 C-343.69921875 207.09765625 -343.69921875 207.09765625 -341.25 205.5625 C-335.94523405 202.46936572 -335.94523405 202.46936572 -332.9375 197.4140625 C-332.81375 196.65867187 -332.69 195.90328125 -332.5625 195.125 C-331.58007238 190.33663231 -330.71964174 186.99277489 -326.5078125 184.078125 C-324.91732337 183.06646962 -323.32354878 182.05996137 -321.7265625 181.05859375 C-318.73732472 178.90569506 -317.31765801 176.70507115 -315.5625 173.5 C-314.92183594 173.72816406 -314.28117188 173.95632813 -313.62109375 174.19140625 C-308.21403485 175.98838708 -304.19421445 177.13831693 -298.5625 175.5 C-296.33200982 174.33608967 -294.18969208 173.10362305 -292.06640625 171.75390625 C-285.32092333 168.3759031 -278.86585807 168.27796961 -271.5 168.5 C-264.46724473 168.76776352 -264.46724473 168.76776352 -257.62890625 167.375 C-256.11103516 166.941875 -256.11103516 166.941875 -254.5625 166.5 C-251.5625 168.5 -251.5625 168.5 -250.8125 171.8125 C-250.5625 175.5 -250.5625 175.5 -251.25 178.1875 C-251.85469214 180.61033986 -251.85469214 180.61033986 -250.0234375 182.5234375 C-246.09833999 185.67597614 -241.61067925 186.18692703 -236.77734375 187.27734375 C-232.92333069 188.74308626 -232.49901308 190.00657442 -230.5625 193.5 C-228.23876633 194.69706932 -228.23876633 194.69706932 -225.625 195.25 C-224.77035156 195.47171875 -223.91570312 195.6934375 -223.03515625 195.921875 C-222.21917969 196.11265625 -221.40320313 196.3034375 -220.5625 196.5 C-219.83289063 196.71140625 -219.10328125 196.9228125 -218.3515625 197.140625 C-216.50362186 197.71943212 -216.50362186 197.71943212 -214.875 196.5 C-213.00219333 193.64619936 -212.93473082 190.85007735 -212.5625 187.5 C-211.5625 186.5 -211.5625 186.5 -208.625 186.125 C-205.19922367 186.15953404 -203.09043379 187.14444349 -200.125 188.8125 C-190.95306564 193.72004414 -180.27121126 195.20907822 -170.03515625 193.7578125 C-166.73192719 193.41339999 -163.70207054 193.81565771 -160.4375 194.34375 C-158.33476541 194.64293252 -158.33476541 194.64293252 -155.5625 193.5 C-155.376875 191.7365625 -155.376875 191.7365625 -155.1875 189.9375 C-154.83953238 187.07811395 -154.31933807 184.6703887 -153.5 181.875 C-152.57499914 178.54499689 -152.40652288 175.93149666 -152.5625 172.5 C-152.5625 171.51 -152.5625 170.52 -152.5625 169.5 C-154.0784375 169.7165625 -154.0784375 169.7165625 -155.625 169.9375 C-156.924375 170.123125 -158.22375 170.30875 -159.5625 170.5 C-161.41875 170.8403125 -161.41875 170.8403125 -163.3125 171.1875 C-166.5625 171.5 -166.5625 171.5 -169.5625 169.5 C-172.11005462 169.30403426 -174.02920346 169.30445794 -176.4375 170.1875 C-179.21286649 170.59564213 -181.347994 170.01032819 -183.88671875 168.86328125 C-186.80737505 166.48726949 -187.6179263 163.1776283 -188.73828125 159.6796875 C-189.3469309 157.32510298 -189.3469309 157.32510298 -191.5625 156.5 C-191.5625 155.84 -191.5625 155.18 -191.5625 154.5 C-190.93601562 154.39042969 -190.30953125 154.28085937 -189.6640625 154.16796875 C-188.84679687 154.00941406 -188.02953125 153.85085938 -187.1875 153.6875 C-186.37539063 153.53667969 -185.56328125 153.38585937 -184.7265625 153.23046875 C-182.20429359 152.62455058 -182.20429359 152.62455058 -180.5625 149.5 C-178.28515625 148.83984375 -178.28515625 148.83984375 -175.625 148.4375 C-172.11618812 147.89490023 -170.5979283 147.52361887 -167.5625 145.5 C-160.60129159 144.80387916 -154.87480854 147.11987144 -148.5625 149.75 C-144.40810289 150.78859928 -140.74656608 150.18804642 -136.5625 149.5 C-135.9025 147.85 -135.2425 146.2 -134.5625 144.5 C-138.61731712 140.12506573 -142.88551803 137.31720641 -148.09765625 134.36328125 C-152.46060268 131.80569196 -152.46060268 131.80569196 -153.5625 128.5 C-152.923125 128.273125 -152.28375 128.04625 -151.625 127.8125 C-149.29056339 126.64749104 -149.29056339 126.64749104 -148.8125 123.875 C-148.73 123.09125 -148.6475 122.3075 -148.5625 121.5 C-149.696875 121.933125 -150.83125 122.36625 -152 122.8125 C-153.5204846 123.37594199 -155.04134141 123.93838019 -156.5625 124.5 C-157.73039062 124.94666016 -157.73039062 124.94666016 -158.921875 125.40234375 C-166.48558739 128.15624575 -166.48558739 128.15624575 -170.5625 126.5 C-170.8925 125.84 -171.2225 125.18 -171.5625 124.5 C-174.89102626 125.05475438 -176.99650582 125.84498796 -179.2265625 128.42578125 C-182.96680664 133.90717352 -186.49234743 139.619129 -185.5625 146.5 C-184.09117504 148.13824073 -184.09117504 148.13824073 -182.5625 149.5 C-190.6051264 151.66257288 -190.6051264 151.66257288 -194.875 150.9375 C-197.59785416 150.18568569 -197.59785416 150.18568569 -199.6875 151.875 C-200.615625 152.679375 -200.615625 152.679375 -201.5625 153.5 C-202.88453912 153.87563473 -204.21790867 154.21545993 -205.5625 154.5 C-205.23894531 155.16386719 -204.91539062 155.82773437 -204.58203125 156.51171875 C-203.38497071 159.16539665 -202.32240253 161.68793131 -201.5625 164.5 C-202.8125 167.625 -202.8125 167.625 -204.5625 169.5 C-207.5625 168.5 -207.5625 168.5 -209.25 165.4375 C-209.683125 164.468125 -210.11625 163.49875 -210.5625 162.5 C-209.2425 161.84 -207.9225 161.18 -206.5625 160.5 C-207.18898438 160.32984375 -207.81546875 160.1596875 -208.4609375 159.984375 C-209.68683594 159.62085938 -209.68683594 159.62085938 -210.9375 159.25 C-212.15566406 158.90195312 -212.15566406 158.90195312 -213.3984375 158.546875 C-216.09124144 157.24421894 -216.56137512 156.27584627 -217.5625 153.5 C-218.12122844 151.47848948 -218.55930914 149.45234321 -219 147.40234375 C-219.5494945 145.19883715 -219.5494945 145.19883715 -221.5625 142.5 C-223.57946802 141.67059388 -223.57946802 141.67059388 -225.875 141.125 C-230.27260624 139.79516387 -232.42699223 137.89680009 -235.5625 134.5 C-237.21241582 133.79289322 -238.87812256 133.12056011 -240.5625 132.5 C-242.375 130.875 -242.375 130.875 -243.5625 129.5 C-244.2225 129.83 -244.8825 130.16 -245.5625 130.5 C-245.27861066 133.90667209 -244.91398596 135.18756804 -242.3125 137.5 C-241.405 138.16 -240.4975 138.82 -239.5625 139.5 C-238.799375 140.304375 -238.03625 141.10875 -237.25 141.9375 C-233.97453021 145.06062235 -230.44919699 147.21969995 -226.5625 149.5 C-225.5725 150.098125 -224.5825 150.69625 -223.5625 151.3125 C-222.5725 151.9003125 -222.5725 151.9003125 -221.5625 152.5 C-223.89567216 153.27772405 -226.17685923 153.92415568 -228.5625 154.5 C-228.2325 156.15 -227.9025 157.8 -227.5625 159.5 C-228.8825 160.49 -230.2025 161.48 -231.5625 162.5 C-231.48 161.613125 -231.3975 160.72625 -231.3125 159.8125 C-231.63124953 155.58906876 -232.42327625 154.33295802 -235.5625 151.5 C-237.83158969 150.6464892 -240.12119867 149.98299564 -242.44921875 149.30859375 C-245.52581436 148.13141206 -246.78258332 146.20283645 -248.5625 143.5 C-249.26375 142.819375 -249.965 142.13875 -250.6875 141.4375 C-252.5625 139.5 -252.5625 139.5 -253.5625 137.3125 C-254.42362015 135.38963967 -254.42362015 135.38963967 -256.25 134.5 C-259.33017675 134.5 -261.14931382 135.92473416 -263.70703125 137.51171875 C-266.56613156 139.03456586 -269.36537457 139.21454237 -272.5625 139.5 C-273.861875 139.685625 -275.16125 139.87125 -276.5 140.0625 C-277.510625 140.206875 -278.52125 140.35125 -279.5625 140.5 C-279.5625 141.49 -279.5625 142.48 -279.5625 143.5 C-279.5625 144.16 -279.5625 144.82 -279.5625 145.5 C-281.2125 145.83 -282.8625 146.16 -284.5625 146.5 C-284.5625 147.16 -284.5625 147.82 -284.5625 148.5 C-285.47 148.995 -286.3775 149.49 -287.3125 150 C-290.50014512 151.97365878 -291.33559998 153.93875546 -292.5625 157.4375 C-294.5449065 163.08485971 -297.14927229 165.79338614 -302.5625 168.5 C-304.0163493 168.70207944 -305.47598362 168.86404499 -306.9375 169 C-309.29341277 169.22062059 -311.42939514 169.4619354 -313.70703125 170.11328125 C-316.60337671 170.71694062 -318.1169585 169.03557257 -320.5625 167.5 C-322.87941454 166.77833809 -325.21098923 166.09940471 -327.5625 165.5 C-327.7415686 159.85933896 -327.38007097 155.1001765 -325.99609375 149.640625 C-325.4284 147.23090767 -325.4284 147.23090767 -325.625 143.625 C-325.5625 140.5 -325.5625 140.5 -324.39453125 138.78515625 C-321.80842261 136.97102034 -320.28616302 137.40128333 -317.1875 137.8125 C-310.62048723 138.55108823 -304.16423264 138.5958316 -297.5625 138.5 C-297.36605616 136.60507254 -297.18072712 134.70899097 -297 132.8125 C-296.84337891 131.22888672 -296.84337891 131.22888672 -296.68359375 129.61328125 C-296.56972448 126.68573914 -296.85401585 124.32868856 -297.5625 121.5 C-300.5325 120.51 -303.5025 119.52 -306.5625 118.5 C-306.0675 117.015 -306.0675 117.015 -305.5625 115.5 C-304.675625 115.561875 -303.78875 115.62375 -302.875 115.6875 C-299.13308959 115.47569375 -297.6858629 114.45210181 -294.5625 112.5 C-293.5725 112.37625 -292.5825 112.2525 -291.5625 112.125 C-287.58841214 111.29706503 -286.34410273 109.41406001 -283.5625 106.5 C-281.58145028 105.15369478 -279.54863731 103.92916666 -277.49609375 102.6953125 C-272.79092497 99.80654112 -272.79092497 99.80654112 -269.5625 95.5 C-267.41796875 95.0078125 -267.41796875 95.0078125 -264.75 94.625 C-260.35489375 93.8560127 -258.57006609 92.85459295 -255.5625 89.5 C-253.5625 89.6875 -253.5625 89.6875 -251.5625 90.5 C-249.03405753 91.3156266 -247.81207023 91.55910874 -245.1875 90.9375 C-242.5625 90.5 -242.5625 90.5 -239.75 91.625 C-235.74260144 92.72507019 -234.23929637 91.77586525 -230.57421875 90.15625 C-228.5625 89.5 -228.5625 89.5 -224.9375 90.0625 C-221.46246685 90.80720848 -221.46246685 90.80720848 -218.125 89 C-215.17969119 86.67099318 -215.17969119 86.67099318 -215.25 82.875 C-215.353125 81.76125 -215.45625 80.6475 -215.5625 79.5 C-215.2325 78.84 -214.9025 78.18 -214.5625 77.5 C-211.9225 77.83 -209.2825 78.16 -206.5625 78.5 C-206.5625 74.73312136 -206.79787317 73.58809695 -208.5625 70.5 C-205.14383449 68.79066725 -201.26480545 69.6008865 -197.5078125 69.7578125 C-194.22072698 69.47008353 -192.95192656 68.70473658 -190.5625 66.5 C-195.52387993 65.77979969 -199.77840784 65.42339443 -204.75 66.125 C-208.16879962 66.52439248 -209.71523625 66.45444708 -213.125 65.4375 C-215.5625 63.5 -215.5625 63.5 -216.8125 60.8125 C-216.48636378 56.49119504 -214.70579789 54.66558611 -212 51.40234375 C-210.30483482 49.15901375 -209.73756666 47.30106656 -209.5625 44.5 C-211.28726911 43.54497842 -211.28726911 43.54497842 -213.5625 43.5 C-216.06291345 45.66540517 -216.06291345 45.66540517 -218.5625 48.5 C-223.60813233 53.10234681 -223.60813233 53.10234681 -226.8125 54.4375 C-229.55711727 56.10387477 -229.78368743 58.51455182 -230.5625 61.5 C-227.84645285 64.37420123 -227.84645285 64.37420123 -224.5625 66.5 C-224.75 68.3125 -224.75 68.3125 -225.5625 70.5 C-226.7071875 71.0878125 -226.7071875 71.0878125 -227.875 71.6875 C-230.89889254 73.72686939 -231.25937397 74.70761219 -232.5625 78 C-233.83067536 81.13975673 -234.41813808 82.37729237 -237.0625 84.625 C-239.5625 85.5 -239.5625 85.5 -241.6875 85.5 C-244.41456308 84.04556636 -245.13863782 82.22906918 -246.5625 79.5 C-247.28743608 78.22674862 -248.01671194 76.9559597 -248.75 75.6875 C-249.348125 74.635625 -249.94625 73.58375 -250.5625 72.5 C-254.33347714 72.19423805 -254.33347714 72.19423805 -256.5 73.5 C-259.16706914 74.79312443 -260.62870381 75.00089203 -263.5625 74.5 C-267.06300387 71.95417901 -268.84291631 69.7069829 -269.6875 65.5 C-269.87572903 62.26974689 -269.62319889 61.59209487 -267.75 58.75 C-264.30575293 56.31876677 -261.05408866 55.04643156 -257.12890625 53.58984375 C-250.43088383 50.74547806 -246.40165949 46.58970127 -242.5625 40.5 C-240.90356818 39.15705519 -239.23773395 37.82255312 -237.5625 36.5 C-237.11100586 35.51036255 -237.11100586 35.51036255 -236.65039062 34.50073242 C-235.31155613 32.0384908 -234.35878687 31.62139135 -231.78125 30.61328125 C-231.02642334 30.31494385 -230.27159668 30.01660645 -229.49389648 29.70922852 C-228.69153564 29.41330811 -227.8891748 29.1173877 -227.0625 28.8125 C-226.24531494 28.5043335 -225.42812988 28.19616699 -224.58618164 27.87866211 C-218.88330368 25.80318849 -213.66435499 24.46683774 -207.5625 24.5 C-206.8096875 24.45230469 -206.056875 24.40460938 -205.28125 24.35546875 C-198.60974986 24.04702611 -192.60820306 25.49429311 -187 29.1875 C-184.50078034 30.79373215 -184.50078034 30.79373215 -181 30.40625 C-176.01367263 30.32636451 -171.7986811 31.69336232 -167.125 33.3125 C-166.31095703 33.57353516 -165.49691406 33.83457031 -164.65820312 34.10351562 C-163.88541016 34.36455078 -163.11261719 34.62558594 -162.31640625 34.89453125 C-161.61845947 35.13018799 -160.9205127 35.36584473 -160.20141602 35.60864258 C-158.5625 36.5 -158.5625 36.5 -157.5625 39.5 C-162.98878765 42.58673699 -168.35396547 42.09892462 -174.25 40.5 C-175.343125 40.17 -176.43625 39.84 -177.5625 39.5 C-180.85469428 39.33152909 -180.85469428 39.33152909 -183.5625 39.5 C-182.799375 40.056875 -182.03625 40.61375 -181.25 41.1875 C-178.5625 43.5 -178.5625 43.5 -177.125 46.0625 C-175.05597077 49.29018561 -173.13909489 50.21242584 -169.5625 51.5 C-166.77602443 51.29564192 -166.77602443 51.29564192 -164.5625 50.5 C-166.5425 48.52 -166.5425 48.52 -168.5625 46.5 C-166.54427083 46.82552083 -164.52604167 47.15104167 -162.5078125 47.4765625 C-161.54488281 47.48816406 -161.54488281 47.48816406 -160.5625 47.5 C-159.5725 46.51 -159.5725 46.51 -158.5625 45.5 C-158.5625 44.84 -158.5625 44.18 -158.5625 43.5 C-153.6125 42.015 -153.6125 42.015 -148.5625 40.5 C-148.8925 38.52 -149.2225 36.54 -149.5625 34.5 C-147.9125 34.5 -146.2625 34.5 -144.5625 34.5 C-144.2325 35.49 -143.9025 36.48 -143.5625 37.5 C-141.78123053 38.47122722 -141.78123053 38.47122722 -139.5625 38.5 C-137.22390603 37.56232788 -137.22390603 37.56232788 -134.875 36.125 C-129.94500768 33.49176968 -126.13509906 32.67690791 -120.5625 32.5 C-120.2325 32.83 -119.9025 33.16 -119.5625 33.5 C-116.77310795 33.48814286 -114.03231972 33.40088998 -111.25 33.25 C-110.47720703 33.22292969 -109.70441406 33.19585937 -108.90820312 33.16796875 C-104.43289268 32.92938814 -102.04833459 32.49943906 -98.5625 29.5 C-91.62648564 29.74336892 -83.7935259 31.38448705 -77.5625 34.5 C-76.9025 34.17 -76.2425 33.84 -75.5625 33.5 C-75.5625 32.84 -75.5625 32.18 -75.5625 31.5 C-76.11679687 31.28085938 -76.67109375 31.06171875 -77.2421875 30.8359375 C-83.23316895 28.2135506 -83.23316895 28.2135506 -85.0625 24.25 C-85.2275 23.3425 -85.3925 22.435 -85.5625 21.5 C-83.65018431 18.91274936 -82.34045399 18.43420859 -79.1875 17.5 C-75.5625 17.5 -75.5625 17.5 -73.14453125 19.625 C-70.54200987 22.52281503 -68.03402577 25.43893647 -65.625 28.5 C-64.81160156 29.510625 -63.99820312 30.52125 -63.16015625 31.5625 C-61.5625 34.5 -61.5625 34.5 -62.24609375 37.25 C-62.68050781 37.9925 -63.11492187 38.735 -63.5625 39.5 C-63.8925 40.16 -64.2225 40.82 -64.5625 41.5 C-60.95257621 40.84414811 -60.95257621 40.84414811 -57.5625 39.5 C-56.54879873 36.67037671 -56.54879873 36.67037671 -56.5625 33.5 C-58.16454619 31.31287195 -58.16454619 31.31287195 -60.5625 29.5 C-63.3125 26.9375 -63.3125 26.9375 -65.5625 24.5 C-65.5625 23.51 -65.5625 22.52 -65.5625 21.5 C-64.5725 21.603125 -63.5825 21.70625 -62.5625 21.8125 C-57.63435567 21.83241169 -54.48738883 19.20238248 -50.5625 16.5 C-45.90432722 13.74312223 -42.93359075 13.39670979 -37.5625 13.5 C-36.9025 12.84 -36.2425 12.18 -35.5625 11.5 C-35.8925 10.51 -36.2225 9.52 -36.5625 8.5 C-29.37375771 6.68934227 -22.98317436 5.29975706 -15.5625 5.625 C-11.41315592 5.84421945 -11.41315592 5.84421945 -7.6640625 4.3984375 C-3.54528391 0.49758371 -3.54528391 0.49758371 0 0 Z " fill="#CDC3CC" transform="translate(851.5625,137.5)"/>
<path d="M0 0 C-0.185625 0.94875 -0.37125 1.8975 -0.5625 2.875 C-1.28686632 5.89868793 -1.28686632 5.89868793 0 8 C3.02934491 8.65772428 3.02934491 8.65772428 6 9 C5.34 10.98 4.68 12.96 4 15 C8.03654199 14.01547756 10.4887571 12.70365835 13.4375 9.875 C16.22200517 7.33181861 16.82937697 7.01957969 20.8125 6.5625 C24 7 24 7 26 8 C25.43997584 11.53659092 24.32225676 12.95559692 21.5625 15.1875 C20.94503906 15.69667969 20.32757813 16.20585937 19.69140625 16.73046875 C15.57033934 19.8236483 11.16394361 19.35586304 6.1640625 19.62109375 C3.1798101 19.97846719 1.60448792 20.6530438 -1 22 C-4.75 21.625 -4.75 21.625 -8 21 C-7.01 22.65 -6.02 24.3 -5 26 C-10.82254243 27.96818336 -15.83381819 29.40214229 -22 29 C-22.05285156 29.61230469 -22.10570312 30.22460938 -22.16015625 30.85546875 C-23 33 -23 33 -25.37109375 34.23828125 C-26.88896484 34.77001953 -26.88896484 34.77001953 -28.4375 35.3125 C-39.06996021 39.42896192 -39.06996021 39.42896192 -46.2734375 47.71875 C-46.51320312 48.4715625 -46.75296875 49.224375 -47 50 C-46.34 50.33 -45.68 50.66 -45 51 C-44.73832031 51.80179688 -44.47664062 52.60359375 -44.20703125 53.4296875 C-43.22656481 56.19437004 -43.22656481 56.19437004 -40.57421875 57.2578125 C-39.62160156 57.54398438 -38.66898438 57.83015625 -37.6875 58.125 C-33.71162577 59.35084935 -30.54792898 60.84063748 -27 63 C-25.41429059 63.61260316 -23.80961635 64.17907547 -22.1875 64.6875 C-21.39730469 64.93886719 -20.60710937 65.19023437 -19.79296875 65.44921875 C-19.20128906 65.63097656 -18.60960937 65.81273437 -18 66 C-18.23976563 66.74765625 -18.47953125 67.4953125 -18.7265625 68.265625 C-19.02304687 69.25046875 -19.31953125 70.2353125 -19.625 71.25 C-20.07746094 72.71179688 -20.07746094 72.71179688 -20.5390625 74.203125 C-21.05220752 77.31678461 -20.71056541 78.41569255 -19 81 C-15.25523444 80.4939506 -13.41305655 79.92351082 -11 77 C-10.48085407 75.59749059 -10.00458894 74.17867159 -9.5625 72.75 C-7.23435119 67.11294677 -3.05050067 65.24530627 2.22265625 62.60546875 C5.05334791 60.96916176 6.44118845 59.85148454 8 57 C8.17696832 54.99629002 8.17696832 54.99629002 7.875 53 C7.7890625 50.875 7.7890625 50.875 8 49 C10.25 47 10.25 47 13 45 C14.12404008 42.97916261 15.03432668 40.94381041 15.91015625 38.8046875 C17.32845734 36.4561029 18.41212968 35.87786414 21 35 C27.81282904 34.68700632 33.60618191 35.77875106 39 40 C40.32290365 43.30725913 40.11528078 45.65415765 39 49 C40.32 49.99 41.64 50.98 43 52 C43.67546875 51.59007812 44.3509375 51.18015625 45.046875 50.7578125 C45.93890625 50.21898437 46.8309375 49.68015625 47.75 49.125 C48.63171875 48.59132812 49.5134375 48.05765625 50.421875 47.5078125 C52.58274093 46.24403334 54.74570395 45.08501165 57 44 C57.36315666 45.9358351 57.71522731 47.87375248 58.0625 49.8125 C58.25972656 50.89144531 58.45695312 51.97039062 58.66015625 53.08203125 C59 56 59 56 58 59 C58.74851382 61.10234944 58.74851382 61.10234944 59.9375 63.1875 C60.31777344 63.90292969 60.69804687 64.61835938 61.08984375 65.35546875 C61.54037109 66.16951172 61.54037109 66.16951172 62 67 C61.01 67.99 60.02 68.98 59 70 C59.68707031 69.88140625 60.37414062 69.7628125 61.08203125 69.640625 C61.98308594 69.51171875 62.88414062 69.3828125 63.8125 69.25 C65.15248047 69.04117188 65.15248047 69.04117188 66.51953125 68.828125 C69 69 69 69 70.82421875 70.984375 C71.21222656 71.64953125 71.60023438 72.3146875 72 73 C70.76355173 76.71753321 68.72877776 78.00542584 65.30493164 79.73999023 C64.6886792 80.03204346 64.07242676 80.32409668 63.4375 80.625 C62.48315063 81.08338257 62.48315063 81.08338257 61.50952148 81.55102539 C53.81000145 85.14621948 48.09116959 86.07109456 39.625 85.875 C32.58099575 85.77628523 27.33580671 87.0136962 21 90 C20.19046875 90.3815625 19.3809375 90.763125 18.546875 91.15625 C16.68068289 92.06977062 14.83716427 93.02942265 13 94 C13.33 94.66 13.66 95.32 14 96 C14.70125 95.6390625 15.4025 95.278125 16.125 94.90625 C22.09517773 91.98605437 26.35135025 90.37276889 33 91 C31.75023244 94.65316671 31.32901247 95.78065836 28 98 C28.33 99.98 28.66 101.96 29 104 C29.60328125 104.06058594 30.2065625 104.12117188 30.828125 104.18359375 C31.62734375 104.26738281 32.4265625 104.35117187 33.25 104.4375 C34.43335938 104.55931641 34.43335938 104.55931641 35.640625 104.68359375 C37.82364639 104.97634993 39.8773182 105.42064419 42 106 C35.19613517 109.52792991 28.27634736 112.57455088 21 115 C20.34 114.34 19.68 113.68 19 113 C22 111 25 109 28 107 C21.46194758 107.47127838 16.51267191 109.25445878 10.625 112.0625 C9.03529883 112.80648015 7.44421709 113.54751974 5.8515625 114.28515625 C5.15885254 114.61394775 4.46614258 114.94273926 3.75244141 115.28149414 C2 116 2 116 0 116 C0.061875 117.36125 0.061875 117.36125 0.125 118.75 C-1 122 -1 122 -3.08203125 123.18359375 C-5.70136676 124.19284297 -8.33883818 125.10756182 -11 126 C-15.21775376 127.87455723 -17.81266818 129.71306406 -21 133 C-22.546875 133.99 -22.546875 133.99 -24.125 135 C-26.89234393 136.92510882 -27.8919668 137.89750703 -29 141 C-29.66 140.34 -30.32 139.68 -31 139 C-31.144375 139.86625 -31.28875 140.7325 -31.4375 141.625 C-31.623125 142.73875 -31.80875 143.8525 -32 145 C-32.020625 145.969375 -32.04125 146.93875 -32.0625 147.9375 C-33.69784079 153.27961326 -38.23912393 156.47327277 -43.02734375 159.12109375 C-44.34105324 159.74803234 -45.65880775 160.36656511 -46.98046875 160.9765625 C-52.44180007 163.74420042 -57.57275982 167.24966127 -60 173 C-60.1394396 176.3611299 -59.82475055 179.655554 -59.5 183 C-58.46391753 193.67010309 -58.46391753 193.67010309 -62 198 C-62.99 197.67 -63.98 197.34 -65 197 C-67.54010735 191.73162919 -68.30613897 187.79101082 -67.8125 181.98046875 C-67.83506842 179.89867685 -67.83506842 179.89867685 -69.328125 178.23828125 C-71.02156124 176.72720795 -71.02156124 176.72720795 -73.75 177 C-77 177 -77 177 -80.5 175.4375 C-84.37303766 173.8467881 -86.05435604 173.74456783 -90 175 C-91.99301736 176.58066894 -92.86543351 177.73086702 -94 180 C-94.56847656 179.86722656 -95.13695312 179.73445312 -95.72265625 179.59765625 C-97.33649881 179.22854702 -98.95402815 178.87532068 -100.57421875 178.53515625 C-102.52741302 178.10425832 -104.45725016 177.56822217 -106.375 177 C-111.31105989 177 -114.25332915 179.01694076 -118.41015625 181.54296875 C-121 183 -121 183 -124.5 183.625 C-127.2082019 184.75881023 -127.2082019 184.75881023 -127.8828125 187.39453125 C-128.39276047 189.48531792 -128.85381138 191.58844881 -129.2734375 193.69921875 C-129.98076906 196.91263361 -131.00116581 199.71286923 -132.25 202.75 C-134.8922754 209.8061914 -133.69002826 215.34958228 -130.875 222.23828125 C-129.04991225 225.91289989 -127.16371373 227.59405335 -123.3125 228.9375 C-117.7799391 229.04188794 -112.95663533 227.5051041 -108.5625 224.125 C-106.86582467 222.04550565 -106.86582467 222.04550565 -106.125 219.375 C-105 217 -105 217 -102.3125 215.625 C-98.57794903 214.92036774 -95.70769325 215.25846135 -92 216 C-94.05439511 222.73385065 -96.75943685 228.87257995 -99.890625 235.1796875 C-101.35265547 238.01127771 -101.35265547 238.01127771 -100 241 C-99.03578125 240.91621094 -98.0715625 240.83242188 -97.078125 240.74609375 C-95.81484375 240.64425781 -94.5515625 240.54242188 -93.25 240.4375 C-91.99703125 240.33308594 -90.7440625 240.22867188 -89.453125 240.12109375 C-86.60547636 240.02123277 -84.65713933 240.09415705 -82 241 C-80.89579179 245.12544455 -81.20707974 248.20225715 -82 252.375 C-83.15943294 259.2567674 -83.15943294 259.2567674 -82 266 C-79.84628135 268.67759616 -78.11764819 270.47610241 -75 271.9375 C-72.32198555 272.02118795 -70.47374538 271.00127789 -68 270 C-62.71962797 269.32590995 -60.17339468 270.82027072 -56 274 C-52.68550848 270.86467018 -50.32017728 267.90211634 -48 264 C-44.77208445 261.8480563 -43.71599191 261.79913557 -40 262 C-39.67 261.01 -39.34 260.02 -39 259 C-36 257 -36 257 -33.8125 257.375 C-32.9153125 257.684375 -32.9153125 257.684375 -32 258 C-32.33 258.33 -32.66 258.66 -33 259 C-33.23427778 261.01594582 -33.41336124 263.038474 -33.5625 265.0625 C-33.64628906 266.16722656 -33.73007812 267.27195312 -33.81640625 268.41015625 C-33.87699219 269.26480469 -33.93757812 270.11945313 -34 271 C-32.42452044 269.67482482 -32.42452044 269.67482482 -31 268 C-31.23043864 265.34533951 -31.23043864 265.34533951 -32 263 C-27.73891626 258.98240676 -27.73891626 258.98240676 -24.375 259.0625 C-22 260 -22 260 -20.67578125 261.453125 C-17.31406049 264.55625186 -12.3905676 265.16312386 -8 266 C-6.0509375 265.9071875 -6.0509375 265.9071875 -4.0625 265.8125 C3.56180689 265.4501879 11.51772032 271.1649339 17 276 C17.598125 276.99 18.19625 277.98 18.8125 279 C21.62890175 282.86249383 24.45857072 284.58545645 29 286 C31.04323001 286.17166623 31.04323001 286.17166623 33.0625 286.0625 C38.84880377 285.97065391 42.96256843 287.84451974 47.3125 291.5625 C50.92360546 295.36619775 51.42085273 299.94743934 52 305 C52.66 305 53.32 305 54 305 C53.08418164 308.93801896 52.08243533 311.21378588 48.9375 313.6875 C45.7829173 315.73489697 45.7829173 315.73489697 45 319 C45.86625 318.773125 46.7325 318.54625 47.625 318.3125 C51 318 51 318 54.0625 319.5625 C56.87371569 321.32392747 56.87371569 321.32392747 59.625 320.375 C62.02786588 319.0764357 62.02786588 319.0764357 64 317.3125 C66 316 66 316 68.375 316.0625 C71.76162483 317.27200887 74.23819871 318.68779427 77 321 C77.375 323.75 77.375 323.75 77 326 C77.52851563 325.66484375 78.05703125 325.3296875 78.6015625 324.984375 C81.73716855 323.69744874 84.01048802 323.95197796 87.375 324.25 C89.02628906 324.38148438 89.02628906 324.38148438 90.7109375 324.515625 C97.31006702 325.4874683 100.38873376 327.27345211 105 332 C108.15388622 333.81180698 110.6722883 334.93697852 114.25 335.625 C117 337 117 337 117.92578125 338.84375 C119.28402435 343.71009339 119.17765813 347.41802661 117.125 352.02734375 C115.47079826 354.92794055 113.49108205 357.50812353 111.4140625 360.1171875 C109.81182563 362.13322401 109.81182563 362.13322401 108.375 365.25 C107 368 107 368 104.9140625 369.7578125 C102.27519028 372.84906282 102.72095412 374.62243571 103 378.625 C103.47172193 390.60613979 101.24299289 406.64218695 93.25 416.0625 C89.89437307 417.46067789 86.60528262 417 83 417 C80.82671802 418.25495687 80.82671802 418.25495687 79 420 C78.030625 420.474375 77.06125 420.94875 76.0625 421.4375 C71.6067504 423.66027504 71.6067504 423.66027504 68 427 C68.0223654 429.30363648 68.39674241 431.43823675 68.7890625 433.70703125 C69.12195299 437.32567417 67.59807604 439.80384792 66 443 C65.59083974 444.37109333 65.19597314 445.74650177 64.8125 447.125 C62.07504226 455.55463178 56.71137318 464.23057394 50 470 C46.6875 469.9375 46.6875 469.9375 43 469 C42.26523437 468.8246875 41.53046875 468.649375 40.7734375 468.46875 C38.8426167 468.00480719 36.92039477 467.50536704 35 467 C35.433125 467.433125 35.86625 467.86625 36.3125 468.3125 C36.869375 468.869375 37.42625 469.42625 38 470 C38.495 470.433125 38.99 470.86625 39.5 471.3125 C41.66007647 473.74258602 42.86322527 475.94865731 44 479 C43.5625 482.1875 43.5625 482.1875 42 485 C37.36441534 488.27882818 32.51152105 488.64481309 27 489 C27.309375 490.36125 27.309375 490.36125 27.625 491.75 C28.0127245 495.11027897 27.80411967 496.24075815 26 499 C23.36 498.34 20.72 497.68 18 497 C19.16142685 501.35535069 20.07699505 503.64619703 24 506 C23.34 506.66 22.68 507.32 22 508 C22.061875 509.1446875 22.061875 509.1446875 22.125 510.3125 C21.95685495 513.92761868 20.38822965 515.38787382 18 518 C18.95882886 520.95638899 19.50699098 522.64144799 22.0625 524.5 C24 526 24 526 24.75 528.28515625 C25.04843489 531.52597265 24.36050022 533.04116836 22.9375 535.9375 C21.33509875 539.59622504 20.91292099 540.5791181 21.75 544.625 C22.1625 545.40875 22.575 546.1925 23 547 C19.40741858 549.89158993 17.82251115 551.05306524 13.125 550.75 C12.09375 550.5025 11.0625 550.255 10 550 C9.7525 549.195625 9.505 548.39125 9.25 547.5625 C8.8375 546.716875 8.425 545.87125 8 545 C7.36578125 544.85304688 6.7315625 544.70609375 6.078125 544.5546875 C2.71657912 543.65743277 1.91703477 541.26688191 0.21875 538.3984375 C-1.06216879 535.87765501 -2.03415271 533.34358004 -3 530.6875 C-4.28697739 527.24325314 -4.68975377 526.22563362 -7.75 524 C-8.4925 523.67 -9.235 523.34 -10 523 C-10 522.34 -10 521.68 -10 521 C-8.68 520.67 -7.36 520.34 -6 520 C-5.71300862 515.02548281 -5.9233304 512.84583699 -9 509 C-8.9175 508.236875 -8.835 507.47375 -8.75 506.6875 C-9.06460084 503.30554096 -9.94631112 502.93800159 -12.4375 500.75 C-15.4493265 497.99218296 -16.48070985 496.33765469 -16.8125 492.25 C-16.81894531 491.51265625 -16.82539063 490.7753125 -16.83203125 490.015625 C-16.86291362 487.68163629 -16.86291362 487.68163629 -19 485 C-19.17944336 482.7578125 -19.17944336 482.7578125 -19.08984375 480.125 C-19.05697266 478.66126953 -19.05697266 478.66126953 -19.0234375 477.16796875 C-18.99507813 476.12253906 -18.96671875 475.07710937 -18.9375 474 C-18.80228387 465.31496426 -19.34342338 457.22128948 -20.92895508 448.69262695 C-22.09544291 442.19542266 -22.21260117 436.00533775 -22.0078125 429.41796875 C-21.90433907 426.02769836 -21.90433907 426.02769836 -22.53125 422.83984375 C-22.99287268 420.04317966 -22.85955153 418.13979402 -22.375 415.375 C-21.52433565 407.96526582 -23.15396211 401.05750025 -27 394.6875 C-31.3229761 390.24662456 -37.36363952 386.57248021 -43.0234375 384.125 C-48.80842285 381.61206519 -50.6042141 376.67724313 -53.31640625 371.22265625 C-54.71859421 368.53865378 -56.06625675 366.48029372 -58 364.1875 C-61.50035057 359.8470653 -63.39026418 354.79619675 -65.37695312 349.63354492 C-67.19776278 345.10826529 -68.98383769 342.94474749 -73 340 C-74.54306048 337.39540145 -75.08709413 335.02652102 -75 332 C-73.70444834 329.02427978 -72.01119519 326.53761541 -70 324 C-70.99 323.67 -71.98 323.34 -73 323 C-73.74813599 320.30388728 -74.19752281 318.58177484 -73.28515625 315.89453125 C-70.75058864 311.57847842 -68.02227827 307.72321956 -64.8125 303.875 C-60.26419323 298.29688793 -58.7083947 294.07516457 -59.25 286.875 C-59.69730699 283.28017921 -60.58302384 280.34001525 -62 277 C-61.67 276.01 -61.34 275.02 -61 274 C-65.61507774 272.95785309 -65.61507774 272.95785309 -70 274 C-70.65213292 276.02463255 -70.65213292 276.02463255 -71 278 C-78.39278903 275.65594494 -84.26343294 273.21506096 -90 268 C-90.5775 267.525625 -91.155 267.05125 -91.75 266.5625 C-93.5619058 264.29761775 -94.10494506 261.74110574 -95 259 C-95.96113866 257.63838689 -96.95884159 256.30144802 -98 255 C-98.69580267 253.68163705 -99.37224433 252.35208914 -100 251 C-100.33 251.33 -100.66 251.66 -101 252 C-107.11050149 251.62588766 -113.0999698 249.99976669 -117.4765625 245.47265625 C-118.65953328 243.98849966 -119.83028968 242.49462985 -121 241 C-123.45512398 239.23537964 -124.37472009 238.91772633 -127.375 239.3125 C-128.674375 239.6528125 -128.674375 239.6528125 -130 240 C-134.81961987 241.17959493 -137.34323585 240.84902608 -141.80859375 238.71875 C-142.88560547 238.20570313 -143.96261719 237.69265625 -145.07226562 237.1640625 C-146.73805664 236.34035156 -146.73805664 236.34035156 -148.4375 235.5 C-149.54416016 234.98179687 -150.65082031 234.46359375 -151.79101562 233.9296875 C-164.60932786 227.70824725 -164.60932786 227.70824725 -168 222 C-168.01022853 219.42547854 -167.6185422 217.15184645 -167.16015625 214.62109375 C-166.86187914 209.73953419 -169.30962073 205.92999706 -172 202 C-173.04536858 200.85982472 -174.12669101 199.7509717 -175.25 198.6875 C-178.31186135 195.6952264 -178.2271394 194.96459788 -179 191 C-180.32687507 188.63430219 -180.32687507 188.63430219 -181.9375 186.3125 C-185.05340948 181.34348368 -186.28655441 176.78136946 -187 171 C-188.65 170.67 -190.3 170.34 -192 170 C-193.2605576 174.28434914 -192.71603684 176.3892953 -190.8125 180.375 C-188.13448765 186.37821102 -186.46537167 192.29545335 -184.89453125 198.65234375 C-184.11705494 201.56193849 -183.18951153 204.2384468 -182 207 C-185.81434921 205.50150567 -187.80790825 203.44471561 -190 200 C-189.979375 198.989375 -189.95875 197.97875 -189.9375 196.9375 C-189.958125 195.968125 -189.97875 194.99875 -190 194 C-192.40144575 191.84550034 -192.40144575 191.84550034 -195 190 C-196.03993627 187.62300282 -196.18396064 186.56945778 -195.38671875 184.1015625 C-194.89365478 181.42208356 -195.50462794 180.64250797 -196.9375 178.375 C-199.21827468 174.21822977 -199.28725198 170.96509219 -198.9453125 166.296875 C-199.01151271 163.51646616 -199.35270458 162.25223442 -201 160 C-201.99257812 159.566875 -202.98515625 159.13375 -204.0078125 158.6875 C-207 157 -207 157 -208.2421875 153.75 C-208.45101562 152.5125 -208.65984375 151.275 -208.875 150 C-209.09929687 148.7625 -209.32359375 147.525 -209.5546875 146.25 C-210 143 -210 143 -210 140 C-210.309375 138.88625 -210.309375 138.88625 -210.625 137.75 C-211.13571344 134.00476814 -210.32128033 131.52341421 -209 128 C-207.69864875 126.30824337 -206.36244796 124.64295195 -205 123 C-204.37070917 121.74141835 -203.76846214 120.46910747 -203.1875 119.1875 C-201.68366211 116.01404681 -199.97432166 113.73505188 -197.5625 111.1875 C-193.41301545 106.70712983 -191.24324851 101.62362761 -189 96 C-187.35 96 -185.7 96 -184 96 C-183.67 96.99 -183.34 97.98 -183 99 C-181.35 96.69 -179.7 94.38 -178 92 C-180.96203144 87.00686129 -183.7181939 82.91479415 -188 79 C-187.649375 78.443125 -187.29875 77.88625 -186.9375 77.3125 C-185.7513218 75.02770663 -185.7513218 75.02770663 -186.5625 72.625 C-187.16483483 69.01099102 -185.60894778 67.21789556 -184 64 C-184.18068911 61.51176074 -184.18068911 61.51176074 -185 59 C-185.020625 57.824375 -185.04125 56.64875 -185.0625 55.4375 C-185.6107834 52.00992235 -185.6107834 52.00992235 -187.703125 50.76953125 C-189.78590562 49.73180153 -189.78590562 49.73180153 -191.89453125 48.921875 C-194 48 -194 48 -195.703125 46.53125 C-199.17515854 44.21656097 -202.8928796 43.60765445 -206.9375 42.75 C-208.13536133 42.4715625 -208.13536133 42.4715625 -209.35742188 42.1875 C-216.42759625 40.64108241 -220.97315734 41.88398623 -227.62109375 44.4765625 C-230 45 -230 45 -232.86328125 44.3828125 C-237.08910189 43.86708346 -239.06327864 45.19811436 -242.75 47.25 C-247.6047441 49.85834772 -252.23966458 51.84084674 -257.56640625 53.2578125 C-261.34032321 54.40876631 -264.82525415 56.12663487 -268.39453125 57.79296875 C-273.93082751 60.35775967 -278.75384496 62.46846163 -285 62 C-280.92366783 59.28244522 -276.47457139 57.55753707 -271.98046875 55.65429688 C-268.1357092 54.00398574 -264.53469332 52.26636219 -261 50 C-263.00569064 48.72210693 -263.00569064 48.72210693 -265.375 49.625 C-268 50 -268 50 -270.3125 48.5625 C-271.1478125 47.7890625 -271.1478125 47.7890625 -272 47 C-270.7934375 46.4121875 -270.7934375 46.4121875 -269.5625 45.8125 C-266.80400141 44.24450631 -266.80400141 44.24450631 -266.1875 41.5 C-265.96260503 38.91923724 -265.96260503 38.91923724 -266 36 C-261.55295966 32.4545039 -256.41585597 32.02902665 -250.97070312 31.27148438 C-246.03718191 30.48118572 -242.98273705 29.03535672 -239 26 C-241.9366906 24.74547039 -241.9366906 24.74547039 -244.8125 25.5625 C-248.4755813 26.06527587 -250.6107709 25.37183082 -254 24 C-251.41255993 20.83757325 -248.95065796 19.91711703 -245 19 C-242.18397539 18.98367522 -239.39739684 19.06121391 -236.5859375 19.22265625 C-233.52031236 18.95869759 -232.2559497 18.02823647 -230 16 C-230.495 15.54625 -230.99 15.0925 -231.5 14.625 C-233 13 -233 13 -233 11 C-229.65105401 9.55277691 -226.60263652 8.66319875 -223 8.125 C-218.7591037 7.41062442 -214.82985527 6.35660212 -210.75 5 C-199.14662088 1.32926277 -188.02270186 0.47389853 -176 2 C-175.16452637 2.09974121 -174.32905273 2.19948242 -173.46826172 2.30224609 C-154.88802681 4.53395939 -154.88802681 4.53395939 -147.9375 6.6875 C-138.65095201 9.49126609 -129.83657812 8.25366454 -120.6640625 5.6640625 C-117.29267115 4.82368636 -114.45469911 4.8560542 -111 5 C-110.278125 4.79375 -109.55625 4.5875 -108.8125 4.375 C-107 4 -107 4 -105.2421875 4.98046875 C-102.40960947 6.26845284 -100.40767341 6.09529315 -97.3125 5.9375 C-92.33953967 5.84058482 -88.59486196 6.48374638 -83.98046875 8.265625 C-81.36986052 9.23366119 -78.75389645 9.64693635 -76 10 C-76.66 10.99 -77.32 11.98 -78 13 C-77.03578125 12.94199219 -76.0715625 12.88398438 -75.078125 12.82421875 C-73.81484375 12.77910156 -72.5515625 12.73398438 -71.25 12.6875 C-69.99703125 12.62949219 -68.7440625 12.57148438 -67.453125 12.51171875 C-64 13 -64 13 -61.546875 15.51953125 C-61.03640625 16.33808594 -60.5259375 17.15664062 -60 18 C-59.360625 17.21625 -58.72125 16.4325 -58.0625 15.625 C-54.63095909 12.21290124 -50.75199614 11.28874977 -46 11 C-43.65095874 11.6090107 -41.31765729 12.28072705 -39 13 C-37.12504283 13.02438528 -35.2490693 13.00013601 -33.375 12.9375 C-29.05441091 12.83646834 -26.45105718 13.14395268 -23 16 C-22.13375 15.38125 -21.2675 14.7625 -20.375 14.125 C-17 12 -17 12 -13.6875 10.9375 C-12.800625 10.628125 -11.91375 10.31875 -11 10 C-10.67 9.01 -10.34 8.02 -10 7 C-10.99 6.01 -11.98 5.02 -13 4 C-11.59248779 3.13083113 -10.1735479 2.28014851 -8.75 1.4375 C-7.96109375 0.96183594 -7.1721875 0.48617187 -6.359375 -0.00390625 C-3.69155375 -1.13022151 -2.65498232 -1.0169313 0 0 Z " fill="#CDC3CC" transform="translate(293,160)"/>
<path d="M0 0 C0.66 0 1.32 0 2 0 C2.24234375 0.74765625 2.4846875 1.4953125 2.734375 2.265625 C3.06953125 3.25046875 3.4046875 4.2353125 3.75 5.25 C4.07484375 6.22453125 4.3996875 7.1990625 4.734375 8.203125 C6.09126516 11.20168473 7.65218476 12.74194028 10 15 C11.7631248 19.86958277 12.1074949 22.93223151 11.1875 28 C10.70198835 31.63750597 10.70198835 31.63750597 12.203125 34.8515625 C13.41788627 36.09368326 14.64997323 37.3189859 15.89453125 38.53125 C19.12493592 42.31903433 21.00873505 46.68600001 23.07006836 51.18994141 C24.6622516 54.59483418 26.13497501 57.27061982 28.7578125 59.984375 C31.19103795 63.25693606 31.49485743 64.94103545 31.0847168 68.96362305 C30.97426025 69.67687744 30.86380371 70.39013184 30.75 71.125 C30.59688354 72.24225464 30.59688354 72.24225464 30.44067383 73.38208008 C29.256995 80.56213838 26.27737812 86.13840776 22 92 C21.56300781 92.63550781 21.12601563 93.27101563 20.67578125 93.92578125 C18.17428597 97.27495931 15.42658556 98.91263045 11.76171875 100.8046875 C8.95235374 102.71081986 7.31860403 105.361069 5.40234375 108.12109375 C3.59720291 110.53968078 1.35496926 112.12810136 -1 114 C-1.81138356 115.23729254 -2.60193176 116.48841306 -3.375 117.75 C-4.625 119.59765625 -4.625 119.59765625 -6 121 C-9.375 121.1875 -9.375 121.1875 -13 121 C-15.48238178 122.1288197 -17.67014986 123.56624607 -20 125 C-23 125 -23 125 -24.875 123.375 C-25.57625 122.92125 -26.2775 122.4675 -27 122 C-28.1446875 122.495 -28.1446875 122.495 -29.3125 123 C-32 124 -32 124 -35.625 122.75 C-39 121 -39 121 -42 119 C-41.7215625 117.4840625 -41.7215625 117.4840625 -41.4375 115.9375 C-41.00231753 112.02085773 -41.29146979 108.85755337 -42 105 C-42.99 105.99 -43.98 106.98 -45 108 C-45.66 107.67 -46.32 107.34 -47 107 C-45.35 105.02 -43.7 103.04 -42 101 C-42.33 100.34 -42.66 99.68 -43 99 C-44.29373782 99.78827746 -45.58491951 100.58075116 -46.875 101.375 C-47.59429688 101.81585937 -48.31359375 102.25671875 -49.0546875 102.7109375 C-51.11793582 103.9853713 -51.11793582 103.9853713 -53 106 C-53.21914062 105.39671875 -53.43828125 104.7934375 -53.6640625 104.171875 C-53.98117187 103.37265625 -54.29828125 102.5734375 -54.625 101.75 C-54.92664062 100.96109375 -55.22828125 100.1721875 -55.5390625 99.359375 C-57.56616509 96.08565852 -59.58003522 94.75217937 -63 93 C-73.73684922 92.07540588 -85.44698253 94.4647041 -94.91796875 99.57421875 C-98.43946622 101.20330186 -101.33347236 101.576058 -105.1875 101.9375 C-110.0867354 102.45756432 -114.46771034 103.34958414 -119.0625 105.1875 C-123.10219808 106.7961762 -125.75383961 107.59231015 -130 106 C-131.875 104.4375 -131.875 104.4375 -133 103 C-132.071875 101.9171875 -132.071875 101.9171875 -131.125 100.8125 C-127.25084198 95.68493791 -126.84732926 92.62554925 -127.703125 86.44140625 C-128.72883748 78.00627076 -127.77423113 69.4197635 -127 61 C-126.89171875 59.77990234 -126.89171875 59.77990234 -126.78125 58.53515625 C-126.4059631 54.93642299 -125.97003071 52.0526393 -124 49 C-121.98803711 47.75146484 -121.98803711 47.75146484 -119.52734375 46.7109375 C-118.62693359 46.32679688 -117.72652344 45.94265625 -116.79882812 45.546875 C-115.85458984 45.16015625 -114.91035156 44.7734375 -113.9375 44.375 C-112.56174805 43.78332031 -112.56174805 43.78332031 -111.15820312 43.1796875 C-106.10933999 41.06138348 -101.25169461 39.41750715 -95.85888672 38.44238281 C-92.74793109 37.7020293 -91.14443018 36.32823848 -89 34 C-87.48848343 31.40456694 -86.19635078 28.75361185 -85 26 C-83.35 26.33 -81.7 26.66 -80 27 C-80 25.68 -80 24.36 -80 23 C-79.4225 22.79375 -78.845 22.5875 -78.25 22.375 C-75.73713734 21.08665522 -75.73713734 21.08665522 -74.3125 18.0625 C-71.55732084 14.41374922 -69.49612083 13.42746309 -65.18359375 12.1953125 C-63 12 -63 12 -60.125 13.75 C-59.42375 14.4925 -58.7225 15.235 -58 16 C-56.515 16.495 -56.515 16.495 -55 17 C-54.5875 15.9275 -54.175 14.855 -53.75 13.75 C-51.421319 8.46527645 -48.58493728 6.07913321 -43.375 3.625 C-37.95761032 1.57843056 -33.35961407 1.8069836 -28 4 C-26.21484375 5.58984375 -26.21484375 5.58984375 -25 7 C-25.680625 7.86625 -26.36125 8.7325 -27.0625 9.625 C-29.22452122 12.76721058 -29.22452122 12.76721058 -29.0625 15.875 C-27.54270905 20.34497339 -24.79717872 21.87733889 -20.9375 24.375 C-19.94266602 25.04982422 -19.94266602 25.04982422 -18.92773438 25.73828125 C-17.29601292 26.84174756 -15.6493834 27.92311226 -14 29 C-9.60500199 27.02692643 -7.04653182 24.34888013 -5 20 C-4.30503909 16.71134569 -3.86899061 13.44990251 -3.46875 10.11328125 C-2.89283201 6.28822591 -1.75142522 3.42324021 0 0 Z " fill="#CDC3CC" transform="translate(1145,524)"/>
<path d="M0 0 C2.37402501 0.07116382 4.75000677 0.08409085 7.125 0.0625 C8.40632812 0.05347656 9.68765625 0.04445313 11.0078125 0.03515625 C11.99523437 0.02355469 12.98265625 0.01195313 14 0 C12.17316613 2.33708747 11.22426803 2.95751047 8.2578125 3.51953125 C6.70707031 3.66455078 6.70707031 3.66455078 5.125 3.8125 C1.05461283 4.39468871 -1.56100029 4.7728856 -4.3125 7.9375 C-4.869375 8.948125 -5.42625 9.95875 -6 11 C-5.67 11.99 -5.34 12.98 -5 14 C-6.109375 15.71875 -6.109375 15.71875 -7.75 17.5 C-8.54664063 18.38171875 -8.54664063 18.38171875 -9.359375 19.28125 C-9.90078125 19.8484375 -10.4421875 20.415625 -11 21 C-11.69222656 21.78310547 -11.69222656 21.78310547 -12.3984375 22.58203125 C-14.41221265 24.36495901 -16.37856249 25.19727175 -18.875 26.1875 C-19.71804688 26.53167969 -20.56109375 26.87585938 -21.4296875 27.23046875 C-24.09209351 28.02757207 -26.2378985 28.14355008 -29 28 C-27.09753764 30.11384707 -25.28015735 31.47509615 -22.875 33.0625 C-20 35 -20 35 -19 37 C-21.125 37.75 -21.125 37.75 -24 38 C-26.02456848 36.70427617 -28.02678947 35.3726682 -30 34 C-31.485 34.495 -31.485 34.495 -33 35 C-32.67 35.66 -32.34 36.32 -32 37 C-32.99 37.66 -33.98 38.32 -35 39 C-32.98177083 38.90234375 -30.96354167 38.8046875 -28.9453125 38.70703125 C-28.30335938 38.80371094 -27.66140625 38.90039062 -27 39 C-26.34 39.99 -25.68 40.98 -25 42 C-42.64130749 46.30463276 -42.64130749 46.30463276 -48.5625 45.9375 C-55.18984608 45.60727142 -59.88506563 49.59004375 -65.1875 53.125 C-68.61816425 55.14161997 -72.11230163 55.70265522 -76 56.4375 C-85.74601545 58.42375236 -89.18481364 61.49324583 -94.6875 69.6875 C-95.05657471 70.27063965 -95.42564941 70.8537793 -95.8059082 71.45458984 C-97.84131695 74.62241597 -99.33133083 76.83988696 -103 78 C-108.52127302 77.87451652 -112.80319009 75.42030764 -117 72 C-119.61392696 68.43555415 -120.20319443 66.1441342 -119.625 61.875 C-119.41875 60.59625 -119.2125 59.3175 -119 58 C-119.20625 57.278125 -119.4125 56.55625 -119.625 55.8125 C-120 54 -120 54 -119.125 51.625 C-116.50048171 48.382948 -113.56157595 46.67584908 -109.9609375 44.625 C-107.78237297 43.12185118 -107.78237297 43.12185118 -107.21484375 40.44921875 C-106.99112155 37.89878562 -106.95155045 36.338849 -108 34 C-108.66 33.71125 -109.32 33.4225 -110 33.125 C-110.66 32.75375 -111.32 32.3825 -112 32 C-112.36270588 30.00511766 -112.69169075 28.00401011 -113 26 C-115.93481438 20.72510292 -115.93481438 20.72510292 -120.6953125 17.37109375 C-124.93178339 16.68895013 -129.21571437 17.04470071 -133.4921875 17.16015625 C-137.03345052 16.99847275 -139.71295974 16.28164414 -143 15 C-143 13.35 -143 11.7 -143 10 C-141.741875 9.86464844 -140.48375 9.72929687 -139.1875 9.58984375 C-129.53309815 8.42058947 -121.03367209 6.80249269 -112.29101562 2.42553711 C-104.44266626 -1.48487968 -96.255271 -1.52490956 -87.67578125 -0.66796875 C-74.53010679 0.56148282 -61.76997521 -1.14707367 -48.828125 -3.6015625 C-45.16834704 -4.11716658 -41.55980634 -4.06836375 -37.875 -4 C-32.87629389 -3.81521302 -32.87629389 -3.81521302 -27.95703125 -4.515625 C-19.17414456 -6.68943328 -7.87883631 -3.93941816 0 0 Z " fill="#CDC3CC" transform="translate(522,125)"/>
<path d="M0 0 C2.31878701 2.22960289 3.35345682 4.76414185 4.5625 7.6875 C5.61006978 11.07272892 5.61006978 11.07272892 8 12 C8.515625 11.4225 9.03125 10.845 9.5625 10.25 C12.65144584 7.39866538 15.13806176 5.73121369 19 4 C21.65625 4.671875 21.65625 4.671875 25 6 C25.68271973 6.26151855 26.36543945 6.52303711 27.06884766 6.79248047 C48.93800063 15.25841802 48.93800063 15.25841802 56 22 C57.37109375 25.1171875 57.37109375 25.1171875 58 28 C57.67 28.66 57.34 29.32 57 30 C60.99342203 36.90627103 65.44569685 41.47024827 72 46 C70 47 70 47 67.5390625 46.36328125 C66.09660156 45.84314453 66.09660156 45.84314453 64.625 45.3125 C63.66851563 44.97863281 62.71203125 44.64476562 61.7265625 44.30078125 C57.77712358 42.41659334 55.61938451 39.81294217 53 36.375 C51.01255354 34.01490733 49.92825489 32.88734997 47 32 C44.43810155 31.84525388 44.43810155 31.84525388 42 33 C39.66585353 35.95849927 39.66585353 35.95849927 38 39 C32.12443436 38.60829562 30.1250599 38.2625619 26 34 C22.91652174 33.83318891 22.91652174 33.83318891 20 34 C19.34 33.34 18.68 32.68 18 32 C19.32 30.68 20.64 29.36 22 28 C19.90911991 22.64401368 17.33422366 20.50972452 12.25 18.1875 C11.65445312 17.88908203 11.05890625 17.59066406 10.4453125 17.28320312 C6.24392294 15.26890056 2.5725459 14.45139235 -2 14 C-2.625 11.625 -2.625 11.625 -3 9 C-2.34 8.34 -1.68 7.68 -1 7 C-3.64 5.68 -6.28 4.36 -9 3 C-5.99240531 0.3265825 -4.04550278 -0.72611588 0 0 Z " fill="#CDC3CC" transform="translate(1111,476)"/>
<path d="M0 0 C2.37948772 0.17625835 3.70225849 0.69719773 5.37890625 2.40234375 C6.62115486 3.90649092 7.81376056 5.45129851 9 7 C8.319375 7.845625 7.63875 8.69125 6.9375 9.5625 C4.57261506 13.7582636 4.75059105 15.41883385 6 20 C7.4421908 22.85248773 7.4421908 22.85248773 9 25 C8.38253906 25.39703125 7.76507812 25.7940625 7.12890625 26.203125 C4.67302726 28.27597699 4.01326469 29.75089844 2.9375 32.75 C2.60621094 33.63171875 2.27492188 34.5134375 1.93359375 35.421875 C1.62550781 36.27265625 1.31742188 37.1234375 1 38 C-1.35228502 44.47764921 -1.35228502 44.47764921 -3.9375 46.5625 C-6 47 -6 47 -7.71875 46.0625 C-10.7016607 44.67319912 -13.28585218 44.61270187 -16.5625 44.4375 C-19.9943074 44.24662762 -22.73487598 44.08837467 -26 43 C-28.77664705 37.46585519 -30.74163939 31.20065467 -31 25 C-30.01 23.515 -30.01 23.515 -29 22 C-27.35 22.33 -25.7 22.66 -24 23 C-23.443125 21.8553125 -23.443125 21.8553125 -22.875 20.6875 C-21 18 -21 18 -18 16.5625 C-14.75956365 15.26088008 -14.75956365 15.26088008 -13.625 12.0625 C-11.59503118 8.23678954 -9.77442647 7.68469443 -5.94140625 6.01171875 C-3.1919108 4.57888309 -1.6968918 2.54533769 0 0 Z " fill="#CDC3CC" transform="translate(1041,443)"/>
<path d="M0 0 C-1.32 1.32 -2.64 2.64 -4 4 C-3.67 4.66 -3.34 5.32 -3 6 C-2.175 5.195625 -1.35 4.39125 -0.5 3.5625 C2.53004399 1.08014001 5.02147472 0.02328202 8.92578125 -0.2890625 C12.21949473 0.16994842 14.40271696 2.02298593 17.05078125 3.9375 C20.05955037 5.5775505 22.71441414 4.50547475 26 4 C27.36639342 5.6396721 28.6949419 7.31110128 30 9 C32.33182852 9.94923993 34.63422 10.611571 37.07421875 11.2265625 C37.70972656 11.48179687 38.34523438 11.73703125 39 12 C40 15 40 15 40.125 17.375 C41.4555996 21.3667988 44.51789238 22.86345877 48 25 C46.56 29.68 46.56 29.68 44.25 31 C42 31 42 31 39 29.4375 C36.14730804 27.63975559 36.14730804 27.63975559 33.625 28.8125 C33.08875 29.204375 32.5525 29.59625 32 30 C32.350625 30.556875 32.70125 31.11375 33.0625 31.6875 C34.23176473 34.57168632 33.94934202 36.07286212 33 39 C32.01 39.495 32.01 39.495 31 40 C30.38125 39.67 29.7625 39.34 29.125 39 C26.58494029 37.80467778 25.58441461 38.07699478 23 39 C25.475 40.98 25.475 40.98 28 43 C27 44 27 44 24.4375 44.375 C19.81601832 43.87083836 16.50777913 42.02910565 13 39 C11.26171875 36.32421875 11.26171875 36.32421875 10 34 C9.15695312 34.09539062 8.31390625 34.19078125 7.4453125 34.2890625 C6.34960938 34.39992187 5.25390625 34.51078125 4.125 34.625 C2.48917969 34.79902344 2.48917969 34.79902344 0.8203125 34.9765625 C-0.57574219 34.98816406 -0.57574219 34.98816406 -2 35 C-2.66 34.34 -3.32 33.68 -4 33 C0.12978536 30.24680976 3.25761759 31.02091807 8.08984375 31.3203125 C11.73070086 30.91957386 12.67486822 29.72655587 15 27 C17.58928701 25.91416997 18.79687326 25.9554112 21.5625 26.5625 C24.24805134 27.33510992 24.24805134 27.33510992 27 25 C26.278125 24.67 25.55625 24.34 24.8125 24 C22.02840252 22.02019735 21.16052713 20.86770399 19.5 18 C17.41760291 14.51648388 16.02845871 12.28178232 12 11 C9.79229064 11.35752378 7.68921592 11.92547134 5.53125 12.51171875 C0.98041301 13.38958082 -3.44843784 12.62472422 -8 12 C-9.08087891 11.87044922 -9.08087891 11.87044922 -10.18359375 11.73828125 C-12.67094112 11.42283803 -14.74225089 11.12887456 -17 10 C-15.81881152 5.40648925 -13.57631079 3.60818108 -9.8515625 1.015625 C-6.31436599 -0.92460937 -3.83532047 -1.23278158 0 0 Z " fill="#CDC3CC" transform="translate(322,152)"/>
<path d="M0 0 C2.99206114 2.99206114 3.72955335 6.07559976 4.12719727 10.22436523 C3.85951743 16.06553994 1.35885804 21.42223581 -0.75 26.8125 C-3.74107523 34.64083673 -6.51973213 42.28897554 -8.33300781 50.4831543 C-8.97467954 52.90445513 -9.70092839 54.86147693 -11 57 C-13.0234375 57.8984375 -13.0234375 57.8984375 -15.375 58.375 C-16.14585937 58.54773438 -16.91671875 58.72046875 -17.7109375 58.8984375 C-20.473126 59.02099194 -21.75331157 58.59917124 -24 57 C-25.54567514 52.36297457 -26.7127837 47.88765963 -26 43 C-25.19633378 41.81270216 -24.35867493 40.64814325 -23.5 39.5 C-20.12424048 34.62075094 -20.68741824 29.91179037 -21.01953125 24.171875 C-21.00012552 21.02038473 -20.86907855 19.5058624 -19 17 C-17.08249917 16.30573246 -15.16301299 15.6160654 -13.23046875 14.96484375 C-7.80519541 12.61800922 -3.34911892 8.49966257 -1 3.0625 C-0.67 2.051875 -0.34 1.04125 0 0 Z " fill="#CDC3CC" transform="translate(759,529)"/>
<path d="M0 0 C2.875 2.375 2.875 2.375 5 5 C5 5.99 5 6.98 5 8 C4.071875 7.938125 3.14375 7.87625 2.1875 7.8125 C-0.98395103 7.69105736 -0.98395103 7.69105736 -2.875 9.5 C-3.24625 9.995 -3.6175 10.49 -4 11 C-3.07933074 15.02792802 -1.40632779 16.68463941 1.9375 18.875 C3.95024875 20.21059104 3.95024875 20.21059104 6 21 C6.99 20.67 7.98 20.34 9 20 C13 24.625 13 24.625 13 28 C11.35 28.33 9.7 28.66 8 29 C10.27307664 32.67840889 10.27307664 32.67840889 13 36 C13.425611 39.0522389 13.48132173 41.95345222 13 45 C10.875 47.1875 10.875 47.1875 8 48 C2.54772944 47.00867808 -2.25319073 43.76369784 -7 41 C-6.96519531 40.27554688 -6.93039062 39.55109375 -6.89453125 38.8046875 C-6.64312852 29.82601846 -8.64662328 25.15850466 -14.6953125 18.61328125 C-16 17 -16 17 -17 14 C-17.99 13.34 -18.98 12.68 -20 12 C-18.66419209 7.81206167 -17.0759681 5.85769718 -13.5625 3.25 C-12.78003906 2.65703125 -11.99757813 2.0640625 -11.19140625 1.453125 C-7.18599672 -1.20286849 -4.55499042 -1.27539732 0 0 Z " fill="#FFFFFF" transform="translate(755,261)"/>
<path d="M0 0 C0.495 0.99 0.495 0.99 1 2 C2.97606787 2.76677392 2.97606787 2.76677392 5.3125 3.25 C6.09238281 3.44078125 6.87226563 3.6315625 7.67578125 3.828125 C10.40528247 4.02997047 11.69765978 3.41196151 14 2 C14.495 3.98 14.495 3.98 15 6 C17.46800047 4.84826645 19.04783565 3.95216435 21 2 C22.32 2 23.64 2 25 2 C23.125 7.75 23.125 7.75 22 10 C24.475 11.485 24.475 11.485 27 13 C23.27679937 16.03371903 20.05444685 18.09236614 15.1328125 17.87109375 C13.64394531 17.65646484 13.64394531 17.65646484 12.125 17.4375 C6.7211384 16.85169771 3.98530852 17.82459264 -1 20 C-8.26957108 20.34041798 -13.78490478 18.63524437 -20 15 C-20 14.67 -20 14.34 -20 14 C-13.565 13.505 -13.565 13.505 -7 13 C-7 12.67 -7 12.34 -7 12 C-12.445 11.505 -12.445 11.505 -18 11 C-18 10.67 -18 10.34 -18 10 C-16.35 9.67 -14.7 9.34 -13 9 C-15.69373998 7.16825682 -17.0029867 7.00022541 -20.3125 7.25 C-23.96398452 7.99267482 -27.43984923 8.91015793 -31 10 C-31.99 8.68 -32.98 7.36 -34 6 C-31.58618654 4.68200981 -29.16922404 3.37049082 -26.75 2.0625 C-26.06808594 1.68931641 -25.38617188 1.31613281 -24.68359375 0.93164062 C-24.01972656 0.57392578 -23.35585937 0.21621094 -22.671875 -0.15234375 C-22.0644043 -0.48226318 -21.45693359 -0.81218262 -20.83105469 -1.15209961 C-14.17031368 -4.23646675 -6.57267874 -2.79338847 0 0 Z " fill="#CDC3CC" transform="translate(237,151)"/>
<path d="M0 0 C6.08614539 0.31211002 10.41993262 3.20837749 15 7 C15.9590625 8.4540625 15.9590625 8.4540625 16.9375 9.9375 C19.57049755 13.84710242 22.7515453 15.8299582 26.66015625 18.38671875 C28.71836945 19.80582067 30.39280598 21.09307205 32 23 C32.12375 23.78375 32.2475 24.5675 32.375 25.375 C33.46426783 29.94992489 37.25929542 32.37713479 40.75 35.3125 C43.28231429 38.33720874 43.98484707 40.19510376 44.28515625 44.0625 C43.78890001 47.43432322 41.56793648 48.9957569 39 51 C30.36481425 47.97768499 25.68950942 39.75365951 21.875 31.875 C21.400625 30.86953125 20.92625 29.8640625 20.4375 28.828125 C18.73533595 25.47930225 16.69938991 22.65815014 14.36328125 19.73046875 C13 18 13 18 11.0625 14.9375 C9.28443864 12.40510958 7.59104683 10.55759429 5.375 8.4375 C2.66143326 5.82271406 1.01405156 3.71818907 0 0 Z " fill="#CDC3CC" transform="translate(953,448)"/>
<path d="M0 0 C-8.96435412 7.00150458 -18.78415633 9.0766097 -29.76293945 11.12451172 C-35.6764957 12.27694794 -39.90893933 13.79755861 -45 17 C-46.85439314 17.7606492 -48.72905478 18.47480553 -50.625 19.125 C-53.35969401 20.07313173 -55.97503053 20.9880056 -58.5859375 22.2421875 C-61 23 -61 23 -62.9375 22.12109375 C-63.9584375 21.56615234 -63.9584375 21.56615234 -65 21 C-68.06306641 20.90427917 -71.06534632 21.065849 -74.125 21.22265625 C-77.38297993 20.97033987 -78.63139474 20.18071109 -81 18 C-80.25234375 18.02320313 -79.5046875 18.04640625 -78.734375 18.0703125 C-77.74953125 18.08835938 -76.7646875 18.10640625 -75.75 18.125 C-74.77546875 18.14820313 -73.8009375 18.17140625 -72.796875 18.1953125 C-69.9803502 17.99862781 -68.39050964 17.44568916 -66 16 C-66.99 15.34 -67.98 14.68 -69 14 C-66.36 14 -63.72 14 -61 14 C-61.66 12.68 -62.32 11.36 -63 10 C-56.97687874 8.85273881 -51.13137749 8.99757233 -45.01171875 9.16015625 C-41.88469656 9.33040312 -41.88469656 9.33040312 -40 7 C-40.68964844 7.01160156 -41.37929688 7.02320312 -42.08984375 7.03515625 C-48.15772652 7.09342124 -53.98357396 6.78903948 -60 6 C-60 5.67 -60 5.34 -60 5 C-16.89272032 -0.16335395 -16.89272032 -0.16335395 0 0 Z " fill="#CDC3CC" transform="translate(410,120)"/>
<path d="M0 0 C2.43044773 2.26841789 2.96070783 3.42371483 3.1875 6.75 C3.0946875 7.86375 3.0946875 7.86375 3 9 C4.78228936 10.14209817 4.78228936 10.14209817 7 11 C7.639375 10.773125 8.27875 10.54625 8.9375 10.3125 C9.618125 10.209375 10.29875 10.10625 11 10 C13.75 12.4375 13.75 12.4375 16 15 C15.34 16.32 14.68 17.64 14 19 C12.35 18.67 10.7 18.34 9 18 C8.9071875 18.928125 8.9071875 18.928125 8.8125 19.875 C8 22 8 22 5.4375 23.25 C4.633125 23.4975 3.82875 23.745 3 24 C1.68 22.68 0.36 21.36 -1 20 C0.32 18.02 1.64 16.04 3 14 C-2.79553933 15.52318662 -6.77602561 16.62670935 -10 22 C-10.99625146 24.06394725 -11.97262151 26.12357612 -12.875 28.23046875 C-14.26686307 30.41975337 -15.63029688 31.03730811 -18 32 C-18.99 30.68 -19.98 29.36 -21 28 C-19.78496208 25.88649731 -18.55421106 23.78525602 -17.3125 21.6875 C-16.97283203 21.09259766 -16.63316406 20.49769531 -16.28320312 19.88476562 C-12.41438449 13.41262978 -8.10644547 11.81144689 -1 10 C-1.9075 10.04125 -2.815 10.0825 -3.75 10.125 C-7 10 -7 10 -9.0625 8.9375 C-12.22577145 7.40688478 -14.8633878 8.62112927 -18.0625 9.6875 C-20.61209669 10.09872527 -21.83666008 9.31345638 -24 8 C-21.73885854 4.41336182 -20.43063935 2.42671808 -16.2890625 1.19140625 C-14.34109149 0.86163163 -12.38600784 0.57090491 -10.42578125 0.32421875 C-2.6800659 -0.71103789 -2.6800659 -0.71103789 0 0 Z " fill="#FFFFFF" transform="translate(246,253)"/>
<path d="M0 0 C3.35447625 1.17859976 5.83924737 2.1189965 8 5 C9.74902609 9.27539711 10.41898513 13.43488318 11 18 C11.2475 18.886875 11.495 19.77375 11.75 20.6875 C12 23 12 23 10.75 25.25 C8.05091715 27.94908285 6.09099681 27.99845768 2.3125 28.0625 C1.219375 28.041875 0.12625 28.02125 -1 28 C-1.33 29.98 -1.66 31.96 -2 34 C-2.515625 33.34 -3.03125 32.68 -3.5625 32 C-6.88174086 29.27652032 -8.78209141 29.64255012 -13 30 C-14.258125 30.20625 -15.51625 30.4125 -16.8125 30.625 C-17.864375 30.74875 -18.91625 30.8725 -20 31 C-20.66 30.34 -21.32 29.68 -22 29 C-17.81333722 26.05030577 -14.82715161 24.23559597 -9.75 23.8125 C-4.38130185 22.22629373 -0.1480618 18.88610153 2.75 14.125 C3.06688797 10.16390039 1.8876673 8.15770843 -0.15234375 4.83203125 C-1 3 -1 3 0 0 Z " fill="#CDC3CC" transform="translate(1096,287)"/>
<path d="M0 0 C2.21736634 1.10868317 4.03617993 2.49440461 6 4 C5.01 5.32 4.02 6.64 3 8 C3.7425 8.350625 4.485 8.70125 5.25 9.0625 C8.76623866 11.53984996 10.04361943 14.26586491 12 18 C13.95777406 21.17592297 13.95777406 21.17592297 17.1875 22.75 C17.785625 22.8325 18.38375 22.915 19 23 C17.68 24.65 16.36 26.3 15 28 C15.33 28.66 15.66 29.32 16 30 C8.74 30.99 1.48 31.98 -6 33 C-3.53721199 30.53721199 -1.29323018 30.00228745 2 29 C1.071875 28.566875 1.071875 28.566875 0.125 28.125 C-2 27 -2 27 -4 25 C-3.34 24.67 -2.68 24.34 -2 24 C-2 23.01 -2 22.02 -2 21 C-0.35 20.34 1.3 19.68 3 19 C2.67 17.02 2.34 15.04 2 13 C0.35 12.67 -1.3 12.34 -3 12 C-4.22159091 5.64772727 -4.22159091 5.64772727 -3.1875 2.625 C-2 1 -2 1 0 0 Z " fill="#CDC3CC" transform="translate(549,213)"/>
<path d="M0 0 C1.5625 1.25 1.5625 1.25 3 3 C2.9609375 5.02734375 2.9609375 5.02734375 2 7 C0.0390625 8.37890625 0.0390625 8.37890625 -2.375 9.5625 C-5.47234761 11.10108473 -7.58257144 12.55593311 -10 15 C-11.72048196 15.71416232 -13.44179226 16.42660825 -15.171875 17.1171875 C-18.16364239 18.56192987 -20.48206712 20.8570784 -23 23 C-27.90949141 26.09511415 -31.34155898 26.47153675 -37 26 C-37.66 25.34 -38.32 24.68 -39 24 C-34.65958093 18.80255551 -29.60139444 16.8168225 -23.4375 14.25 C-14.63169987 10.44009042 -7.23615062 6.32018219 0 0 Z " fill="#CDC3CC" transform="translate(1219,657)"/>
<path d="M0 0 C0.66 0.33 1.32 0.66 2 1 C0.96556141 3.82119614 0.26779294 4.84496198 -2.375 6.375 C-5 7 -5 7 -6.8125 6.0625 C-10.2889295 4.37394853 -13.24169841 5.3736164 -17 6 C-17.33 7.32 -17.66 8.64 -18 10 C-14.00439392 12.83022097 -10.57262677 11.76210446 -6 11 C-7.65 12.65 -9.3 14.3 -11 16 C-10.67 16.86625 -10.34 17.7325 -10 18.625 C-9.01268659 21.95718275 -8.83579026 24.55159538 -9 28 C-12.16717283 26.41641358 -13.73268318 25.54736301 -15.3125 22.3125 C-15.539375 21.549375 -15.76625 20.78625 -16 20 C-16.99 20.66 -17.98 21.32 -19 22 C-18.67 24.97 -18.34 27.94 -18 31 C-19.32 31.33 -20.64 31.66 -22 32 C-22.50493003 29.98027989 -23.00950643 27.96078598 -23.5 25.9375 C-23.92981688 24.2719596 -24.45605447 22.63183658 -25 21 C-24.566875 20.34 -24.13375 19.68 -23.6875 19 C-21.57936955 15.25221254 -21.23346728 11.85436675 -20.72265625 7.62109375 C-19.80928808 4.30828271 -18.80122258 2.98597675 -16 1 C-13.125 0.8984375 -13.125 0.8984375 -10 1.375 C-5.77374468 1.99837266 -3.72125176 2.07659139 0 0 Z " fill="#CDC3CC" transform="translate(1075,466)"/>
<path d="M0 0 C0.99 0.66 1.98 1.32 3 2 C2.95875 3.093125 2.9175 4.18625 2.875 5.3125 C2.62322855 9.17421913 2.62322855 9.17421913 5.5 11.9375 C6.325 12.618125 7.15 13.29875 8 14 C8.99 13.67 9.98 13.34 11 13 C10.37629091 15.72872728 9.63189006 17.52230321 7.3671875 19.234375 C5.99676723 20.06200136 4.61579205 20.8723191 3.2265625 21.66796875 C0.23644263 23.45679485 -2.42542072 25.58897364 -5.140625 27.765625 C-7.10192145 29.06766214 -8.70006919 29.57257923 -11 30 C-11.33 29.34 -11.66 28.68 -12 28 C-11.319375 27.4225 -10.63875 26.845 -9.9375 26.25 C-9.298125 25.5075 -8.65875 24.765 -8 24 C-8.13641377 21.78141747 -8.13641377 21.78141747 -9 20 C-5.8459821 17.28404014 -4.12615036 16.03153759 0 15 C0 10.05 0 5.1 0 0 Z " fill="#CDC3CC" transform="translate(1238,631)"/>
<path d="M0 0 C1.17369141 0.11794922 1.17369141 0.11794922 2.37109375 0.23828125 C4.5625 0.6875 4.5625 0.6875 7.5625 2.6875 C10.37710831 2.54569531 13.08675781 2.11166172 15.87109375 1.68359375 C19.20449585 1.68843178 20.05715763 2.58241943 22.5625 4.6875 C24.28938742 5.46983233 26.04123647 6.19912313 27.8125 6.875 C28.70453125 7.21917969 29.5965625 7.56335938 30.515625 7.91796875 C31.19109375 8.17191406 31.8665625 8.42585938 32.5625 8.6875 C32.2325 9.3475 31.9025 10.0075 31.5625 10.6875 C28.66554831 10.40472382 25.7702705 10.11162587 22.875 9.8125 C21.65006836 9.69455078 21.65006836 9.69455078 20.40039062 9.57421875 C16.08181247 9.11963158 12.5794126 8.41215269 8.5625 6.6875 C6.60786326 6.71954323 4.65309404 6.75313791 2.69921875 6.81640625 C-1.00092204 6.59318021 -4.05203382 5.13841408 -7.4375 3.6875 C-7.1075 2.6975 -6.7775 1.7075 -6.4375 0.6875 C-3.97648622 -0.54300689 -2.71323817 -0.29850075 0 0 Z " fill="#CDC3CC" transform="translate(1002.4375,501.3125)"/>
<path d="M0 0 C0.66 0.99 1.32 1.98 2 3 C-3.40815453 7.48104232 -10.0185526 9.50194931 -17 10 C-19.7578125 8.609375 -19.7578125 8.609375 -22 7 C-24.19130534 6.30420546 -24.19130534 6.30420546 -26 6 C-25.67 5.01 -25.34 4.02 -25 3 C-19.32520812 0.31194069 -15.21319139 -0.21061666 -9 0 C-5.46474216 -1.17841928 -3.5797952 -0.91399027 0 0 Z " fill="#CDC3CC" transform="translate(520,181)"/>
<path d="M0 0 C2.87978892 1.51214723 5.52237554 3.27233419 8.1796875 5.14453125 C9.2728125 5.68078125 10.3659375 6.21703125 11.4921875 6.76953125 C14.1796875 8.14453125 14.1796875 8.14453125 15.1796875 10.14453125 C8.99135908 11.33877007 5.71648391 11.24513724 0.1796875 8.14453125 C-0.4803125 7.15453125 -1.1403125 6.16453125 -1.8203125 5.14453125 C-4.70318235 3.63875217 -4.70318235 3.63875217 -8.0703125 2.39453125 C-9.18921875 1.9459375 -10.308125 1.49734375 -11.4609375 1.03515625 C-15.09356492 0.07208758 -17.20797402 0.25935482 -20.8203125 1.14453125 C-22.2434375 1.42296875 -22.2434375 1.42296875 -23.6953125 1.70703125 C-24.7471875 1.92359375 -24.7471875 1.92359375 -25.8203125 2.14453125 C-25.8203125 1.48453125 -25.8203125 0.82453125 -25.8203125 0.14453125 C-17.86859406 -5.15661438 -8.34986912 -3.77478109 0 0 Z " fill="#CDC3CC" transform="translate(237.8203125,370.85546875)"/>
<path d="M0 0 C1.875 0.0625 1.875 0.0625 4 1 C5.875 3.5 5.875 3.5 7 7 C6.59765625 9.2578125 6.59765625 9.2578125 5.9375 11.625 C5.27188204 13.88008058 5.27188204 13.88008058 5 16 C6.37716666 18.71107713 6.37716666 18.71107713 9 20 C11.58354218 20.16687448 11.58354218 20.16687448 14 20 C14.66 20.66 15.32 21.32 16 22 C15.67 22.99 15.34 23.98 15 25 C7.77174593 23.99140641 3.80620251 22.52350676 -0.765625 16.78515625 C-2.9532006 13.62147889 -3.24142497 11.49478015 -2.6328125 7.7265625 C-1.31894841 1.31894841 -1.31894841 1.31894841 0 0 Z " fill="#CDC3CC" transform="translate(1053,389)"/>
<path d="M0 0 C0.66 0.33 1.32 0.66 2 1 C1.01 2.485 1.01 2.485 0 4 C0.33 4.66 0.66 5.32 1 6 C1.969375 6.268125 2.93875 6.53625 3.9375 6.8125 C7 8 7 8 8.375 10.625 C8.58125 11.40875 8.7875 12.1925 9 13 C1.54576023 16.13862727 -6.20479924 15.35568709 -14 14 C-9.76937956 8.8023806 -5.52045063 3.88476156 0 0 Z " fill="#CDC3CC" transform="translate(358,243)"/>
<path d="M0 0 C1.134375 0.020625 2.26875 0.04125 3.4375 0.0625 C3.4375 8.60150709 3.4375 8.60150709 1.4375 12.0625 C-2.17210152 14.28000264 -6.27278923 16.0625 -10.5625 16.0625 C-11.92615959 12.38061911 -11.00948622 10.58952891 -9.5625 7.0625 C-9.8925 6.0725 -10.2225 5.0825 -10.5625 4.0625 C-9.593125 3.588125 -8.62375 3.11375 -7.625 2.625 C-2.56831395 0.04505814 -2.56831395 0.04505814 0 0 Z " fill="#CDC3CC" transform="translate(538.5625,224.9375)"/>
<path d="M0 0 C0.62374512 0.34289062 1.24749023 0.68578125 1.89013672 1.0390625 C4.23796483 2.10838111 5.69740929 2.20746434 8.2578125 2.125 C9.04800781 2.10953125 9.83820313 2.0940625 10.65234375 2.078125 C11.46832031 2.05234375 12.28429687 2.0265625 13.125 2 C16.10579877 1.90670426 19.01377326 1.90649779 22 2 C22.66 2.66 23.32 3.32 24 4 C19.44771801 6.6620298 16.52401885 7.31172641 11.2890625 6.85546875 C10.04511719 6.75556641 8.80117188 6.65566406 7.51953125 6.55273438 C5.59173828 6.37194336 5.59173828 6.37194336 3.625 6.1875 C1.66240234 6.02411133 1.66240234 6.02411133 -0.33984375 5.85742188 C-3.56154122 5.58698742 -6.78100885 5.30068895 -10 5 C-9.21875 1.1640625 -9.21875 1.1640625 -7.25 -0.3125 C-4.40773613 -1.18096951 -2.83111409 -0.84933423 0 0 Z " fill="#CDC3CC" transform="translate(322,142)"/>
<path d="M0 0 C1.59373901 2.39060851 2.65297076 4.30828179 3.6875 6.9375 C3.95949219 7.60652344 4.23148438 8.27554687 4.51171875 8.96484375 C5.0787676 11.32830338 4.76024003 12.7192799 4 15 C3.01 14.67 2.02 14.34 1 14 C1.33 15.32 1.66 16.64 2 18 C0.35 18.33 -1.3 18.66 -3 19 C-4.32 16.36 -5.64 13.72 -7 11 C-8.98 11 -10.96 11 -13 11 C-12.34 9.68 -11.68 8.36 -11 7 C-10.0925 7.0825 -9.185 7.165 -8.25 7.25 C-4.93932967 7.29757354 -4.93932967 7.29757354 -2.6875 5.1875 C-0.82368826 3.01952395 -0.82368826 3.01952395 0 0 Z " fill="#CDC3CC" transform="translate(1077,428)"/>
<path d="M0 0 C0.70962891 0.48919922 0.70962891 0.48919922 1.43359375 0.98828125 C5.89842683 3.9387265 10.05786732 5.88238829 15.21484375 7.32421875 C17 8 17 8 18 10 C16.68 10.33 15.36 10.66 14 11 C14 11.99 14 12.98 14 14 C11.03 13.67 8.06 13.34 5 13 C4.67 14.32 4.34 15.64 4 17 C1.875 14.3125 1.875 14.3125 0 11 C0.875 8.5 0.875 8.5 2 6 C1.22148021 2.7447571 1.22148021 2.7447571 0 0 Z " fill="#CDC3CC" transform="translate(1089,268)"/>
<path d="M0 0 C3.8887393 0.55358152 6.27604719 1.63262621 9.4375 3.9375 C12.8647025 6.32737198 15.90867534 7.95094239 20 9 C20 9.33 20 9.66 20 10 C5.84491746 11.76672459 5.84491746 11.76672459 0 8 C-1.5625 6.0625 -1.5625 6.0625 -2 4 C-1.125 1.75 -1.125 1.75 0 0 Z " fill="#CDC3CC" transform="translate(316,710)"/>
<path d="M0 0 C1.8671875 0.3046875 1.8671875 0.3046875 4 1 C5.13454876 2.66845405 6.26553197 4.33954253 7.37109375 6.02734375 C9.98476508 9.19258122 13.34195972 11.15634351 16.79296875 13.32421875 C19.09786046 15.07430467 19.96119093 16.3362382 21 19 C20.01 19.33 19.02 19.66 18 20 C20.64 23.3 23.28 26.6 26 30 C24.68 30.33 23.36 30.66 22 31 C19.15935928 27.83159304 17.22698838 24.57748272 15.3125 20.8125 C12.54189053 15.57519996 9.15973256 11.53284986 5.05078125 7.2890625 C2.9937203 4.99299066 1.49580547 2.68770127 0 0 Z " fill="#CDC3CC" transform="translate(1064,233)"/>
<path d="M0 0 C7.28695785 -0.474377 11.97181491 -0.28670939 18 4 C11.87589351 7.28374036 5.82299606 8.63158601 -1 7 C-3.33257494 6.66140041 -5.66574212 6.3267961 -8 6 C-8 5.67 -8 5.34 -8 5 C-3.545 4.505 -3.545 4.505 1 4 C0.67 2.68 0.34 1.36 0 0 Z " fill="#CDC3CC" transform="translate(257,383)"/>
<path d="M0 0 C1.4025 0.144375 2.805 0.28875 4.25 0.4375 C5.43335938 0.55931641 5.43335938 0.55931641 6.640625 0.68359375 C8.82364639 0.97634993 10.8773182 1.42064419 13 2 C10.05134316 7.18963604 7.49063327 9.54882443 2 12 C0.68 11.67 -0.64 11.34 -2 11 C-1.34 7.37 -0.68 3.74 0 0 Z " fill="#CDC3CC" transform="translate(1112,658)"/>
<path d="M0 0 C4.22171465 3.66622588 5.95945148 6.48509285 7 12 C6.67 12.66 6.34 13.32 6 14 C3.4375 14.625 3.4375 14.625 1 15 C-1.32086397 9.675665 -0.91457003 5.56157448 0 0 Z " fill="#CDC3CC" transform="translate(889,430)"/>
<path d="M0 0 C-3.29373997 5.61155698 -3.29373997 5.61155698 -6.5 7.375 C-9 8 -9 8 -13 8 C-14.625 6.625 -14.625 6.625 -16 5 C-16.66 4.34 -17.32 3.68 -18 3 C-15.69 3 -13.38 3 -11 3 C-10.67 2.34 -10.34 1.68 -10 1 C-3.67567568 -1.22522523 -3.67567568 -1.22522523 0 0 Z " fill="#CDC3CC" transform="translate(290,151)"/>
<path d="M0 0 C2.89713504 0.92461757 4.67554684 1.93654143 6.9375 3.9375 C6.2775 5.2575 5.6175 6.5775 4.9375 7.9375 C4.091875 7.586875 3.24625 7.23625 2.375 6.875 C-1.51267533 5.81472491 -4.14675639 6.15435128 -8.0625 6.9375 C-8.0625 3.9375 -8.0625 3.9375 -5.9375 1.6875 C-3.0625 -0.0625 -3.0625 -0.0625 0 0 Z " fill="#CDC3CC" transform="translate(299.0625,183.0625)"/>
<path d="M0 0 C0 0.99 0 1.98 0 3 C-2.41069948 5.24998618 -4.22471821 5.98919886 -7.5234375 6.03515625 C-10.08189637 5.82622766 -12.50626098 5.61419868 -15 5 C-15.33 4.34 -15.66 3.68 -16 3 C-5.62642369 -1.77676538 -5.62642369 -1.77676538 0 0 Z " fill="#CDC3CC" transform="translate(339,127)"/>
<path d="M0 0 C0.66 0 1.32 0 2 0 C3.20577428 4.94367454 2.6290678 8.20862412 1 13 C-2 12 -2 12 -3.4375 9.3125 C-4 6 -4 6 -2.25 2.625 C-1.5075 1.75875 -0.765 0.8925 0 0 Z " fill="#CDC3CC" transform="translate(1049,359)"/>
<path d="M0 0 C3.10883474 1.66815523 4.06517724 3.22274156 5.5625 6.375 C5.5625 7.035 5.5625 7.695 5.5625 8.375 C0.74215738 7.96182778 -1.34742611 5.99480085 -4.4375 2.375 C-4.4375 1.715 -4.4375 1.055 -4.4375 0.375 C-2.4375 -0.625 -2.4375 -0.625 0 0 Z " fill="#CDC3CC" transform="translate(105.4375,244.625)"/>
<path d="M0 0 C1.49080078 0.16628906 1.49080078 0.16628906 3.01171875 0.3359375 C3.77097656 0.43132812 4.53023437 0.52671875 5.3125 0.625 C5.3125 1.285 5.3125 1.945 5.3125 2.625 C3.6892313 3.2958712 2.06382422 3.96157029 0.4375 4.625 C-0.46742188 4.99625 -1.37234375 5.3675 -2.3046875 5.75 C-4.6875 6.625 -4.6875 6.625 -6.6875 6.625 C-6.6875 5.305 -6.6875 3.985 -6.6875 2.625 C-7.3475 2.295 -8.0075 1.965 -8.6875 1.625 C-5.1388865 -0.74074234 -4.1110475 -0.48365265 0 0 Z " fill="#CDC3CC" transform="translate(691.6875,265.375)"/>
<path d="M0 0 C0 3.3 0 6.6 0 10 C-1.65 10.33 -3.3 10.66 -5 11 C-5.75 7.75 -5.75 7.75 -6 4 C-3.02564103 0 -3.02564103 0 0 0 Z " fill="#CDC3CC" transform="translate(598,216)"/>
<path d="M0 0 C0.515625 0.391875 1.03125 0.78375 1.5625 1.1875 C-0.57024079 3.53351486 -2.46287789 5.05014449 -5.4375 6.1875 C-8.1875 6.3125 -8.1875 6.3125 -10.4375 6.1875 C-10.375 4.375 -10.375 4.375 -9.4375 2.1875 C-3.50743007 -1.16914336 -3.50743007 -1.16914336 0 0 Z " fill="#FFFFFF" transform="translate(255.4375,278.8125)"/>
<path d="M0 0 C-2.52952288 3.15111212 -4.76756266 3.58798017 -8.6875 4.1875 C-9.68136719 4.34605469 -10.67523438 4.50460938 -11.69921875 4.66796875 C-12.45847656 4.77753906 -13.21773438 4.88710937 -14 5 C-14 4.01 -14 3.02 -14 2 C-8.77729131 -0.66464729 -5.9180497 -1.32854177 0 0 Z " fill="#CDC3CC" transform="translate(307,151)"/>
<path d="M0 0 C3.26731967 3.03393969 5.5343808 6.30157119 8 10 C8.7425 10.7425 9.485 11.485 10.25 12.25 C10.8275 12.8275 11.405 13.405 12 14 C12 14.66 12 15.32 12 16 C8.465105 14.51120413 6.31677778 12.51570885 3.75 9.6875 C3.04359375 8.92824219 2.3371875 8.16898438 1.609375 7.38671875 C-0.23597951 4.6500401 -0.34316564 3.23147644 0 0 Z " fill="#CDC3CC" transform="translate(1225,559)"/>
<path d="M0 0 C0 0.33 0 0.66 0 1 C-0.90492187 1.27263672 -0.90492187 1.27263672 -1.828125 1.55078125 C-6.16249282 2.91400984 -9.37970971 4.21516132 -13 7 C-13.99 6.67 -14.98 6.34 -16 6 C-10.9007442 -0.92041858 -8.17420796 -1.36236799 0 0 Z " fill="#CDC3CC" transform="translate(1084,512)"/>
<path d="M0 0 C0.33 0.99 0.66 1.98 1 3 C-4.61980033 9.1014975 -4.61980033 9.1014975 -9 10 C-11.3125 8.625 -11.3125 8.625 -13 7 C-12.39671875 6.82984375 -11.7934375 6.6596875 -11.171875 6.484375 C-6.48936628 5.06451752 -3.14688851 3.96781594 0 0 Z " fill="#CDC3CC" transform="translate(1188,493)"/>
<path d="M0 0 C4.57995227 1.44630072 4.57995227 1.44630072 6.375 3.8125 C7.1508614 6.5280149 6.74778098 8.30798849 6 11 C5.34 11 4.68 11 4 11 C3.54625 10.071875 3.0925 9.14375 2.625 8.1875 C1.0578367 4.96078611 1.0578367 4.96078611 -1 2 C-0.67 1.34 -0.34 0.68 0 0 Z " fill="#CDC3CC" transform="translate(1073,320)"/>
<path d="M0 0 C0.763125 0.20625 1.52625 0.4125 2.3125 0.625 C2.6425 1.615 2.9725 2.605 3.3125 3.625 C2.6525 4.285 1.9925 4.945 1.3125 5.625 C-1.8125 5.25 -1.8125 5.25 -4.6875 4.625 C-5.0175 3.635 -5.3475 2.645 -5.6875 1.625 C-2.6875 -0.375 -2.6875 -0.375 0 0 Z " fill="#CDC3CC" transform="translate(350.6875,472.375)"/>
<path d="M0 0 C-0.99 1.98 -1.98 3.96 -3 6 C-4.32 6 -5.64 6 -7 6 C-7.33 4.68 -7.66 3.36 -8 2 C-4.77208445 -0.1519437 -3.71599191 -0.20086443 0 0 Z " fill="#CDC3CC" transform="translate(1010,383)"/>
<path d="M0 0 C0.63671875 1.80078125 0.63671875 1.80078125 1 4 C-2.80816034 9.54903364 -2.80816034 9.54903364 -6.3125 10.875 C-6.869375 10.91625 -7.42625 10.9575 -8 11 C-6.63629701 8.00779732 -5.05091917 5.70973471 -2.875 3.25 C-2.33617187 2.63640625 -1.79734375 2.0228125 -1.2421875 1.390625 C-0.62730469 0.70226562 -0.62730469 0.70226562 0 0 Z " fill="#CDC3CC" transform="translate(1051,423)"/>
<path d="M0 0 C-1.625 2 -1.625 2 -4 4 C-7.25 4.25 -7.25 4.25 -10 4 C-10 3.01 -10 2.02 -10 1 C-6.21812119 -0.83691257 -4.05431692 -1.15837626 0 0 Z " fill="#FFFFFF" transform="translate(273,273)"/>
<path d="M0 0 C0.99 0.33 1.98 0.66 3 1 C2.649375 1.556875 2.29875 2.11375 1.9375 2.6875 C0.77549257 5.55378499 1.30044188 7.04631017 2 10 C1.67 10.66 1.34 11.32 1 12 C-0.32 11.34 -1.64 10.68 -3 10 C-2.69201674 8.51988629 -2.378482 7.04092675 -2.0625 5.5625 C-1.88847656 4.73878906 -1.71445313 3.91507812 -1.53515625 3.06640625 C-1 1 -1 1 0 0 Z " fill="#CDC3CC" transform="translate(1089,462)"/>
<path d="M0 0 C0.99 0.33 1.98 0.66 3 1 C3 3.31 3 5.62 3 8 C2.01 8.33 1.02 8.66 0 9 C-0.66 6.69 -1.32 4.38 -2 2 C-1.34 1.34 -0.68 0.68 0 0 Z " fill="#CDC3CC" transform="translate(593,287)"/>
<path d="M0 0 C-0.33 1.65 -0.66 3.3 -1 5 C-5.455 3.02 -5.455 3.02 -10 1 C-6.1496895 -1.56687367 -4.41430237 -0.83288724 0 0 Z " fill="#CDC3CC" transform="translate(618,301)"/>
<path d="M0 0 C-2.62198774 2.15377564 -4.64404172 3.40072174 -8 4 C-8.66 3.01 -9.32 2.02 -10 1 C-6.42181037 -1.33958553 -4.07775191 -0.9267618 0 0 Z " fill="#CDC3CC" transform="translate(278,167)"/>
<path d="M0 0 C1.4370809 -0.05422947 2.87475462 -0.09289723 4.3125 -0.125 C5.11300781 -0.14820313 5.91351562 -0.17140625 6.73828125 -0.1953125 C9 0 9 0 12 2 C11.67 2.33 11.34 2.66 11 3 C9.00390625 2.94921875 9.00390625 2.94921875 6.5625 2.6875 C5.35787109 2.56955078 5.35787109 2.56955078 4.12890625 2.44921875 C2 2 2 2 0 0 Z " fill="#CDC3CC" transform="translate(650,312)"/>
<path d="M0 0 C1.53202706 0.25195908 3.05257128 0.57596777 4.5625 0.9375 C5.38878906 1.13214844 6.21507812 1.32679688 7.06640625 1.52734375 C8.02353516 1.76130859 8.02353516 1.76130859 9 2 C9 2.33 9 2.66 9 3 C6.36 3.33 3.72 3.66 1 4 C0.34 3.01 -0.32 2.02 -1 1 C-0.67 0.67 -0.34 0.34 0 0 Z " fill="#CDC3CC" transform="translate(1056,510)"/>
<path d="M0 0 C1.134375 0.020625 2.26875 0.04125 3.4375 0.0625 C3.7675 0.7225 4.0975 1.3825 4.4375 2.0625 C1.0625 2.6875 1.0625 2.6875 -2.5625 3.0625 C-3.2225 2.4025 -3.8825 1.7425 -4.5625 1.0625 C-3.5625 0.0625 -3.5625 0.0625 0 0 Z " fill="#CDC3CC" transform="translate(1044.5625,510.9375)"/>
<path d="M0 0 C4.67692308 1.47692308 4.67692308 1.47692308 6.3125 4.125 C6.539375 4.74375 6.76625 5.3625 7 6 C5.1875 5.8125 5.1875 5.8125 3 5 C1.25 2.4375 1.25 2.4375 0 0 Z " fill="#CDC3CC" transform="translate(1071,417)"/>
<path d="M0 0 C-0.3125 1.9375 -0.3125 1.9375 -1 4 C-1.99 4.33 -2.98 4.66 -4 5 C-4.33 3.68 -4.66 2.36 -5 1 C-3 0 -3 0 0 0 Z " fill="#CDC3CC" transform="translate(1087,319)"/>
<path d="M0 0 C2.475 0.99 2.475 0.99 5 2 C3.625 3.5 3.625 3.5 2 5 C1.34 5 0.68 5 0 5 C-0.5625 3.0625 -0.5625 3.0625 -1 1 C-0.67 0.67 -0.34 0.34 0 0 Z " fill="#CDC3CC" transform="translate(1285,551)"/>
<path d="M0 0 C2.97 0.33 5.94 0.66 9 1 C6 3 6 3 2.8125 2.625 C1.884375 2.41875 0.95625 2.2125 0 2 C0 1.34 0 0.68 0 0 Z " fill="#CDC3CC" transform="translate(1089,486)"/>
</svg>
