<?xml version="1.0" standalone="no"?>
<!DOCTYPE svg PUBLIC "-//W3C//DTD SVG 20010904//EN"
 "http://www.w3.org/TR/2001/REC-SVG-20010904/DTD/svg10.dtd">
<svg version="1.0" xmlns="http://www.w3.org/2000/svg"
viewBox="0 0 376.000000 376.000000"
 preserveAspectRatio="xMidYMid meet">

<g transform="translate(0.000000,376.000000) scale(0.100000,-0.100000)"
fill="currentColor" stroke="none">
<path d="M1800 3620 c-8 -14 -8 -26 0 -40 7 -12 9 -114 8 -287 l-3 -268 -398
-1 c-219 -1 -401 -4 -404 -7 -3 -4 -3 -13 0 -22 5 -10 20 -15 52 -15 52 0 53
-3 25 -84 -46 -135 -65 -263 -65 -441 0 -140 3 -179 19 -223 10 -29 16 -55 15
-57 -2 -1 -21 -10 -43 -19 -28 -11 -71 -16 -152 -16 -107 0 -114 -1 -114 -20
0 -18 7 -20 80 -20 87 0 92 -4 59 -51 -38 -54 -99 -196 -121 -285 -28 -111
-31 -341 -6 -440 13 -52 13 -66 2 -92 -12 -28 -18 -32 -54 -32 -33 0 -40 -3
-40 -20 0 -15 7 -20 25 -20 14 0 25 -3 25 -7 0 -5 -40 -84 -89 -178 l-89 -170
-201 -3 c-110 -1 -201 -6 -201 -10 0 -4 43 -106 95 -227 53 -121 119 -273 146
-337 28 -64 56 -124 63 -133 11 -15 119 -17 1381 -17 l1369 0 16 22 c8 13 73
136 143 274 268 526 370 721 378 731 5 5 9 12 9 17 0 4 -66 9 -147 10 l-148 3
-240 440 c-132 242 -250 456 -262 475 -12 19 -19 38 -17 42 3 4 27 8 54 8 32
0 50 5 53 14 9 22 -2 26 -68 26 -38 0 -67 5 -73 13 -9 11 -52 88 -162 292 -23
44 -61 112 -84 150 -55 95 -53 119 26 333 19 51 20 52 59 52 32 0 39 3 39 20
0 11 -6 21 -12 21 -7 1 -208 1 -447 -1 -356 -2 -435 0 -442 11 -15 24 -11 156
5 172 8 7 90 44 183 82 92 37 183 74 202 81 20 9 31 18 25 23 -5 5 -98 46
-207 91 -176 74 -198 85 -193 103 12 49 -51 80 -74 37z m863 -1150 c30 -58 82
-154 115 -215 l60 -110 -30 -3 c-66 -7 -167 152 -207 327 -21 87 -21 137 -2
115 4 -5 33 -56 64 -114z m462 -854 c129 -235 241 -439 250 -453 9 -14 14 -27
11 -31 -7 -6 -991 -10 -1018 -4 -10 3 -18 11 -18 18 0 11 36 14 193 15 138 1
182 4 157 10 -60 16 -283 23 -308 10 -28 -15 -56 -1 -77 39 -14 27 -14 31 0
36 28 11 429 -30 456 -46 10 -7 10 -11 0 -24 -12 -14 3 -16 158 -16 145 0 171
2 171 15 0 12 -14 15 -64 15 -58 0 -67 3 -86 28 -34 42 -115 220 -136 297 -23
83 -25 274 -5 345 22 77 65 180 74 177 5 -1 114 -195 242 -431z m-1476 -345
c18 -12 6 -81 -14 -81 -8 0 -15 -4 -15 -10 0 -5 -11 -10 -25 -10 -23 0 -25 3
-25 49 0 43 3 50 23 54 37 7 41 7 56 -2z m185 -7 c3 -9 6 -27 6 -40 0 -21 -5
-24 -40 -25 -22 -1 -55 -2 -72 -3 -29 -1 -33 2 -36 27 -6 51 2 57 72 57 49 0
65 -4 70 -16z m157 -25 c5 -36 5 -37 -30 -42 -53 -8 -86 -4 -85 11 1 6 2 26 3
43 1 30 1 30 53 27 52 -3 53 -3 59 -39z m292 9 c13 -16 17 -32 14 -54 -4 -22
-1 -34 8 -38 11 -4 75 -180 75 -207 0 -5 -36 -8 -81 -6 l-82 2 -12 45 c-23 87
-33 155 -24 166 12 15 -29 26 -50 14 -14 -8 -14 -9 1 -10 23 0 29 -12 35 -73
3 -29 11 -71 18 -95 7 -23 10 -44 6 -46 -3 -2 -39 -4 -78 -4 l-72 0 -6 31 c-3
18 -7 73 -10 122 -2 50 -9 109 -13 132 -5 23 -6 45 -3 49 3 4 62 4 131 0 114
-5 127 -8 143 -28z m-733 -12 c0 -30 -4 -34 -31 -40 -60 -12 -69 -8 -69 24 0
34 21 49 68 50 30 0 32 -2 32 -34z m-120 8 c0 -30 -19 -50 -50 -52 -18 -1 -41
-7 -53 -13 -17 -10 -19 -9 -14 5 6 15 1 16 -31 11 -20 -4 -45 -9 -54 -11 -21
-6 -34 31 -18 51 7 9 37 15 78 18 37 2 84 4 105 5 28 2 37 -2 37 -14z m-263
-37 c-7 -18 -52 -27 -133 -27 -61 0 -79 9 -51 27 19 12 171 31 181 22 5 -4 6
-14 3 -22z m478 -107 c-2 -25 -7 -71 -10 -102 l-6 -58 -45 0 -45 0 6 98 c4 53
8 102 10 109 5 15 77 22 87 8 4 -5 6 -30 3 -55z m-503 55 c3 -3 -14 -65 -37
-139 -24 -73 -48 -151 -55 -174 l-11 -42 -229 0 c-127 0 -230 2 -230 5 0 3 41
84 91 180 l91 175 187 0 c103 0 190 -2 193 -5z m144 -6 c3 -6 2 -21 -4 -32 -6
-12 -20 -59 -33 -104 l-23 -83 -52 0 c-49 0 -76 12 -56 24 4 2 18 40 31 83 38
128 35 123 85 123 25 0 48 -5 52 -11z m124 -13 c0 -14 -4 -28 -10 -31 -5 -3
-10 -19 -10 -34 0 -15 -5 -53 -11 -84 l-12 -57 -52 0 c-28 0 -54 2 -57 5 -2 3
4 37 15 77 10 40 21 84 24 98 9 48 11 50 63 50 46 0 50 -2 50 -24z m126 9 c4
-8 3 -23 -1 -32 -4 -10 -10 -49 -12 -88 -2 -38 -6 -76 -8 -82 -3 -9 -25 -13
-61 -13 l-56 0 6 33 c4 17 11 64 17 102 6 39 13 76 15 83 5 18 93 16 100 -3z
m298 -82 c5 -50 6 -99 2 -108 -5 -13 -19 -15 -83 -13 l-78 3 3 95 c1 52 5 101
7 108 3 9 24 12 72 10 l68 -3 9 -92z m152 89 c6 -4 14 -53 18 -109 l6 -103
-65 0 -65 0 0 110 0 110 48 0 c26 0 52 -4 58 -8z m-773 -279 c-29 -120 -28
-118 -59 -124 -16 -4 -44 -7 -61 -8 -40 -1 -42 10 -11 97 l23 62 58 0 57 0 -7
-27z m146 15 c0 -7 -6 -40 -13 -73 l-12 -60 -58 -9 c-34 -6 -60 -6 -65 0 -5 5
1 42 13 82 l21 72 57 0 c40 0 58 -4 57 -12z m145 4 c6 -10 -10 -131 -18 -139
-3 -3 -31 -6 -63 -7 -66 -1 -64 -6 -42 102 l10 52 54 0 c30 0 56 -4 59 -8z
m-342 -205 c-2 -16 -9 -45 -16 -65 -12 -36 -15 -37 -66 -40 -80 -5 -82 -2 -60
63 10 30 22 60 25 66 4 5 32 9 63 7 56 -3 57 -3 54 -31z m153 -24 c-4 -32 -12
-64 -17 -70 -11 -14 -124 -18 -132 -5 -5 9 16 102 27 120 5 7 31 12 69 12 l60
0 -7 -57z m166 -3 c-1 -30 -8 -61 -13 -67 -11 -14 -124 -18 -131 -5 -4 5 11
91 22 130 1 2 29 2 64 0 l62 -3 -4 -55z"/>
<path d="M2060 1170 c0 -5 12 -10 28 -10 21 0 24 2 12 10 -20 13 -40 13 -40 0z"/>
<path d="M2205 1170 c-4 -6 6 -10 22 -10 22 0 25 2 13 10 -19 12 -27 12 -35 0z"/>
<path d="M2255 1080 c13 -58 33 -116 34 -95 0 27 -23 112 -33 122 -5 4 -5 -8
-1 -27z"/>
<path d="M2086 1073 c3 -16 9 -48 14 -73 l9 -45 -1 60 c-1 66 -6 85 -19 85 -5
0 -6 -12 -3 -27z"/>
</g>
</svg>
