<?xml version="1.0" encoding="UTF-8"?>
<svg version="1.1" xmlns="http://www.w3.org/2000/svg" width="376" height="376">
<path d="M0 0 C3.4375 0.1875 3.4375 0.1875 4.4375 1.1875 C4.47842937 3.52047433 4.47991723 5.85455225 4.4375 8.1875 C5.18773437 8.41824219 5.93796875 8.64898437 6.7109375 8.88671875 C11.92149141 10.705497 16.9767175 12.86044218 22.0625 15 C23.07957031 15.42603516 24.09664062 15.85207031 25.14453125 16.29101562 C27.19465895 17.14978268 29.24446537 18.00931712 31.29394531 18.86962891 C36.33815963 20.98431273 41.38778743 23.0859864 46.4375 25.1875 C46.10742188 27.10302734 46.10742188 27.10302734 45.4375 29.1875 C42.71875 30.5390625 42.71875 30.5390625 38.9375 31.8125 C37.49875715 32.31415798 36.06134867 32.81965257 34.625 33.328125 C33.81675781 33.61236328 33.00851563 33.89660156 32.17578125 34.18945312 C26.7116162 36.18102826 21.33077997 38.38786451 15.9375 40.5625 C14.80892578 41.0157666 13.68035156 41.4690332 12.51757812 41.93603516 C9.82355419 43.01820385 7.13042911 44.10260977 4.4375 45.1875 C4.1075 50.7975 3.7775 56.4075 3.4375 62.1875 C33.4675 62.1875 63.4975 62.1875 94.4375 62.1875 C94.4375 63.8375 94.4375 65.4875 94.4375 67.1875 C92.85477399 68.77022601 91.05715997 68.53485747 88.875 68.75 C88.04871094 68.83378906 87.22242188 68.91757813 86.37109375 69.00390625 C85.73300781 69.06449219 85.09492188 69.12507813 84.4375 69.1875 C84.375625 70.074375 84.31375 70.96125 84.25 71.875 C83.73854468 75.70316556 82.36148105 78.94756224 80.875 82.5 C78.63918362 88.21375298 77.02949651 93.08615156 78.4375 99.1875 C79.6813137 101.81521563 81.12191346 104.15162019 82.734375 106.5703125 C84.49909001 109.2821452 85.90645444 112.02497705 87.3125 114.9375 C89.82518955 120.06812265 92.58852113 125.01757092 95.46508789 129.94921875 C98.27512585 134.80310494 100.74279841 139.77879859 103.11328125 144.859375 C104.36317907 147.46222507 104.36317907 147.46222507 107.4375 149.1875 C110.3790983 149.39213157 110.3790983 149.39213157 113.5625 149.25 C115.52019983 149.19601068 117.47916273 149.16703976 119.4375 149.1875 C120.4375 150.1875 120.4375 150.1875 120.5625 152.6875 C120.4375 155.1875 120.4375 155.1875 119.4375 156.1875 C117.75141034 156.25955511 116.06249341 156.27136068 114.375 156.25 C113.45589844 156.24097656 112.53679687 156.23195312 111.58984375 156.22265625 C110.87957031 156.21105469 110.16929687 156.19945312 109.4375 156.1875 C113.49361049 163.79946121 113.49361049 163.79946121 117.9375 171.1875 C122.36443017 178.15216083 126.10602858 185.47765385 129.75 192.875 C132.54208833 198.53013581 135.54892062 204.03098473 138.67236328 209.5090332 C142.81881223 216.8021704 146.78471722 224.19166737 150.74462891 231.58740234 C151.78721456 233.52529029 152.84700925 235.45403011 153.92480469 237.37255859 C155.4375 240.1875 155.4375 240.1875 156.66113281 243.11572266 C158.0045031 246.02876389 159.07627334 248.00618995 161.4375 250.1875 C166.28054468 251.40752403 170.85829801 251.13549211 175.8125 250.8125 C177.12089844 250.76738281 178.42929687 250.72226562 179.77734375 250.67578125 C183.00207191 250.55809044 186.21743695 250.39395502 189.4375 250.1875 C190.6210491 253.73814729 190.26846704 254.17166984 188.69921875 257.40625 C188.29654785 258.24591309 187.89387695 259.08557617 187.47900391 259.95068359 C187.03218262 260.85383301 186.58536133 261.75698242 186.125 262.6875 C185.66786621 263.62803223 185.21073242 264.56856445 184.73974609 265.53759766 C180.59847987 273.99771442 176.22629807 282.32911234 171.79101562 290.63769531 C169.26889438 295.38896413 166.79456653 300.16522313 164.3125 304.9375 C160.97272057 311.35272561 157.6131497 317.75521762 154.1875 324.125 C151.83881802 328.50563299 149.55559461 332.9074101 147.34521484 337.359375 C146.66529171 338.72757967 145.98083153 340.09354054 145.29150391 341.45703125 C143.76291586 344.48269007 142.30440611 347.49396619 140.953125 350.60546875 C140.49421875 351.60191406 140.0353125 352.59835937 139.5625 353.625 C139.19382812 354.48996094 138.82515625 355.35492188 138.4453125 356.24609375 C133.38714118 361.13697147 121.89473687 359.33590595 115.20144653 359.33467102 C114.11358317 359.33834771 113.02571981 359.3420244 111.90489089 359.3458125 C108.28310595 359.35676937 104.66134976 359.36067933 101.03955078 359.36450195 C98.43376069 359.3707721 95.82797148 359.37741938 93.22218323 359.38441467 C85.42798262 359.40407476 77.63378091 359.41422484 69.83956176 359.42314246 C66.16512361 359.42753628 62.49068688 359.43289965 58.81624985 359.43813133 C46.60027173 359.45512131 34.38429446 359.46962012 22.16830635 359.47688007 C19.00640995 359.47878975 15.84451356 359.48071013 12.68261719 359.48266602 C11.89680853 359.48314976 11.11099987 359.4836335 10.30137883 359.4841319 C-2.45701777 359.49245053 -15.2153212 359.51782814 -27.97367702 359.55024669 C-41.08215865 359.58328327 -54.19059277 359.60132512 -67.29911625 359.60452431 C-74.65557416 359.60669088 -82.01189552 359.61546268 -89.36831284 359.64098549 C-96.2778212 359.66490415 -103.18707941 359.66853995 -110.09662056 359.65822411 C-112.6363475 359.65772637 -115.17608621 359.66411614 -117.71577644 359.67778015 C-121.17360069 359.69534882 -124.63052519 359.68846692 -128.08834839 359.67524719 C-129.10097712 359.68621644 -130.11360586 359.69718568 -131.15692031 359.70848733 C-137.93963416 359.64555953 -137.93963416 359.64555953 -141.14250374 357.29014874 C-142.60040611 355.13137081 -143.73993778 353.09644547 -144.76171875 350.69921875 C-145.1582666 349.78342041 -145.55481445 348.86762207 -145.96337891 347.92407227 C-146.38796387 346.91787842 -146.81254883 345.91168457 -147.25 344.875 C-148.20948167 342.64837124 -149.16912917 340.42181394 -150.12890625 338.1953125 C-150.66827898 336.93528447 -151.20749712 335.67519026 -151.74658203 334.41503906 C-154.96818615 326.89863746 -158.25359872 319.40974147 -161.52505493 311.91494751 C-162.68059719 309.26582495 -163.83415925 306.61584903 -164.98706055 303.96557617 C-165.34872818 303.13458405 -165.71039581 302.30359192 -166.08302307 301.44741821 C-166.76850109 299.87229037 -167.45360692 298.29700048 -168.13829041 296.7215271 C-169.78397942 292.92382909 -169.78397942 292.92382909 -171.5625 289.1875 C-171.5625 287.2075 -171.5625 285.2275 -171.5625 283.1875 C-158.3625 283.1875 -145.1625 283.1875 -131.5625 283.1875 C-130.056875 280.320625 -128.55125 277.45375 -127 274.5 C-122.90091993 266.70348657 -118.7609327 258.93096694 -114.5625 251.1875 C-115.8825 250.8575 -117.2025 250.5275 -118.5625 250.1875 C-118.5625 248.2075 -118.5625 246.2275 -118.5625 244.1875 C-115.409132 243.48675156 -112.83525026 243.1875 -109.5625 243.1875 C-109.3879766 238.03905971 -109.64053636 233.38330004 -110.5625 228.3125 C-114.36681985 205.07897519 -110.30234009 181.61995393 -98.5625 161.1875 C-97.5725 159.8675 -96.5825 158.5475 -95.5625 157.1875 C-100.5125 156.8575 -105.4625 156.5275 -110.5625 156.1875 C-110.5625 150.1875 -110.5625 150.1875 -109.5625 149.1875 C-107.58746905 149.0535964 -105.60801404 148.98394769 -103.62890625 148.94140625 C-102.42298828 148.90853516 -101.21707031 148.87566406 -99.97460938 148.84179688 C-97.41219742 148.78069421 -94.849692 148.72339052 -92.28710938 148.66992188 C-91.07990234 148.63576172 -89.87269531 148.60160156 -88.62890625 148.56640625 C-87.51459229 148.5413501 -86.40027832 148.51629395 -85.25219727 148.49047852 C-82.41304665 148.45372136 -82.41304665 148.45372136 -80.5625 146.1875 C-80.99056744 143.75747551 -80.99056744 143.75747551 -81.9140625 140.9765625 C-83.85566479 133.77868883 -84.01916964 126.98446563 -83.9375 119.5625 C-83.92444824 117.58552124 -83.92444824 117.58552124 -83.91113281 115.56860352 C-83.66220503 98.94247195 -80.89723032 83.64424199 -74.5625 68.1875 C-77.8625 68.1875 -81.1625 68.1875 -84.5625 68.1875 C-84.8925 66.8675 -85.2225 65.5475 -85.5625 64.1875 C-84.9025 63.1975 -84.2425 62.2075 -83.5625 61.1875 C-80.95962638 60.9010048 -78.59544626 60.80901755 -75.99169922 60.84692383 C-74.82083267 60.84626671 -74.82083267 60.84626671 -73.62631226 60.84559631 C-71.03968511 60.84769059 -68.45370176 60.87105117 -65.8671875 60.89453125 C-64.07642979 60.90012494 -62.2856675 60.90439611 -60.49490356 60.90739441 C-55.77654392 60.91886105 -51.05846036 60.94834375 -46.34020996 60.98150635 C-41.52762589 61.01216813 -36.7149973 61.0258914 -31.90234375 61.04101562 C-22.45560772 61.07321181 -13.0090768 61.12443002 -3.5625 61.1875 C-3.55155807 56.69149849 -3.54368555 52.19550435 -3.53846741 47.69949341 C-3.53628843 46.1749559 -3.5333192 44.65041928 -3.52949524 43.12588501 C-3.30151984 24.15242208 -3.30151984 24.15242208 -5.22265625 5.3203125 C-5.39087891 3.76957031 -5.39087891 3.76957031 -5.5625 2.1875 C-3.5625 0.1875 -3.5625 0.1875 0 0 Z M75.4375 108.1875 C77.51781362 123.80208928 81.10751214 138.10397899 93.3125 149.0625 C96.2211209 151.46865501 96.2211209 151.46865501 99.4375 151.1875 C98.10552501 147.65684048 96.54060043 144.4557902 94.64453125 141.1953125 C94.09949951 140.24922119 93.55446777 139.30312988 92.99291992 138.32836914 C92.41775635 137.33313232 91.84259277 136.33789551 91.25 135.3125 C86.17371443 126.44739767 81.50853066 117.55827238 77.4375 108.1875 C76.7775 108.1875 76.1175 108.1875 75.4375 108.1875 Z M104.4375 161.1875 C101.3726759 168.10090093 98.69058451 174.71270517 97.4375 182.1875 C97.23125 183.30125 97.025 184.415 96.8125 185.5625 C94.75272413 205.47366673 100.34638967 227.01610786 112.4375 243.1875 C115.32165883 244.62957941 117.85471528 244.28144887 121.0625 244.25 C122.84527344 244.23646484 122.84527344 244.23646484 124.6640625 244.22265625 C126.03691406 244.20525391 126.03691406 244.20525391 127.4375 244.1875 C127.4375 245.8375 127.4375 247.4875 127.4375 249.1875 C126.4587793 249.17702637 125.48005859 249.16655273 124.47167969 249.15576172 C120.83385895 249.11950907 117.19605413 249.09658042 113.55810547 249.07763672 C111.98483595 249.06759113 110.41158504 249.05395219 108.83837891 249.03662109 C106.57449748 249.01230904 104.31086334 249.00100253 102.046875 248.9921875 C101.34568542 248.98186493 100.64449585 248.97154236 99.92205811 248.96090698 C96.25186524 248.96006743 93.55660787 249.16637405 90.4375 251.1875 C92.2809624 253.0309624 95.26642635 252.31797858 97.734375 252.3203125 C98.3876326 252.32163177 99.0408902 252.32295105 99.71394348 252.3243103 C101.87184213 252.32624409 104.02961426 252.3198463 106.1875 252.3125 C106.91959686 252.31161377 107.65169373 252.31072754 108.40597534 252.30981445 C123.43112682 252.28850945 138.42638806 251.83188613 153.4375 251.1875 C152.09689055 247.77745069 150.64833588 244.58317175 148.875 241.375 C148.34777344 240.41851562 147.82054687 239.46203125 147.27734375 238.4765625 C145.94343334 236.09194983 144.60285181 233.71200791 143.25390625 231.3359375 C136.46145373 219.36140553 136.46145373 219.36140553 133.4375 213.1875 C130.12291707 206.43085019 126.39630016 199.92691211 122.68017578 193.38623047 C120.05284009 188.73754968 117.47404876 184.06169936 114.88769531 179.39013672 C113.02333315 176.02677835 111.14624668 172.67364453 109.22265625 169.34375 C107.70349728 166.65779716 106.48971419 164.08108902 105.4375 161.1875 C105.1075 161.1875 104.7775 161.1875 104.4375 161.1875 Z M-13.5625 238.1875 C-13.5625 240.4975 -13.5625 242.8075 -13.5625 245.1875 C-9.6025 245.1875 -5.6425 245.1875 -1.5625 245.1875 C-0.21736576 241.32811025 -0.21736576 241.32811025 -1.5625 238.1875 C-5.5225 238.1875 -9.4825 238.1875 -13.5625 238.1875 Z M4.4375 238.1875 C4.4375 240.4975 4.4375 242.8075 4.4375 245.1875 C8.0675 245.1875 11.6975 245.1875 15.4375 245.1875 C15.1075 242.8775 14.7775 240.5675 14.4375 238.1875 C11.1375 238.1875 7.8375 238.1875 4.4375 238.1875 Z M18.4375 238.1875 C18.7675 240.4975 19.0975 242.8075 19.4375 245.1875 C20.4275 245.1875 21.4175 245.1875 22.4375 245.1875 C22.7675 242.8775 23.0975 240.5675 23.4375 238.1875 C21.7875 238.1875 20.1375 238.1875 18.4375 238.1875 Z M24.4375 238.1875 C25.0975 240.4975 25.7575 242.8075 26.4375 245.1875 C27.7575 244.8575 29.0775 244.5275 30.4375 244.1875 C29.7775 242.2075 29.1175 240.2275 28.4375 238.1875 C27.1175 238.1875 25.7975 238.1875 24.4375 238.1875 Z M-37.5625 240.1875 C-37.60313832 241.85367115 -37.605221 243.52138095 -37.5625 245.1875 C-35.22955225 245.22991723 -32.89547433 245.22842937 -30.5625 245.1875 C-29.26616379 244.12104885 -29.26616379 244.12104885 -29.5 241.625 C-29.520625 240.820625 -29.54125 240.01625 -29.5625 239.1875 C-33.88570086 238.68383499 -33.88570086 238.68383499 -37.5625 240.1875 Z M-25.5625 239.1875 C-25.5625 241.1675 -25.5625 243.1475 -25.5625 245.1875 C-23.5825 245.1875 -21.6025 245.1875 -19.5625 245.1875 C-19.2325 243.2075 -18.9025 241.2275 -18.5625 239.1875 C-20.8725 239.1875 -23.1825 239.1875 -25.5625 239.1875 Z M48.4375 239.1875 C48.7675 241.1675 49.0975 243.1475 49.4375 245.1875 C57.02612868 246.18578114 64.60699444 246.50704018 72.2512207 246.74511719 C74.39496715 246.81313351 76.53823889 246.89069281 78.68164062 246.96875 C80.04685628 247.01359442 81.41209024 247.05788582 82.77734375 247.1015625 C84.00831787 247.1423291 85.23929199 247.1830957 86.50756836 247.22509766 C89.37334294 247.40112028 89.37334294 247.40112028 91.4375 246.1875 C91.4375 245.5275 91.4375 244.8675 91.4375 244.1875 C84.84475809 242.30047567 78.45272228 241.61728092 71.625 241.125 C69.5767924 240.9678452 67.52861508 240.81029512 65.48046875 240.65234375 C64.4857959 240.57741699 63.49112305 240.50249023 62.46630859 240.42529297 C57.7858931 240.05783168 53.1116691 239.62658686 48.4375 239.1875 Z M-50.5625 241.1875 C-50.2325 242.5075 -49.9025 243.8275 -49.5625 245.1875 C-47.22955225 245.22991723 -44.89547433 245.22842937 -42.5625 245.1875 C-41.26616379 244.12104885 -41.26616379 244.12104885 -41.5 241.625 C-41.520625 240.820625 -41.54125 240.01625 -41.5625 239.1875 C-44.71582957 239.1875 -47.55707031 240.29700231 -50.5625 241.1875 Z M-61.5625 241.1875 C-61.5625 242.5075 -61.5625 243.8275 -61.5625 245.1875 C-59.2525 245.1875 -56.9425 245.1875 -54.5625 245.1875 C-53.9025 243.8675 -53.2425 242.5475 -52.5625 241.1875 C-55.5325 241.1875 -58.5025 241.1875 -61.5625 241.1875 Z M33.4375 241.1875 C33.4375 242.5075 33.4375 243.8275 33.4375 245.1875 C34.30375 245.166875 35.17 245.14625 36.0625 245.125 C39.29653648 245.18488956 42.26549897 245.58330933 45.4375 246.1875 C45.4375 244.8675 45.4375 243.5475 45.4375 242.1875 C41.4561217 240.8603739 37.58704773 241.11834087 33.4375 241.1875 Z M-83.5625 244.1875 C-83.8925 244.8475 -84.2225 245.5075 -84.5625 246.1875 C-82.47923869 246.21459444 -80.39587559 246.23393873 -78.3125 246.25 C-76.57226562 246.26740234 -76.57226562 246.26740234 -74.796875 246.28515625 C-72.15272872 246.20532092 -70.06423909 245.97393778 -67.5625 245.1875 C-67.5625 244.1975 -67.5625 243.2075 -67.5625 242.1875 C-73.05222839 241.95389454 -78.33193854 242.36915031 -83.5625 244.1875 Z M19.4375 249.1875 C19.21520861 259.2424746 19.21520861 259.2424746 20.4375 269.1875 C21.50395115 270.48383621 21.50395115 270.48383621 24 270.25 C25.2065625 270.2190625 25.2065625 270.2190625 26.4375 270.1875 C26.15493908 268.24865111 25.8611207 266.31144039 25.5625 264.375 C25.40007812 263.29605469 25.23765625 262.21710938 25.0703125 261.10546875 C24.58617662 258.01428207 24.58617662 258.01428207 22.4375 255.1875 C22.8125 252.5 22.8125 252.5 23.4375 250.1875 C22.1175 249.8575 20.7975 249.5275 19.4375 249.1875 Z M-107.5625 250.1875 C-110.2025 255.4675 -112.8425 260.7475 -115.5625 266.1875 C-117.60375455 270.05544541 -119.66222215 273.90953083 -121.75390625 277.75 C-123.83167309 281.26843498 -123.83167309 281.26843498 -124.5625 285.1875 C-110.0425 284.8575 -95.5225 284.5275 -80.5625 284.1875 C-78.1656036 277.79577626 -75.95415281 271.4310545 -73.875 264.9375 C-73.55466797 263.9578125 -73.23433594 262.978125 -72.90429688 261.96875 C-72.45086914 260.55335938 -72.45086914 260.55335938 -71.98828125 259.109375 C-71.71411377 258.25956055 -71.43994629 257.40974609 -71.1574707 256.53417969 C-70.3986591 253.94476787 -70.3986591 253.94476787 -70.5625 250.1875 C-82.7725 250.1875 -94.9825 250.1875 -107.5625 250.1875 Z M-64.5625 250.1875 C-64.8925 251.8375 -65.2225 253.4875 -65.5625 255.1875 C-61.1075 254.6925 -61.1075 254.6925 -56.5625 254.1875 C-56.2325 252.8675 -55.9025 251.5475 -55.5625 250.1875 C-58.5325 250.1875 -61.5025 250.1875 -64.5625 250.1875 Z M-52.5625 250.1875 C-52.8925 251.5075 -53.2225 252.8275 -53.5625 254.1875 C-51.14119669 255.39815165 -50.07956341 255.13352533 -47.4375 254.75 C-46.15875 254.564375 -44.88 254.37875 -43.5625 254.1875 C-43.5625 252.8675 -43.5625 251.5475 -43.5625 250.1875 C-46.5325 250.1875 -49.5025 250.1875 -52.5625 250.1875 Z M-39.5625 250.1875 C-40.06784727 252.91577365 -40.56693845 255.64494694 -41.0625 258.375 C-41.20558594 259.14392578 -41.34867188 259.91285156 -41.49609375 260.70507812 C-42.19488715 264.58171773 -42.75289017 268.228971 -42.5625 272.1875 C-41.08343108 272.21439216 -39.60422517 272.23384621 -38.125 272.25 C-36.88943359 272.26740234 -36.88943359 272.26740234 -35.62890625 272.28515625 C-33.57086062 272.42017348 -33.57086062 272.42017348 -32.5625 271.1875 C-32.32722227 268.83762738 -32.14863583 266.48193961 -32 264.125 C-31.91621094 262.83464844 -31.83242187 261.54429687 -31.74609375 260.21484375 C-31.68550781 259.21582031 -31.62492188 258.21679688 -31.5625 257.1875 C-33.7861068 255.8893576 -33.7861068 255.8893576 -37.5625 256.1875 C-35.2525 255.5275 -32.9425 254.8675 -30.5625 254.1875 C-30.5625 252.8675 -30.5625 251.5475 -30.5625 250.1875 C-33.5325 250.1875 -36.5025 250.1875 -39.5625 250.1875 Z M-27.5625 250.1875 C-27.8925 256.7875 -28.2225 263.3875 -28.5625 270.1875 C-26.2525 270.1875 -23.9425 270.1875 -21.5625 270.1875 C-20.44426185 267.95102369 -20.36853939 266.53858471 -20.24609375 264.0546875 C-20.20419922 263.24902344 -20.16230469 262.44335938 -20.11914062 261.61328125 C-20.07982422 260.77152344 -20.04050781 259.92976563 -20 259.0625 C-19.95681641 258.21300781 -19.91363281 257.36351562 -19.86914062 256.48828125 C-19.76295764 254.38821777 -19.66221503 252.28788052 -19.5625 250.1875 C-22.2025 250.1875 -24.8425 250.1875 -27.5625 250.1875 Z M-14.5625 250.1875 C-15.24276044 256.9050718 -15.67315041 263.43782497 -15.5625 270.1875 C-10.6125 270.1875 -5.6625 270.1875 -0.5625 270.1875 C-0.8925 263.5875 -1.2225 256.9875 -1.5625 250.1875 C-5.8525 250.1875 -10.1425 250.1875 -14.5625 250.1875 Z M4.4375 250.1875 C4.4375 256.7875 4.4375 263.3875 4.4375 270.1875 C8.3975 270.1875 12.3575 270.1875 16.4375 270.1875 C16.49142397 267.41640693 16.53113455 264.64636182 16.5625 261.875 C16.57925781 261.08931641 16.59601563 260.30363281 16.61328125 259.49414062 C16.62294922 258.3581543 16.62294922 258.3581543 16.6328125 257.19921875 C16.64328613 256.50272217 16.65375977 255.80622559 16.66455078 255.08862305 C16.54324595 252.856327 16.54324595 252.856327 14.4375 250.1875 C11.1375 250.1875 7.8375 250.1875 4.4375 250.1875 Z M26.4375 250.1875 C26.4375 251.5075 26.4375 252.8275 26.4375 254.1875 C28.0875 254.1875 29.7375 254.1875 31.4375 254.1875 C31.4375 252.8675 31.4375 251.5475 31.4375 250.1875 C29.7875 250.1875 28.1375 250.1875 26.4375 250.1875 Z M34.4375 250.1875 C34.7675 251.5075 35.0975 252.8275 35.4375 254.1875 C36.7575 254.1875 38.0775 254.1875 39.4375 254.1875 C39.4375 252.8675 39.4375 251.5475 39.4375 250.1875 C37.7875 250.1875 36.1375 250.1875 34.4375 250.1875 Z M42.4375 250.1875 C44.69849191 260.24932353 44.69849191 260.24932353 47.4375 270.1875 C49.4175 270.1875 51.3975 270.1875 53.4375 270.1875 C52.80507331 265.46247299 51.51936437 261.28179803 49.875 256.8125 C49.64103516 256.17183594 49.40707031 255.53117188 49.16601562 254.87109375 C48.59450381 253.3081839 48.01665771 251.74759273 47.4375 250.1875 C45.7875 250.1875 44.1375 250.1875 42.4375 250.1875 Z M-65.5625 256.1875 C-67.44037986 259.00431979 -68.21393573 260.98208015 -69.125 264.1875 C-69.89690823 266.87518048 -70.67798701 269.53396102 -71.5625 272.1875 C-70.10426788 272.2145043 -68.64589325 272.23389787 -67.1875 272.25 C-65.96933594 272.26740234 -65.96933594 272.26740234 -64.7265625 272.28515625 C-62.51312858 272.33216334 -62.51312858 272.33216334 -60.5625 271.1875 C-59.86932422 268.97576506 -59.86932422 268.97576506 -59.4375 266.375 C-59.26992187 265.50230469 -59.10234375 264.62960937 -58.9296875 263.73046875 C-58.46722592 260.95589993 -58.46722592 260.95589993 -58.5625 257.1875 C-60.8725 256.8575 -63.1825 256.5275 -65.5625 256.1875 Z M-52.5625 256.1875 C-55.19125405 261.55930176 -56.1708965 266.23242601 -56.5625 272.1875 C-51.24079506 272.48312367 -51.24079506 272.48312367 -46.5625 270.1875 C-45.06779971 265.70339913 -45.47083815 260.86225433 -45.5625 256.1875 C-47.8725 256.1875 -50.1825 256.1875 -52.5625 256.1875 Z M28.4375 257.1875 C27.07328969 259.91592061 27.55942789 261.79703318 27.875 264.8125 C27.97683594 265.81539063 28.07867187 266.81828125 28.18359375 267.8515625 C28.26738281 268.62242187 28.35117188 269.39328125 28.4375 270.1875 C30.4175 270.1875 32.3975 270.1875 34.4375 270.1875 C34.1075 266.2275 33.7775 262.2675 33.4375 258.1875 C31.7875 257.8575 30.1375 257.5275 28.4375 257.1875 Z M36.4375 257.1875 C36.57834796 258.97956547 36.72533701 260.77114917 36.875 262.5625 C36.99681641 264.05910156 36.99681641 264.05910156 37.12109375 265.5859375 C37.28715626 268.16677613 37.28715626 268.16677613 38.4375 270.1875 C40.4175 270.1875 42.3975 270.1875 44.4375 270.1875 C43.4475 265.8975 42.4575 261.6075 41.4375 257.1875 C39.7875 257.1875 38.1375 257.1875 36.4375 257.1875 Z M-71.5625 275.1875 C-73.93363483 280.15034034 -75.99424347 284.64699887 -76.5625 290.1875 C-73.2625 290.1875 -69.9625 290.1875 -66.5625 290.1875 C-64.52256486 285.25765675 -63.15597032 281.60789575 -63.5625 276.1875 C-66.2025 275.8575 -68.8425 275.5275 -71.5625 275.1875 Z M-58.5625 276.1875 C-60.79143187 280.7939592 -61.11127602 285.14883223 -61.5625 290.1875 C-58.2625 290.1875 -54.9625 290.1875 -51.5625 290.1875 C-49.33356813 285.5810408 -49.01372398 281.22616777 -48.5625 276.1875 C-51.8625 276.1875 -55.1625 276.1875 -58.5625 276.1875 Z M-43.5625 276.1875 C-45.32865118 280.89723649 -46.04844831 285.21833364 -46.5625 290.1875 C-44.75007948 290.21437279 -42.93754767 290.23383715 -41.125 290.25 C-39.61099609 290.26740234 -39.61099609 290.26740234 -38.06640625 290.28515625 C-35.62228933 290.47362676 -35.62228933 290.47362676 -34.5625 289.1875 C-34.30167866 287.19366575 -34.10292497 285.19150533 -33.9375 283.1875 C-33.84210938 282.094375 -33.74671875 281.00125 -33.6484375 279.875 C-33.62007812 278.988125 -33.59171875 278.10125 -33.5625 277.1875 C-34.57086062 275.95482652 -34.57086062 275.95482652 -36.62890625 276.08984375 C-37.86447266 276.10724609 -37.86447266 276.10724609 -39.125 276.125 C-40.36443359 276.13853516 -40.36443359 276.13853516 -41.62890625 276.15234375 C-42.58603516 276.16974609 -42.58603516 276.16974609 -43.5625 276.1875 Z M-78.5625 294.1875 C-79.07083591 295.43413331 -79.56881145 296.68499387 -80.0625 297.9375 C-80.3409375 298.63359375 -80.619375 299.3296875 -80.90625 300.046875 C-81.75790327 302.45172695 -81.75790327 302.45172695 -81.5625 306.1875 C-77.9325 306.1875 -74.3025 306.1875 -70.5625 306.1875 C-69.5725 302.5575 -68.5825 298.9275 -67.5625 295.1875 C-68.59656673 293.92800951 -68.59656673 293.92800951 -70.84765625 294.08984375 C-71.76417969 294.10144531 -72.68070313 294.11304688 -73.625 294.125 C-74.54410156 294.13402344 -75.46320313 294.14304687 -76.41015625 294.15234375 C-77.12042969 294.16394531 -77.83070312 294.17554688 -78.5625 294.1875 Z M-63.5625 294.1875 C-65.0475 299.6325 -65.0475 299.6325 -66.5625 305.1875 C-65.50271067 306.47362676 -65.50271067 306.47362676 -63.05859375 306.28515625 C-62.04925781 306.27355469 -61.03992188 306.26195312 -60 306.25 C-58.98808594 306.24097656 -57.97617188 306.23195313 -56.93359375 306.22265625 C-56.15113281 306.21105469 -55.36867188 306.19945312 -54.5625 306.1875 C-52.90373921 303.2879339 -52.3263784 301.27114791 -52.4375 297.9375 C-52.47875 296.7 -52.52 295.4625 -52.5625 294.1875 C-56.1925 294.1875 -59.8225 294.1875 -63.5625 294.1875 Z M-46.5625 294.1875 C-47.0575 295.425 -47.5525 296.6625 -48.0625 297.9375 C-48.3409375 298.63359375 -48.619375 299.3296875 -48.90625 300.046875 C-49.75790327 302.45172695 -49.75790327 302.45172695 -49.5625 306.1875 C-45.6025 306.1875 -41.6425 306.1875 -37.5625 306.1875 C-37.2325 304.95 -36.9025 303.7125 -36.5625 302.4375 C-36.376875 301.74140625 -36.19125 301.0453125 -36 300.328125 C-35.42900651 297.89848139 -35.42900651 297.89848139 -35.5625 294.1875 C-39.1925 294.1875 -42.8225 294.1875 -46.5625 294.1875 Z " fill="currentColor" transform="translate(183.5625,10.8125)"/>
<path d="M0 0 C7.33333333 0 14.66666667 0 22 0 C22 1.32 22 2.64 22 4 C22.66 4 23.32 4 24 4 C24 2.68 24 1.36 24 0 C25.79158489 -0.02696365 27.58328473 -0.04637917 29.375 -0.0625 C30.37273437 -0.07410156 31.37046875 -0.08570313 32.3984375 -0.09765625 C35 0 35 0 37 1 C37.02712351 3.39591038 37.0468982 5.79150957 37.0625 8.1875 C37.07087891 8.86103516 37.07925781 9.53457031 37.08789062 10.22851562 C37.10606538 13.95434131 36.89299392 17.3788042 36 21 C38.31 21 40.62 21 43 21 C43.33 20.34 43.66 19.68 44 19 C44 19.99 44 20.98 44 22 C42.52093108 22.02689216 41.04172517 22.04634621 39.5625 22.0625 C38.32693359 22.07990234 38.32693359 22.07990234 37.06640625 22.09765625 C35 22 35 22 34 21 C31.73150334 24.65172633 31.6104049 28.0127118 31.375 32.25 C31.30023438 33.51328125 31.22546875 34.7765625 31.1484375 36.078125 C31.09945312 37.04234375 31.05046875 38.0065625 31 39 C30.67 39 30.34 39 30 39 C30 35.37 30 31.74 30 28 C27.03 28 24.06 28 21 28 C20.01 32.29 19.02 36.58 18 41 C23.94 40.505 23.94 40.505 30 40 C30 40.66 30 41.32 30 42 C25.71 42 21.42 42 17 42 C17 39.03 17 36.06 17 33 C16.01 35.97 15.02 38.94 14 42 C10.04 42 6.08 42 2 42 C1.505 39.525 1.505 39.525 1 37 C0.01 39.475 0.01 39.475 -1 42 C-4.96 42 -8.92 42 -13 42 C-12.67 39.03 -12.34 36.06 -12 33 C-13.485 33.495 -13.485 33.495 -15 34 C-14.35856108 27.55850777 -12.45254731 21.69542617 -10.4375 15.5625 C-10.10814453 14.54478516 -9.77878906 13.52707031 -9.43945312 12.47851562 C-8.63136468 9.98398174 -7.81809872 7.49126517 -7 5 C-5.35 5.99 -3.7 6.98 -2 8 C-2.28427417 9.58467728 -2.57774818 11.1677057 -2.875 12.75 C-3.03742188 13.63171875 -3.19984375 14.5134375 -3.3671875 15.421875 C-4 18 -4 18 -6 22 C-2.7 22 0.6 22 4 22 C4.144375 20.4325 4.28875 18.865 4.4375 17.25 C4.73058631 14.06792001 5.14340865 11.08084955 6 8 C4.35 8 2.7 8 1 8 C3.33214148 6.79371992 5.49642139 5.8345262 8 5 C8 4.01 8 3.02 8 2 C5.36 1.67 2.72 1.34 0 1 C0 0.67 0 0.34 0 0 Z M12 1 C11.67 2.32 11.34 3.64 11 5 C13.42130331 6.21065165 14.48293659 5.94602533 17.125 5.5625 C18.40375 5.376875 19.6825 5.19125 21 5 C21 3.68 21 2.36 21 1 C18.03 1 15.06 1 12 1 Z M25 1 C24.49465273 3.72827365 23.99556155 6.45744694 23.5 9.1875 C23.35691406 9.95642578 23.21382812 10.72535156 23.06640625 11.51757812 C22.36761285 15.39421773 21.80960983 19.041471 22 23 C23.47906892 23.02689216 24.95827483 23.04634621 26.4375 23.0625 C27.67306641 23.07990234 27.67306641 23.07990234 28.93359375 23.09765625 C30.99163938 23.23267348 30.99163938 23.23267348 32 22 C32.23527773 19.65012738 32.41386417 17.29443961 32.5625 14.9375 C32.64628906 13.64714844 32.73007813 12.35679687 32.81640625 11.02734375 C32.87699219 10.02832031 32.93757813 9.02929688 33 8 C30.7763932 6.7018576 30.7763932 6.7018576 27 7 C29.31 6.34 31.62 5.68 34 5 C34 3.68 34 2.36 34 1 C31.03 1 28.06 1 25 1 Z M12 7 C9.37124595 12.37180176 8.3916035 17.04492601 8 23 C13.32170494 23.29562367 13.32170494 23.29562367 18 21 C19.49470029 16.51589913 19.09166185 11.67475433 19 7 C16.69 7 14.38 7 12 7 Z M-7 26 C-9.37113483 30.96284034 -11.43174347 35.45949887 -12 41 C-8.7 41 -5.4 41 -2 41 C0.03993514 36.07015675 1.40652968 32.42039575 1 27 C-1.64 26.67 -4.28 26.34 -7 26 Z M6 27 C3.77106813 31.6064592 3.45122398 35.96133223 3 41 C6.3 41 9.6 41 13 41 C15.22893187 36.3935408 15.54877602 32.03866777 16 27 C12.7 27 9.4 27 6 27 Z " fill="currentColor" transform="translate(119,260)"/>
<path d="M0 0 C1.65 0.99 3.3 1.98 5 3 C4.71572583 4.58467728 4.42225182 6.1677057 4.125 7.75 C3.96257812 8.63171875 3.80015625 9.5134375 3.6328125 10.421875 C3 13 3 13 1 17 C12.385 17.99 12.385 17.99 24 19 C24 19.33 24 19.66 24 20 C20.37 20.33 16.74 20.66 13 21 C12.01 25.95 11.02 30.9 10 36 C15.445 35.505 15.445 35.505 21 35 C21 35.66 21 36.32 21 37 C17.04 37 13.08 37 9 37 C8.505 34.525 8.505 34.525 8 32 C7.01 34.475 7.01 34.475 6 37 C2.04 37 -1.92 37 -6 37 C-5.505 32.545 -5.505 32.545 -5 28 C-5.99 28.33 -6.98 28.66 -8 29 C-7.35856108 22.55850777 -5.45254731 16.69542617 -3.4375 10.5625 C-3.10814453 9.54478516 -2.77878906 8.52707031 -2.43945312 7.47851562 C-1.63136468 4.98398174 -0.81809872 2.49126517 0 0 Z M0 21 C-2.37113483 25.96284034 -4.43174347 30.45949887 -5 36 C-1.7 36 1.6 36 5 36 C7.03993514 31.07015675 8.40652968 27.42039575 8 22 C5.36 21.67 2.72 21.34 0 21 Z " fill="currentColor" transform="translate(112,265)"/>
<path d="M0 0 C9 0 18 0 27 0 C27 0.33 27 0.66 27 1 C25.35 1 23.7 1 22 1 C22.46212891 1.85658203 22.46212891 1.85658203 22.93359375 2.73046875 C25.57528195 8.35252312 26.21923046 14.88397197 27 21 C23.69005287 22.65497356 20.00877 22.10084335 16.375 22.0625 C15.57320312 22.05798828 14.77140625 22.05347656 13.9453125 22.04882812 C11.96350994 22.03703168 9.98174567 22.01909605 8 22 C8 21.67 8 21.34 8 21 C9.98 21 11.96 21 14 21 C13.34 17.04 12.68 13.08 12 9 C10.68 9.33 9.36 9.66 8 10 C8.061875 11.27875 8.12375 12.5575 8.1875 13.875 C8.29296875 16.0546875 8.29296875 16.0546875 8 18 C7.01 18.66 6.02 19.32 5 20 C4.81824219 18.60974609 4.81824219 18.60974609 4.6328125 17.19140625 C4.46523437 15.99386719 4.29765625 14.79632813 4.125 13.5625 C3.96257812 12.36753906 3.80015625 11.17257812 3.6328125 9.94140625 C3.42398438 8.97074219 3.21515625 8.00007813 3 7 C2.34 6.67 1.68 6.34 1 6 C1.66 4.35 2.32 2.7 3 1 C2.01 0.67 1.02 0.34 0 0 Z M6 1 C6 2.32 6 3.64 6 5 C7.65 5 9.3 5 11 5 C11 3.68 11 2.36 11 1 C9.35 1 7.7 1 6 1 Z M14 1 C14.33 2.32 14.66 3.64 15 5 C16.32 5 17.64 5 19 5 C19 3.68 19 2.36 19 1 C17.35 1 15.7 1 14 1 Z M16 8 C16.14084796 9.79206547 16.28783701 11.58364917 16.4375 13.375 C16.55931641 14.87160156 16.55931641 14.87160156 16.68359375 16.3984375 C16.84965626 18.97927613 16.84965626 18.97927613 18 21 C19.98 21 21.96 21 24 21 C23.01 16.71 22.02 12.42 21 8 C19.35 8 17.7 8 16 8 Z " fill="currentColor" transform="translate(204,260)"/>
<path d="M0 0 C0.66 0.33 1.32 0.66 2 1 C1.67 6.61 1.34 12.22 1 18 C31.03 18 61.06 18 92 18 C92 19.65 92 21.3 92 23 C90.41727399 24.58272601 88.61965997 24.34735747 86.4375 24.5625 C85.19806641 24.68818359 85.19806641 24.68818359 83.93359375 24.81640625 C83.29550781 24.87699219 82.65742188 24.93757813 82 25 C82 24.01 82 23.02 82 22 C84.31 22 86.62 22 89 22 C89 21.34 89 20.68 89 20 C87.87469376 20.00222061 86.74938751 20.00444122 85.58998108 20.00672913 C75.0093856 20.02695944 64.42879403 20.0419716 53.84818363 20.05181217 C48.40797688 20.05704128 42.96778569 20.06413943 37.52758789 20.07543945 C32.28214298 20.08626735 27.03671308 20.09227662 21.79125786 20.09487724 C19.78529054 20.09673167 17.77932408 20.10035262 15.77336311 20.10573006 C12.97397176 20.11293919 10.17464321 20.113991 7.37524414 20.11352539 C6.53727295 20.11712067 5.69930176 20.12071594 4.8359375 20.12442017 C-0.88594784 20.11405216 -0.88594784 20.11405216 -2 19 C-2.08631874 17.65732587 -2.10706473 16.31025678 -2.09765625 14.96484375 C-2.09443359 14.15595703 -2.09121094 13.34707031 -2.08789062 12.51367188 C-2.07951172 11.66353516 -2.07113281 10.81339844 -2.0625 9.9375 C-2.05798828 9.08349609 -2.05347656 8.22949219 -2.04882812 7.34960938 C-2.03700373 5.23304337 -2.01906769 3.11651315 -2 1 C-1.34 0.67 -0.68 0.34 0 0 Z " fill="currentColor" transform="translate(186,55)"/>
<path d="M0 0 C7.33333333 0 14.66666667 0 22 0 C22 1.32 22 2.64 22 4 C22.66 4 23.32 4 24 4 C24 2.68 24 1.36 24 0 C25.79158489 -0.02696365 27.58328473 -0.04637917 29.375 -0.0625 C30.37273437 -0.07410156 31.37046875 -0.08570313 32.3984375 -0.09765625 C35 0 35 0 37 1 C37.02712351 3.39591038 37.0468982 5.79150957 37.0625 8.1875 C37.07087891 8.86103516 37.07925781 9.53457031 37.08789062 10.22851562 C37.10606538 13.95434131 36.89299392 17.3788042 36 21 C38.31 21 40.62 21 43 21 C43.33 20.34 43.66 19.68 44 19 C44 19.99 44 20.98 44 22 C41.03 22 38.06 22 35 22 C32.67913603 16.675665 33.08542997 12.56157448 34 7 C31.69 7.33 29.38 7.66 27 8 C26.67 7.34 26.34 6.68 26 6 C28.64 5.67 31.28 5.34 34 5 C34 3.68 34 2.36 34 1 C31.03 1 28.06 1 25 1 C25.04125 2.216875 25.0825 3.43375 25.125 4.6875 C25.13754508 8.21894127 24.59998217 10.80003566 23 14 C19.9890638 11.9927092 19.36983503 11.16115776 18 8 C13.74268432 7.59250325 13.74268432 7.59250325 10.125 9.5 C9.75375 9.995 9.3825 10.49 9 11 C8.896875 10.360625 8.79375 9.72125 8.6875 9.0625 C8.460625 8.381875 8.23375 7.70125 8 7 C7.01 6.67 6.02 6.34 5 6 C5.99 5.67 6.98 5.34 8 5 C8 4.01 8 3.02 8 2 C5.36 1.67 2.72 1.34 0 1 C0 0.67 0 0.34 0 0 Z M12 1 C11.67 2.32 11.34 3.64 11 5 C13.42130331 6.21065165 14.48293659 5.94602533 17.125 5.5625 C18.40375 5.376875 19.6825 5.19125 21 5 C21 3.68 21 2.36 21 1 C18.03 1 15.06 1 12 1 Z " fill="currentColor" transform="translate(119,260)"/>
<path d="M0 0 C5.94 0 11.88 0 18 0 C16.68 0.33 15.36 0.66 14 1 C14.33 3.31 14.66 5.62 15 8 C15.99 8 16.98 8 18 8 C18.33 7.01 18.66 6.02 19 5 C19.66 5 20.32 5 21 5 C21.33 5.66 21.66 6.32 22 7 C22.99 7 23.98 7 25 7 C24.81171228 4.55519921 24.81171228 4.55519921 24 2 C22.03241727 0.63979849 22.03241727 0.63979849 20 0 C24.5802206 0 29.05508955 0.14157565 33.625 0.5 C34.81351563 0.5928125 36.00203125 0.685625 37.2265625 0.78125 C38.14179688 0.8534375 39.05703125 0.925625 40 1 C40.495 2.98 40.495 2.98 41 5 C37.04 5 33.08 5 29 5 C28.34 6.32 27.68 7.64 27 9 C18.09 9 9.18 9 0 9 C0 8.67 0 8.34 0 8 C3.3 7.67 6.6 7.34 10 7 C10 5.02 10 3.04 10 1 C6.7 1 3.4 1 0 1 C0 0.67 0 0.34 0 0 Z " fill="currentColor" transform="translate(188,248)"/>
<path d="M0 0 C0.33 0.66 0.66 1.32 1 2 C-0.0893948 4.50863414 -1.23807802 6.89194504 -2.5 9.3125 C-2.86222656 10.02148438 -3.22445312 10.73046875 -3.59765625 11.4609375 C-6.96806892 18.02560886 -10.45406366 24.52866619 -14 31 C-14.33 30.34 -14.66 29.68 -15 29 C-14.09808111 26.9844578 -13.10346045 25.009875 -12.0625 23.0625 C-9.64356083 18.7603191 -9.64356083 18.7603191 -9 14 C-9.99 14.33 -10.98 14.66 -12 15 C-13.07585059 17.72435637 -13.07585059 17.72435637 -14 21 C-14.95201226 23.35646599 -15.97624332 25.67328026 -17 28 C-17.66 28 -18.32 28 -19 28 C-19.33 29.32 -19.66 30.64 -20 32 C-20.33 31.34 -20.66 30.68 -21 30 C-19.88923745 27.45036347 -18.72026646 25.02414691 -17.4375 22.5625 C-16.89029297 21.49128906 -16.89029297 21.49128906 -16.33203125 20.3984375 C-13.32535908 14.54278576 -10.21326624 8.74493055 -7 3 C-5.33333333 3 -3.66666667 3 -2 3 C-1.34 2.01 -0.68 1.02 0 0 Z " fill="currentColor" transform="translate(75,261)"/>
<path d="M0 0 C14.52 0 29.04 0 44 0 C41 3 41 3 39.12068176 3.36076355 C38.41674789 3.35410172 37.71281403 3.34743988 36.98754883 3.34057617 C36.18694534 3.34034958 35.38634186 3.34012299 34.56147766 3.33988953 C33.70201035 3.32440567 32.84254303 3.30892181 31.95703125 3.29296875 C31.0734343 3.28872391 30.18983734 3.28447906 29.27946472 3.28010559 C26.45683339 3.26331043 23.63491559 3.22565697 20.8125 3.1875 C18.89909885 3.17245423 16.98568651 3.15876564 15.07226562 3.14648438 C10.38123541 3.11340419 5.69073869 3.0616163 1 3 C0.67 2.01 0.34 1.02 0 0 Z " fill="currentColor" transform="translate(234,260)"/>
<path d="M0 0 C0.66 0 1.32 0 2 0 C2.66 4.29 3.32 8.58 4 13 C5.98 13 7.96 13 10 13 C9.77183594 12.46890625 9.54367188 11.9378125 9.30859375 11.390625 C9.02113281 10.68421875 8.73367187 9.9778125 8.4375 9.25 C8.14746094 8.55390625 7.85742188 7.8578125 7.55859375 7.140625 C6.9125545 4.66489417 7.05956833 3.3639266 8 1 C8.66 0.67 9.32 0.34 10 0 C10.53394179 1.4117783 11.05165104 2.82970244 11.5625 4.25 C11.85253906 5.03890625 12.14257812 5.8278125 12.44140625 6.640625 C13.0499718 9.2110697 12.90655049 10.54634239 12 13 C11 14 11 14 7.18359375 14.09765625 C5.60153318 14.09098089 4.01948841 14.07901875 2.4375 14.0625 C1.63119141 14.05798828 0.82488281 14.05347656 -0.00585938 14.04882812 C-2.00393756 14.03700518 -4.00197783 14.01906914 -6 14 C-6 13.67 -6 13.34 -6 13 C-4.02 13 -2.04 13 0 13 C-0.165 12.319375 -0.33 11.63875 -0.5 10.9375 C-1.07347493 7.56833481 -1.13122252 4.41178541 -1 1 C-0.67 0.67 -0.34 0.34 0 0 Z " fill="currentColor" transform="translate(218,268)"/>
<path d="M0 0 C3.375 -0.1875 3.375 -0.1875 7 0 C9.60956574 3.91434861 8.84490082 5.46825926 8 10 C7.814375 11.134375 7.62875 12.26875 7.4375 13.4375 C7.2209375 14.7059375 7.2209375 14.7059375 7 16 C10.3 15.34 13.6 14.68 17 14 C17 14.99 17 15.98 17 17 C15.08364783 17.05423638 13.16685075 17.09289963 11.25 17.125 C10.18265625 17.14820313 9.1153125 17.17140625 8.015625 17.1953125 C5.07529894 17.00487687 3.47638122 16.52670104 1 15 C1.66 15 2.32 15 3 15 C3.06058594 14.32453125 3.12117188 13.6490625 3.18359375 12.953125 C3.26738281 12.06109375 3.35117188 11.1690625 3.4375 10.25 C3.51871094 9.36828125 3.59992188 8.4865625 3.68359375 7.578125 C3.96238465 5.30649548 4.38790577 3.20148177 5 1 C3.35 1 1.7 1 0 1 C0 0.67 0 0.34 0 0 Z " fill="currentColor" transform="translate(120,267)"/>
<path d="M0 0 C8.91 0 17.82 0 27 0 C27 1.65 27 3.3 27 5 C26.67 3.68 26.34 2.36 26 1 C22.37 1 18.74 1 15 1 C14.34 4.3 13.68 7.6 13 11 C12 8 12 8 12 4 C11.01 7.3 10.02 10.6 9 14 C4.71 14 0.42 14 -4 14 C-3.67 13.01 -3.34 12.02 -3 11 C-3 11.66 -3 12.32 -3 13 C0.63 13 4.26 13 8 13 C8.144375 11.9275 8.28875 10.855 8.4375 9.75 C9 6 9 6 10 2 C6.7 1.67 3.4 1.34 0 1 C0 0.67 0 0.34 0 0 Z " fill="currentColor" transform="translate(105,304)"/>
<path d="M0 0 C0 0.99 0 1.98 0 3 C-14.19 3 -28.38 3 -43 3 C-43 2.67 -43 2.34 -43 2 C-33.96345184 1.14103257 -24.94635738 0.71753684 -15.875 0.4375 C-13.90660156 0.37272461 -13.90660156 0.37272461 -11.8984375 0.30664062 C-2.47532242 0 -2.47532242 0 0 0 Z " fill="currentColor" transform="translate(339,261)"/>
<path d="M0 0 C4.5802206 0 9.05508955 0.14157565 13.625 0.5 C14.81351563 0.5928125 16.00203125 0.685625 17.2265625 0.78125 C18.14179688 0.8534375 19.05703125 0.925625 20 1 C20.33 2.32 20.66 3.64 21 5 C20.16855469 4.98839844 19.33710938 4.97679687 18.48046875 4.96484375 C16.85044922 4.95130859 16.85044922 4.95130859 15.1875 4.9375 C13.56908203 4.92009766 13.56908203 4.92009766 11.91796875 4.90234375 C8.93487831 4.86375234 8.93487831 4.86375234 6 6 C5.7525 5.38125 5.505 4.7625 5.25 4.125 C3.79371361 1.64931313 2.62187494 1.04874998 0 0 Z " fill="currentColor" transform="translate(208,248)"/>
<path d="M0 0 C2.64 0 5.28 0 8 0 C8 0.99 8 1.98 8 3 C8.66 3 9.32 3 10 3 C9.34 6.96 8.68 10.92 8 15 C13.445 14.505 13.445 14.505 19 14 C19 14.66 19 15.32 19 16 C15.04 16 11.08 16 7 16 C6.67 14.35 6.34 12.7 6 11 C5.01 12.485 5.01 12.485 4 14 C4.60825035 9.65535464 5.26167392 5.32448133 6 1 C4.02 1 2.04 1 0 1 C0 0.67 0 0.34 0 0 Z " fill="currentColor" transform="translate(114,286)"/>
<path d="M0 0 C0.5775 0.66 1.155 1.32 1.75 2 C6.10309379 4.67882695 9.44689654 4.26885955 14.453125 4.04296875 C15.29359375 4.02878906 16.1340625 4.01460937 17 4 C18 5 18 5 18.125 7.5 C18 10 18 10 17 11 C15.31391034 11.07205511 13.62499341 11.08386068 11.9375 11.0625 C11.01839844 11.05347656 10.09929687 11.04445312 9.15234375 11.03515625 C8.44207031 11.02355469 7.73179687 11.01195312 7 11 C7.515625 11.78375 8.03125 12.5675 8.5625 13.375 C9.036875 14.24125 9.51125 15.1075 10 16 C9.67 16.66 9.34 17.32 9 18 C5.78253679 15.34209561 5.91766992 14.58834962 5 10 C8.63 10 12.26 10 16 10 C16 8.68 16 7.36 16 6 C11.38 6 6.76 6 2 6 C2 5.34 2 4.68 2 4 C1.34 4 0.68 4 0 4 C0 2.68 0 1.36 0 0 Z " fill="currentColor" transform="translate(286,156)"/>
<path d="M0 0 C0.66 0 1.32 0 2 0 C2 4.29 2 8.58 2 13 C1.67 13 1.34 13 1 13 C0.67 15.97 0.34 18.94 0 22 C-4.29 22 -8.58 22 -13 22 C-13 21.67 -13 21.34 -13 21 C-9.04 21 -5.08 21 -1 21 C-1.01160156 19.81921875 -1.02320313 18.6384375 -1.03515625 17.421875 C-1.04453752 15.86458492 -1.05363736 14.30729312 -1.0625 12.75 C-1.07087891 11.97269531 -1.07925781 11.19539063 -1.08789062 10.39453125 C-1.09111328 9.64042969 -1.09433594 8.88632812 -1.09765625 8.109375 C-1.10289307 7.41811523 -1.10812988 6.72685547 -1.11352539 6.01464844 C-0.99437971 3.90026102 -0.57618237 2.03358485 0 0 Z " fill="currentColor" transform="translate(201,260)"/>
<path d="M0 0 C6.27 0 12.54 0 19 0 C19 0.33 19 0.66 19 1 C17.35 1 15.7 1 14 1 C14.33 2.65 14.66 4.3 15 6 C13.35 6 11.7 6 10 6 C10.33 4.35 10.66 2.7 11 1 C9.35 1 7.7 1 6 1 C5.67 2.65 5.34 4.3 5 6 C4.34 6 3.68 6 3 6 C3 4.35 3 2.7 3 1 C2.01 0.67 1.02 0.34 0 0 Z " fill="currentColor" transform="translate(204,260)"/>
<path d="M0 0 C4.95 0.33 9.9 0.66 15 1 C15 2.65 15 4.3 15 6 C9.31302429 6.91397824 4.68697571 6.91397824 -1 6 C-1 5.67 -1 5.34 -1 5 C3.95 5 8.9 5 14 5 C14 4.34 14 3.68 14 3 C9.71 3 5.42 3 1 3 C0.67 2.01 0.34 1.02 0 0 Z " fill="currentColor" transform="translate(296,254)"/>
<path d="M0 0 C0.66 0.33 1.32 0.66 2 1 C0.35 5.62 -1.3 10.24 -3 15 C2.445 14.505 2.445 14.505 8 14 C8 14.66 8 15.32 8 16 C4.04 16 0.08 16 -4 16 C-3.67 13.03 -3.34 10.06 -3 7 C-3.99 7.33 -4.98 7.66 -6 8 C-6 6.68 -6 5.36 -6 4 C-5.38125 3.896875 -4.7625 3.79375 -4.125 3.6875 C-1.63473516 3.12474627 -1.63473516 3.12474627 0 0 Z " fill="currentColor" transform="translate(110,286)"/>
<path d="M0 0 C3.96 0 7.92 0 12 0 C11.67 4.62 11.34 9.24 11 14 C10.67 14 10.34 14 10 14 C10 10.37 10 6.74 10 3 C6.7 3 3.4 3 0 3 C0 2.01 0 1.02 0 0 Z " fill="currentColor" transform="translate(139,285)"/>
<path d="M0 0 C-0.33 0.66 -0.66 1.32 -1 2 C-3.0625 2.625 -3.0625 2.625 -5 3 C-4.938125 4.27875 -4.87625 5.5575 -4.8125 6.875 C-4.70703125 9.0546875 -4.70703125 9.0546875 -5 11 C-5.99 11.66 -6.98 12.32 -8 13 C-8.66 9.04 -9.32 5.08 -10 1 C-6.41220825 0.10305206 -3.65381163 -0.08304117 0 0 Z " fill="currentColor" transform="translate(217,267)"/>
<path d="M0 0 C0 0.33 0 0.66 0 1 C-3.63 1.33 -7.26 1.66 -11 2 C-11.33 2.99 -11.66 3.98 -12 5 C-12.66 5 -13.32 5 -14 5 C-14 3.68 -14 2.36 -14 1 C-17.3 1 -20.6 1 -24 1 C-24 0.67 -24 0.34 -24 0 C-15.84997076 -1.06162705 -8.16617194 -0.84388104 0 0 Z " fill="currentColor" transform="translate(136,284)"/>
<path d="M0 0 C4.15882353 8.02058824 4.15882353 8.02058824 3.625 11.3125 C3.41875 11.869375 3.2125 12.42625 3 13 C2.67 12.01 2.34 11.02 2 10 C1.01 10.495 1.01 10.495 0 11 C-2.46977731 4.60763521 -2.46977731 4.60763521 -1 1 C-0.67 0.67 -0.34 0.34 0 0 Z " fill="currentColor" transform="translate(227,268)"/>
<path d="M0 0 C0.6875 1.625 0.6875 1.625 1 4 C-0.4375 7.25 -0.4375 7.25 -2 10 C-2.99 10 -3.98 10 -5 10 C-5.33 9.34 -5.66 8.68 -6 8 C-4.40382422 4.16917814 -3.50015029 2.33343353 0 0 Z " fill="currentColor" transform="translate(66,274)"/>
<path d="M0 0 C0.99 0.495 0.99 0.495 2 1 C2 1.66 2 2.32 2 3 C2.99 3 3.98 3 5 3 C5.33 2.01 5.66 1.02 6 0 C6.66 0 7.32 0 8 0 C8.33 0.66 8.66 1.32 9 2 C11.16874252 1.49396008 12.99967627 1.00016187 15 0 C14.67 1.32 14.34 2.64 14 4 C9.71 4 5.42 4 1 4 C0.67 2.68 0.34 1.36 0 0 Z " fill="currentColor" transform="translate(201,253)"/>
<path d="M0 0 C8.57142857 2 8.57142857 2 12 4 C11.67 5.32 11.34 6.64 11 8 C9.68 7.67 8.36 7.34 7 7 C7.66 6.34 8.32 5.68 9 5 C6.03 4.01 3.06 3.02 0 2 C0 1.34 0 0.68 0 0 Z " fill="currentColor" transform="translate(218,32)"/>
<path d="M0 0 C3.63 0 7.26 0 11 0 C11 0.33 11 0.66 11 1 C9.35 1 7.7 1 6 1 C5.67 2.65 5.34 4.3 5 6 C4.34 6 3.68 6 3 6 C3 4.35 3 2.7 3 1 C2.01 0.67 1.02 0.34 0 0 Z " fill="currentColor" transform="translate(204,260)"/>
<path d="M0 0 C4.19161906 0 7.88857686 0.13443723 12 1 C12 1.66 12 2.32 12 3 C10.02 3 8.04 3 6 3 C5.67 3.66 5.34 4.32 5 5 C4.67 4.01 4.34 3.02 4 2 C1.99983534 0.79117904 1.99983534 0.79117904 0 0 Z " fill="currentColor" transform="translate(208,248)"/>
<path d="M0 0 C3.29967665 2.80472516 5.08459104 6.16918209 7 10 C6.67 10.99 6.34 11.98 6 13 C5.67 11.68 5.34 10.36 5 9 C4.34 9 3.68 9 3 9 C0 2.25 0 2.25 0 0 Z " fill="currentColor" transform="translate(304,189)"/>
<path d="M0 0 C0.33 0 0.66 0 1 0 C0.85892253 1.45880109 0.71197585 2.91703551 0.5625 4.375 C0.48128906 5.18710937 0.40007812 5.99921875 0.31640625 6.8359375 C0 9 0 9 -1 11 C-1.66 11 -2.32 11 -3 11 C-2.69078116 9.54096742 -2.37751201 8.08279278 -2.0625 6.625 C-1.88847656 5.81289063 -1.71445313 5.00078125 -1.53515625 4.1640625 C-1 2 -1 2 0 0 Z " fill="currentColor" transform="translate(117,306)"/>
<path d="M0 0 C0.66 0 1.32 0 2 0 C2.33 2.97 2.66 5.94 3 9 C2.34 8.34 1.68 7.68 1 7 C0.01 7.495 0.01 7.495 -1 8 C-1.04241723 5.66705225 -1.04092937 3.33297433 -1 1 C-0.67 0.67 -0.34 0.34 0 0 Z " fill="currentColor" transform="translate(218,268)"/>
<path d="M0 0 C1.485 0.99 1.485 0.99 3 2 C2.67 3.98 2.34 5.96 2 8 C1.01 8.33 0.02 8.66 -1 9 C-0.67 6.03 -0.34 3.06 0 0 Z " fill="currentColor" transform="translate(132,304)"/>
<path d="M0 0 C2.97 0.33 5.94 0.66 9 1 C9 1.66 9 2.32 9 3 C6.69 3 4.38 3 2 3 C2 2.34 2 1.68 2 1 C1.34 0.67 0.68 0.34 0 0 Z " fill="currentColor" transform="translate(273,254)"/>
<path d="M0 0 C4.42857143 5.14285714 4.42857143 5.14285714 5 9 C4.34 9 3.68 9 3 9 C0.56839395 5.63316085 0 4.26649636 0 0 Z " fill="currentColor" transform="translate(315,209)"/>
<path d="" fill="currentColor" transform="translate(0,0)"/>
<path d="" fill="currentColor" transform="translate(0,0)"/>
</svg>
